{
copyright = "Copyright (c) 2015, Cadson Demak (info@cadsondemak.com)";
customParameters = (
{
name = vendorID;
value = CDK;
},
{
name = description;
value = "Copyright (c) 2015, Cadson Demak (info@cadsondemak.com)";
},
{
name = license;

glyphs = (
{
glyphname = A;
lastChange = "2015-11-30 00:36:25 +0000";
layers = (
{
layerId = "493B3A41-641C-4718-8E4F-15C1585391FA";
name = "Regular Italic";
paths = (
{
closed = 1;
nodes = (
"103 0 LINE",
"207 174 LINE",
"516 174 LINE",
"550 0 LINE",
"651 0 LINE",
"520 699 LINE",
"422 699 LINE",
"-5 0 LINE"
);
},
{
closed = 1;
nodes = (
"450 586 LINE",
"507 259 LINE",
"255 259 LINE"
);
}
);
width = 746;
}
);
leftKerningGroup = A;
note = A;
rightKerningGroup = A;
unicode = 0041;
},
{
glyphname = Aacute;
lastChange = "2015-11-30 00:36:24 +0000";
layers = (
{
layerId = "493B3A41-641C-4718-8E4F-15C1585391FA";
name = "Regular Italic";
paths = (
{
closed = 1;
nodes = (
"103 0 LINE",
"207 174 LINE",
"516 174 LINE",
"550 0 LINE",
"651 0 LINE",
"520 699 LINE",
"422 699 LINE",
"-5 0 LINE"
);
},
{
closed = 1;
nodes = (
"450 586 LINE",
"507 259 LINE",
"255 259 LINE"
);
},
{
closed = 1;
nodes = (
"531 741 LINE",
"651 913 LINE",
"544 913 LINE",
"439 741 LINE"
);
}
);
width = 746;
}
);
leftKerningGroup = A;
note = Aacute;
rightKerningGroup = A;
unicode = 00C1;
},
{
glyphname = Abreve;
lastChange = "2015-11-30 00:36:24 +0000";
layers = (
{
layerId = "493B3A41-641C-4718-8E4F-15C1585391FA";
name = "Regular Italic";
paths = (
{
closed = 1;
nodes = (
"103 0 LINE",
"207 174 LINE",
"516 174 LINE",
"550 0 LINE",
"651 0 LINE",
"520 699 LINE",
"422 699 LINE",
"-5 0 LINE"
);
},
{
closed = 1;
nodes = (
"450 586 LINE",
"507 259 LINE",
"255 259 LINE"
);
},
{
closed = 1;
nodes = (
"572 742 OFFCURVE",
"642 800 OFFCURVE",
"659 882 CURVE",
"579 882 LINE",
"569 837 OFFCURVE",
"537 811 OFFCURVE",
"491 811 CURVE SMOOTH",
"445 811 OFFCURVE",
"423 837 OFFCURVE",
"433 882 CURVE",
"358 882 LINE",
"342 800 OFFCURVE",
"385 742 OFFCURVE",
"479 742 CURVE SMOOTH"
);
}
);
width = 746;
}
);
leftKerningGroup = A;
note = Abreve;
rightKerningGroup = A;
unicode = 0102;
},
{
glyphname = Abreveacute;
lastChange = "2015-11-30 00:36:24 +0000";
layers = (
{
layerId = "493B3A41-641C-4718-8E4F-15C1585391FA";
name = "Regular Italic";
paths = (
{
closed = 1;
nodes = (
"103 0 LINE",
"207 174 LINE",
"516 174 LINE",
"550 0 LINE",
"651 0 LINE",
"520 699 LINE",
"422 699 LINE",
"-5 0 LINE"
);
},
{
closed = 1;
nodes = (
"450 586 LINE",
"507 259 LINE",
"255 259 LINE"
);
},
{
closed = 1;
nodes = (
"571 742 OFFCURVE",
"638 798 OFFCURVE",
"655 879 CURVE",
"578 879 LINE",
"569 835 OFFCURVE",
"537 809 OFFCURVE",
"491 809 CURVE SMOOTH",
"446 809 OFFCURVE",
"426 835 OFFCURVE",
"435 879 CURVE",
"363 879 LINE",
"346 798 OFFCURVE",
"389 742 OFFCURVE",
"480 742 CURVE SMOOTH"
);
},
{
closed = 1;
nodes = (
"539 874 LINE",
"630 998 LINE",
"547 998 LINE",
"469 874 LINE"
);
}
);
width = 746;
}
);
leftKerningGroup = A;
note = Abreveacute;
rightKerningGroup = A;
unicode = 1EAE;
},
{
glyphname = Abrevedotbelow;
lastChange = "2015-11-30 00:36:23 +0000";
layers = (
{
layerId = "493B3A41-641C-4718-8E4F-15C1585391FA";
name = "Regular Italic";
paths = (
{
closed = 1;
nodes = (
"103 0 LINE",
"207 174 LINE",
"516 174 LINE",
"550 0 LINE",
"651 0 LINE",
"520 699 LINE",
"422 699 LINE",
"-5 0 LINE"
);
},
{
closed = 1;
nodes = (
"320 -166 OFFCURVE",
"351 -140 OFFCURVE",
"358 -108 CURVE SMOOTH",
"364 -76 OFFCURVE",
"344 -50 OFFCURVE",
"314 -50 CURVE SMOOTH",
"282 -50 OFFCURVE",
"249 -76 OFFCURVE",
"243 -108 CURVE SMOOTH",
"236 -140 OFFCURVE",
"257 -166 OFFCURVE",
"289 -166 CURVE SMOOTH"
);
},
{
closed = 1;
nodes = (
"450 586 LINE",
"507 259 LINE",
"255 259 LINE"
);
},
{
closed = 1;
nodes = (
"572 742 OFFCURVE",
"642 800 OFFCURVE",
"659 882 CURVE",
"579 882 LINE",
"569 837 OFFCURVE",
"537 811 OFFCURVE",
"491 811 CURVE SMOOTH",
"445 811 OFFCURVE",
"423 837 OFFCURVE",
"433 882 CURVE",
"358 882 LINE",
"342 800 OFFCURVE",
"385 742 OFFCURVE",
"479 742 CURVE SMOOTH"
);
}
);
width = 746;
}
);
leftKerningGroup = A;
note = Abrevedotbelow;
rightKerningGroup = A;
unicode = 1EB6;
},
{
glyphname = Abrevegrave;
lastChange = "2015-11-30 00:36:25 +0000";
layers = (
{
layerId = "493B3A41-641C-4718-8E4F-15C1585391FA";
name = "Regular Italic";
paths = (
{
closed = 1;
nodes = (
"103 0 LINE",
"207 174 LINE",
"516 174 LINE",
"550 0 LINE",
"651 0 LINE",
"520 699 LINE",
"422 699 LINE",
"-5 0 LINE"
);
},
{
closed = 1;
nodes = (
"450 586 LINE",
"507 259 LINE",
"255 259 LINE"
);
},
{
closed = 1;
nodes = (
"571 742 OFFCURVE",
"638 798 OFFCURVE",
"655 879 CURVE",
"578 879 LINE",
"569 835 OFFCURVE",
"537 809 OFFCURVE",
"491 809 CURVE SMOOTH",
"446 809 OFFCURVE",
"426 835 OFFCURVE",
"435 879 CURVE",
"363 879 LINE",
"346 798 OFFCURVE",
"389 742 OFFCURVE",
"480 742 CURVE SMOOTH"
);
},
{
closed = 1;
nodes = (
"548 874 LINE",
"522 998 LINE",
"439 998 LINE",
"478 874 LINE"
);
}
);
width = 746;
}
);
leftKerningGroup = A;
note = Abrevegrave;
rightKerningGroup = A;
unicode = 1EB0;
},
{
glyphname = Abrevehookabove;
lastChange = "2015-11-30 00:36:22 +0000";
layers = (
{
layerId = "493B3A41-641C-4718-8E4F-15C1585391FA";
name = "Regular Italic";
paths = (
{
closed = 1;
nodes = (
"103 0 LINE",
"207 174 LINE",
"516 174 LINE",
"550 0 LINE",
"651 0 LINE",
"520 699 LINE",
"422 699 LINE",
"-5 0 LINE"
);
},
{
closed = 1;
nodes = (
"450 586 LINE",
"507 259 LINE",
"255 259 LINE"
);
},
{
closed = 1;
nodes = (
"572 742 OFFCURVE",
"638 798 OFFCURVE",
"655 879 CURVE",
"580 879 LINE",
"571 835 OFFCURVE",
"537 808 OFFCURVE",
"492 808 CURVE SMOOTH",
"446 808 OFFCURVE",
"425 835 OFFCURVE",
"434 879 CURVE",
"363 879 LINE",
"346 798 OFFCURVE",
"390 742 OFFCURVE",
"481 742 CURVE SMOOTH"
);
},
{
closed = 1;
nodes = (
"537 862 LINE",
"542 886 LINE",
"586 893 OFFCURVE",
"615 918 OFFCURVE",
"622 951 CURVE SMOOTH",
"631 992 OFFCURVE",
"604 1019 OFFCURVE",
"546 1019 CURVE SMOOTH",
"524 1019 OFFCURVE",
"495 1015 OFFCURVE",
"478 1009 CURVE",
"469 967 LINE",
"480 972 OFFCURVE",
"498 975 OFFCURVE",
"513 975 CURVE SMOOTH",
"542 975 OFFCURVE",
"555 967 OFFCURVE",
"550 945 CURVE SMOOTH",
"545 921 OFFCURVE",
"524 912 OFFCURVE",
"484 912 CURVE",
"473 862 LINE"
);
}
);
width = 746;
}
);
leftKerningGroup = A;
note = Abrevehookabove;
rightKerningGroup = A;
unicode = 1EB2;
},
{
glyphname = Abrevetilde;
lastChange = "2015-11-30 00:36:22 +0000";
layers = (
{
layerId = "493B3A41-641C-4718-8E4F-15C1585391FA";
name = "Regular Italic";
paths = (
{
closed = 1;
nodes = (
"103 0 LINE",
"207 174 LINE",
"516 174 LINE",
"550 0 LINE",
"651 0 LINE",
"520 699 LINE",
"422 699 LINE",
"-5 0 LINE"
);
},
{
closed = 1;
nodes = (
"450 586 LINE",
"507 259 LINE",
"255 259 LINE"
);
},
{
closed = 1;
nodes = (
"574 742 OFFCURVE",
"641 798 OFFCURVE",
"658 879 CURVE",
"581 879 LINE",
"572 835 OFFCURVE",
"540 809 OFFCURVE",
"494 809 CURVE SMOOTH",
"449 809 OFFCURVE",
"428 835 OFFCURVE",
"437 879 CURVE",
"366 879 LINE",
"349 798 OFFCURVE",
"392 742 OFFCURVE",
"483 742 CURVE SMOOTH"
);
},
{
closed = 1;
nodes = (
"389 939 OFFCURVE",
"416 950 OFFCURVE",
"447 950 CURVE SMOOTH",
"498 950 OFFCURVE",
"535 907 OFFCURVE",
"594 907 CURVE SMOOTH",
"629 907 OFFCURVE",
"658 916 OFFCURVE",
"681 942 CURVE",
"697 1017 LINE",
"667 984 OFFCURVE",
"638 973 OFFCURVE",
"608 973 CURVE SMOOTH",
"556 973 OFFCURVE",
"516 1017 OFFCURVE",
"461 1017 CURVE SMOOTH",
"426 1017 OFFCURVE",
"396 1007 OFFCURVE",
"373 981 CURVE",
"357 906 LINE"
);
}
);
width = 746;
}
);
leftKerningGroup = A;
note = Abrevetilde;
rightKerningGroup = A;
unicode = 1EB4;
},
{
glyphname = Acaron;
lastChange = "2015-11-30 00:36:22 +0000";
layers = (
{
layerId = "493B3A41-641C-4718-8E4F-15C1585391FA";
name = "Regular Italic";
paths = (
{
closed = 1;
nodes = (
"103 0 LINE",
"207 174 LINE",
"516 174 LINE",
"550 0 LINE",
"651 0 LINE",
"520 699 LINE",
"422 699 LINE",
"-5 0 LINE"
);
},
{
closed = 1;
nodes = (
"450 586 LINE",
"507 259 LINE",
"255 259 LINE"
);
},
{
closed = 1;
nodes = (
"524 742 LINE",
"702 908 LINE",
"597 908 LINE",
"490 801 LINE",
"429 908 LINE",
"330 908 LINE",
"435 742 LINE"
);
}
);
width = 746;
}
);
leftKerningGroup = A;
note = Acaron;
rightKerningGroup = A;
unicode = 01CD;
},
{
glyphname = Acircumflex;
lastChange = "2015-11-30 00:36:22 +0000";
layers = (
{
layerId = "493B3A41-641C-4718-8E4F-15C1585391FA";
name = "Regular Italic";
paths = (
{
closed = 1;
nodes = (
"103 0 LINE",
"207 174 LINE",
"516 174 LINE",
"550 0 LINE",
"651 0 LINE",
"520 699 LINE",
"422 699 LINE",
"-5 0 LINE"
);
},
{
closed = 1;
nodes = (
"450 586 LINE",
"507 259 LINE",
"255 259 LINE"
);
},
{
closed = 1;
nodes = (
"399 741 LINE",
"506 848 LINE",
"567 741 LINE",
"666 741 LINE",
"560 907 LINE",
"471 907 LINE",
"294 741 LINE"
);
}
);
width = 746;
}
);
leftKerningGroup = A;
note = Acircumflex;
rightKerningGroup = A;
unicode = 00C2;
},
{
glyphname = Acircumflexacute;
lastChange = "2015-11-30 00:36:21 +0000";
layers = (
{
layerId = "493B3A41-641C-4718-8E4F-15C1585391FA";
name = "Regular Italic";
paths = (
{
closed = 1;
nodes = (
"103 0 LINE",
"207 174 LINE",
"516 174 LINE",
"550 0 LINE",
"651 0 LINE",
"520 699 LINE",
"422 699 LINE",
"-5 0 LINE"
);
},
{
closed = 1;
nodes = (
"450 586 LINE",
"507 259 LINE",
"255 259 LINE"
);
},
{
closed = 1;
nodes = (
"400 747 LINE",
"501 837 LINE",
"564 747 LINE",
"659 747 LINE",
"553 892 LINE",
"467 892 LINE",
"298 747 LINE"
);
},
{
closed = 1;
nodes = (
"689 848 LINE",
"794 972 LINE",
"703 972 LINE",
"612 848 LINE"
);
}
);
width = 746;
}
);
leftKerningGroup = A;
note = Acircumflexacute;
rightKerningGroup = A;
unicode = 1EA4;
},
{
glyphname = Acircumflexdotbelow;
lastChange = "2015-11-30 00:36:24 +0000";
layers = (
{
layerId = "493B3A41-641C-4718-8E4F-15C1585391FA";
name = "Regular Italic";
paths = (
{
closed = 1;
nodes = (
"103 0 LINE",
"207 174 LINE",
"516 174 LINE",
"550 0 LINE",
"651 0 LINE",
"520 699 LINE",
"422 699 LINE",
"-5 0 LINE"
);
},
{
closed = 1;
nodes = (
"320 -166 OFFCURVE",
"351 -140 OFFCURVE",
"358 -108 CURVE SMOOTH",
"364 -76 OFFCURVE",
"344 -50 OFFCURVE",
"314 -50 CURVE SMOOTH",
"282 -50 OFFCURVE",
"249 -76 OFFCURVE",
"243 -108 CURVE SMOOTH",
"236 -140 OFFCURVE",
"257 -166 OFFCURVE",
"289 -166 CURVE SMOOTH"
);
},
{
closed = 1;
nodes = (
"450 586 LINE",
"507 259 LINE",
"255 259 LINE"
);
},
{
closed = 1;
nodes = (
"399 741 LINE",
"506 848 LINE",
"567 741 LINE",
"666 741 LINE",
"560 907 LINE",
"471 907 LINE",
"294 741 LINE"
);
}
);
width = 746;
}
);
leftKerningGroup = A;
note = Acircumflexdotbelow;
rightKerningGroup = A;
unicode = 1EAC;
},
{
glyphname = Acircumflexgrave;
lastChange = "2015-11-30 00:36:25 +0000";
layers = (
{
layerId = "493B3A41-641C-4718-8E4F-15C1585391FA";
name = "Regular Italic";
paths = (
{
closed = 1;
nodes = (
"103 0 LINE",
"207 174 LINE",
"516 174 LINE",
"550 0 LINE",
"651 0 LINE",
"520 699 LINE",
"422 699 LINE",
"-5 0 LINE"
);
},
{
closed = 1;
nodes = (
"450 586 LINE",
"507 259 LINE",
"255 259 LINE"
);
},
{
closed = 1;
nodes = (
"397 842 LINE",
"357 966 LINE",
"266 966 LINE",
"319 842 LINE"
);
},
{
closed = 1;
nodes = (
"407 741 LINE",
"508 831 LINE",
"571 741 LINE",
"666 741 LINE",
"560 886 LINE",
"474 886 LINE",
"305 741 LINE"
);
}
);
width = 746;
}
);
leftKerningGroup = A;
note = Acircumflexgrave;
rightKerningGroup = A;
unicode = 1EA6;
},
{
glyphname = Acircumflexhookabove;
lastChange = "2015-11-30 00:36:21 +0000";
layers = (
{
layerId = "493B3A41-641C-4718-8E4F-15C1585391FA";
name = "Regular Italic";
paths = (
{
closed = 1;
nodes = (
"103 0 LINE",
"207 174 LINE",
"516 174 LINE",
"550 0 LINE",
"651 0 LINE",
"520 699 LINE",
"422 699 LINE",
"-5 0 LINE"
);
},
{
closed = 1;
nodes = (
"450 586 LINE",
"507 259 LINE",
"255 259 LINE"
);
},
{
closed = 1;
nodes = (
"403 747 LINE",
"504 837 LINE",
"567 747 LINE",
"662 747 LINE",
"556 892 LINE",
"470 892 LINE",
"301 747 LINE"
);
},
{
closed = 1;
nodes = (
"679 839 LINE",
"684 864 LINE",
"727 870 OFFCURVE",
"757 896 OFFCURVE",
"764 929 CURVE SMOOTH",
"773 970 OFFCURVE",
"745 997 OFFCURVE",
"687 997 CURVE SMOOTH",
"665 997 OFFCURVE",
"636 992 OFFCURVE",
"620 987 CURVE",
"611 944 LINE",
"622 949 OFFCURVE",
"640 952 OFFCURVE",
"655 952 CURVE SMOOTH",
"684 952 OFFCURVE",
"696 944 OFFCURVE",
"692 923 CURVE",
"686 899 OFFCURVE",
"665 889 OFFCURVE",
"626 889 CURVE",
"616 839 LINE"
);
}
);
width = 746;
}
);
leftKerningGroup = A;
note = Acircumflexhookabove;
rightKerningGroup = A;
unicode = 1EA8;
},
{
glyphname = Acircumflextilde;
lastChange = "2015-11-30 00:36:22 +0000";
layers = (
{
layerId = "493B3A41-641C-4718-8E4F-15C1585391FA";
name = "Regular Italic";
paths = (
{
closed = 1;
nodes = (
"103 0 LINE",
"207 174 LINE",
"516 174 LINE",
"550 0 LINE",
"651 0 LINE",
"520 699 LINE",
"422 699 LINE",
"-5 0 LINE"
);
},
{
closed = 1;
nodes = (
"450 586 LINE",
"507 259 LINE",
"255 259 LINE"
);
},
{
closed = 1;
nodes = (
"390 741 LINE",
"491 831 LINE",
"554 741 LINE",
"649 741 LINE",
"543 886 LINE",
"457 886 LINE",
"288 741 LINE"
);
},
{
closed = 1;
nodes = (
"379 927 OFFCURVE",
"406 938 OFFCURVE",
"437 938 CURVE SMOOTH",
"488 938 OFFCURVE",
"525 895 OFFCURVE",
"584 895 CURVE SMOOTH",
"619 895 OFFCURVE",
"648 904 OFFCURVE",
"671 930 CURVE",
"687 1005 LINE",
"657 972 OFFCURVE",
"628 961 OFFCURVE",
"598 961 CURVE SMOOTH",
"546 961 OFFCURVE",
"506 1005 OFFCURVE",
"451 1005 CURVE SMOOTH",
"416 1005 OFFCURVE",
"386 995 OFFCURVE",
"363 969 CURVE",
"347 894 LINE"
);
}
);
width = 746;
}
);
leftKerningGroup = A;
note = Acircumflextilde;
rightKerningGroup = A;
unicode = 1EAA;
},
{
glyphname = Adieresis;
lastChange = "2015-11-30 00:36:24 +0000";
layers = (
{
layerId = "493B3A41-641C-4718-8E4F-15C1585391FA";
name = "Regular Italic";
paths = (
{
closed = 1;
nodes = (
"103 0 LINE",
"207 174 LINE",
"516 174 LINE",
"550 0 LINE",
"651 0 LINE",
"520 699 LINE",
"422 699 LINE",
"-5 0 LINE"
);
},
{
closed = 1;
nodes = (
"450 586 LINE",
"507 259 LINE",
"255 259 LINE"
);
},
{
closed = 1;
nodes = (
"398 741 OFFCURVE",
"429 767 OFFCURVE",
"436 799 CURVE SMOOTH",
"443 831 OFFCURVE",
"423 857 OFFCURVE",
"392 857 CURVE SMOOTH",
"360 857 OFFCURVE",
"328 831 OFFCURVE",
"321 799 CURVE SMOOTH",
"314 767 OFFCURVE",
"336 741 OFFCURVE",
"367 741 CURVE SMOOTH"
);
},
{
closed = 1;
nodes = (
"625 741 OFFCURVE",
"656 767 OFFCURVE",
"663 799 CURVE SMOOTH",
"670 831 OFFCURVE",
"650 857 OFFCURVE",
"619 857 CURVE SMOOTH",
"587 857 OFFCURVE",
"554 831 OFFCURVE",
"547 799 CURVE SMOOTH",
"540 767 OFFCURVE",
"562 741 OFFCURVE",
"594 741 CURVE SMOOTH"
);
}
);
width = 746;
}
);
leftKerningGroup = A;
note = Adieresis;
rightKerningGroup = A;
unicode = 00C4;
},
{
glyphname = Adotbelow;
lastChange = "2015-11-30 00:36:23 +0000";
layers = (
{
layerId = "493B3A41-641C-4718-8E4F-15C1585391FA";
name = "Regular Italic";
paths = (
{
closed = 1;
nodes = (
"103 0 LINE",
"207 174 LINE",
"516 174 LINE",
"550 0 LINE",
"651 0 LINE",
"520 699 LINE",
"422 699 LINE",
"-5 0 LINE"
);
},
{
closed = 1;
nodes = (
"319 -166 OFFCURVE",
"350 -140 OFFCURVE",
"357 -108 CURVE SMOOTH",
"363 -76 OFFCURVE",
"343 -50 OFFCURVE",
"313 -50 CURVE SMOOTH",
"281 -50 OFFCURVE",
"248 -76 OFFCURVE",
"242 -108 CURVE SMOOTH",
"235 -140 OFFCURVE",
"256 -166 OFFCURVE",
"288 -166 CURVE SMOOTH"
);
},
{
closed = 1;
nodes = (
"450 586 LINE",
"507 259 LINE",
"255 259 LINE"
);
}
);
width = 746;
}
);
leftKerningGroup = A;
note = Adotbelow;
rightKerningGroup = A;
unicode = 1EA0;
},
{
glyphname = Agrave;
lastChange = "2015-11-30 00:36:24 +0000";
layers = (
{
layerId = "493B3A41-641C-4718-8E4F-15C1585391FA";
name = "Regular Italic";
paths = (
{
closed = 1;
nodes = (
"103 0 LINE",
"207 174 LINE",
"516 174 LINE",
"550 0 LINE",
"651 0 LINE",
"520 699 LINE",
"422 699 LINE",
"-5 0 LINE"
);
},
{
closed = 1;
nodes = (
"450 586 LINE",
"507 259 LINE",
"255 259 LINE"
);
},
{
closed = 1;
nodes = (
"523 741 LINE",
"491 913 LINE",
"384 913 LINE",
"430 741 LINE"
);
}
);
width = 746;
}
);
leftKerningGroup = A;
note = Agrave;
rightKerningGroup = A;
unicode = 00C0;
},
{
glyphname = Ahookabove;
lastChange = "2015-11-30 00:36:21 +0000";
layers = (
{
layerId = "493B3A41-641C-4718-8E4F-15C1585391FA";
name = "Regular Italic";
paths = (
{
closed = 1;
nodes = (
"103 0 LINE",
"207 174 LINE",
"516 174 LINE",
"550 0 LINE",
"651 0 LINE",
"520 699 LINE",
"422 699 LINE",
"-5 0 LINE"
);
},
{
closed = 1;
nodes = (
"450 586 LINE",
"507 259 LINE",
"255 259 LINE"
);
},
{
closed = 1;
nodes = (
"525 742 LINE",
"532 776 LINE",
"594 784 OFFCURVE",
"634 822 OFFCURVE",
"644 870 CURVE SMOOTH",
"656 927 OFFCURVE",
"622 967 OFFCURVE",
"534 967 CURVE SMOOTH",
"502 967 OFFCURVE",
"465 961 OFFCURVE",
"444 954 CURVE",
"432 899 LINE",
"446 905 OFFCURVE",
"482 910 OFFCURVE",
"498 910 CURVE SMOOTH",
"544 910 OFFCURVE",
"561 897 OFFCURVE",
"554 866 CURVE SMOOTH",
"546 827 OFFCURVE",
"511 813 OFFCURVE",
"451 813 CURVE",
"436 742 LINE"
);
}
);
width = 746;
}
);
leftKerningGroup = A;
note = Ahookabove;
rightKerningGroup = A;
unicode = 1EA2;
},
{
glyphname = Amacron;
lastChange = "2015-11-30 00:36:21 +0000";
layers = (
{
layerId = "493B3A41-641C-4718-8E4F-15C1585391FA";
name = "Regular Italic";
paths = (
{
closed = 1;
nodes = (
"103 0 LINE",
"207 174 LINE",
"516 174 LINE",
"550 0 LINE",
"651 0 LINE",
"520 699 LINE",
"422 699 LINE",
"-5 0 LINE"
);
},
{
closed = 1;
nodes = (
"450 586 LINE",
"507 259 LINE",
"255 259 LINE"
);
},
{
closed = 1;
nodes = (
"638 752 LINE",
"653 821 LINE",
"342 821 LINE",
"327 752 LINE"
);
}
);
width = 746;
}
);
leftKerningGroup = A;
note = Amacron;
rightKerningGroup = A;
unicode = 0100;
},
{
glyphname = Aogonek;
lastChange = "2015-11-30 00:36:22 +0000";
layers = (
{
layerId = "493B3A41-641C-4718-8E4F-15C1585391FA";
name = "Regular Italic";
paths = (
{
closed = 1;
nodes = (
"571 -212 OFFCURVE",
"601 -207 OFFCURVE",
"621 -200 CURVE",
"634 -139 LINE",
"619 -145 OFFCURVE",
"602 -149 OFFCURVE",
"584 -149 CURVE SMOOTH",
"557 -149 OFFCURVE",
"544 -135 OFFCURVE",
"550 -106 CURVE SMOOTH",
"559 -65 OFFCURVE",
"592 -33 OFFCURVE",
"651 0 CURVE",
"520 699 LINE",
"422 699 LINE",
"-5 0 LINE",
"103 0 LINE",
"207 174 LINE",
"516 174 LINE",
"550 0 LINE",
"510 -27 OFFCURVE",
"469 -70 OFFCURVE",
"458 -122 CURVE SMOOTH",
"445 -183 OFFCURVE",
"484 -212 OFFCURVE",
"542 -212 CURVE SMOOTH"
);
},
{
closed = 1;
nodes = (
"450 586 LINE",
"507 259 LINE",
"255 259 LINE"
);
}
);
width = 746;
}
);
leftKerningGroup = A;
note = Aogonek;
rightKerningGroup = A;
unicode = 0104;
},
{
glyphname = Aring;
lastChange = "2015-11-30 00:36:22 +0000";
layers = (
{
layerId = "493B3A41-641C-4718-8E4F-15C1585391FA";
name = "Regular Italic";
paths = (
{
closed = 1;
nodes = (
"103 0 LINE",
"207 174 LINE",
"516 174 LINE",
"550 0 LINE",
"651 0 LINE",
"525 669 LINE",
"563 689 OFFCURVE",
"591 726 OFFCURVE",
"601 769 CURVE SMOOTH",
"615 833 OFFCURVE",
"574 885 OFFCURVE",
"510 885 CURVE SMOOTH",
"439 885 OFFCURVE",
"383 833 OFFCURVE",
"369 769 CURVE SMOOTH",
"359 726 OFFCURVE",
"374 689 OFFCURVE",
"403 669 CURVE",
"-5 0 LINE"
);
},
{
closed = 1;
nodes = (
"450 586 LINE",
"507 259 LINE",
"255 259 LINE"
);
},
{
closed = 1;
nodes = (
"436 714 OFFCURVE",
"425 739 OFFCURVE",
"431 769 CURVE SMOOTH",
"437 798 OFFCURVE",
"466 823 OFFCURVE",
"496 823 CURVE SMOOTH",
"532 823 OFFCURVE",
"545 798 OFFCURVE",
"539 769 CURVE SMOOTH",
"533 739 OFFCURVE",
"502 714 OFFCURVE",
"473 714 CURVE SMOOTH"
);
}
);
width = 746;
}
);
leftKerningGroup = A;
note = Aring;
rightKerningGroup = A;
unicode = 00C5;
},
{
glyphname = Aringacute;
lastChange = "2015-11-30 00:36:23 +0000";
layers = (
{
layerId = "493B3A41-641C-4718-8E4F-15C1585391FA";
name = "Regular Italic";
paths = (
{
closed = 1;
nodes = (
"103 0 LINE",
"207 174 LINE",
"516 174 LINE",
"550 0 LINE",
"651 0 LINE",
"525 669 LINE",
"563 689 OFFCURVE",
"591 726 OFFCURVE",
"601 769 CURVE SMOOTH",
"615 833 OFFCURVE",
"574 885 OFFCURVE",
"510 885 CURVE SMOOTH",
"439 885 OFFCURVE",
"383 833 OFFCURVE",
"369 769 CURVE SMOOTH",
"359 726 OFFCURVE",
"374 689 OFFCURVE",
"403 669 CURVE",
"-5 0 LINE"
);
},
{
closed = 1;
nodes = (
"450 586 LINE",
"507 259 LINE",
"255 259 LINE"
);
},
{
closed = 1;
nodes = (
"436 714 OFFCURVE",
"425 739 OFFCURVE",
"431 769 CURVE SMOOTH",
"437 798 OFFCURVE",
"466 823 OFFCURVE",
"496 823 CURVE SMOOTH",
"532 823 OFFCURVE",
"545 798 OFFCURVE",
"539 769 CURVE SMOOTH",
"533 739 OFFCURVE",
"502 714 OFFCURVE",
"473 714 CURVE SMOOTH"
);
},
{
closed = 1;
nodes = (
"586 912 LINE",
"706 1050 LINE",
"599 1050 LINE",
"494 912 LINE"
);
}
);
width = 746;
}
);
leftKerningGroup = A;
note = Aringacute;
rightKerningGroup = A;
unicode = 01FA;
},
{
glyphname = Atilde;
lastChange = "2015-11-30 00:36:25 +0000";
layers = (
{
layerId = "493B3A41-641C-4718-8E4F-15C1585391FA";
name = "Regular Italic";
paths = (
{
closed = 1;
nodes = (
"103 0 LINE",
"207 174 LINE",
"516 174 LINE",
"550 0 LINE",
"651 0 LINE",
"520 699 LINE",
"422 699 LINE",
"-5 0 LINE"
);
},
{
closed = 1;
nodes = (
"450 586 LINE",
"507 259 LINE",
"255 259 LINE"
);
},
{
closed = 1;
nodes = (
"329 782 OFFCURVE",
"364 794 OFFCURVE",
"400 794 CURVE SMOOTH",
"464 794 OFFCURVE",
"501 744 OFFCURVE",
"574 744 CURVE SMOOTH",
"615 744 OFFCURVE",
"652 755 OFFCURVE",
"679 786 CURVE",
"697 872 LINE",
"662 833 OFFCURVE",
"628 821 OFFCURVE",
"591 821 CURVE SMOOTH",
"526 821 OFFCURVE",
"484 871 OFFCURVE",
"416 871 CURVE SMOOTH",
"376 871 OFFCURVE",
"338 859 OFFCURVE",
"309 828 CURVE",
"291 742 LINE"
);
}
);
width = 746;
}
);
leftKerningGroup = A;
note = Atilde;
rightKerningGroup = A;
unicode = 00C3;
},
{
glyphname = AE;
lastChange = "2015-11-30 00:36:22 +0000";
layers = (
{
layerId = "493B3A41-641C-4718-8E4F-15C1585391FA";
name = "Regular Italic";
paths = (
{
closed = 1;
nodes = (
"103 0 LINE",
"228 179 LINE",
"443 179 LINE",
"405 0 LINE",
"827 0 LINE",
"845 85 LINE",
"525 85 LINE",
"572 307 LINE",
"801 307 LINE",
"819 392 LINE",
"590 392 LINE",
"637 613 LINE",
"957 613 LINE",
"975 699 LINE",
"486 699 LINE",
"-5 0 LINE"
);
},
{
closed = 1;
nodes = (
"526 607 LINE",
"534 607 LINE",
"460 259 LINE",
"286 259 LINE"
);
}
);
width = 922;
}
);
leftKerningGroup = A;
note = AE;
rightKerningGroup = E;
unicode = 00C6;
},
{
glyphname = AEacute;
lastChange = "2015-11-30 00:36:23 +0000";
layers = (
{
layerId = "493B3A41-641C-4718-8E4F-15C1585391FA";
name = "Regular Italic";
paths = (
{
closed = 1;
nodes = (
"103 0 LINE",
"228 179 LINE",
"443 179 LINE",
"405 0 LINE",
"827 0 LINE",
"845 85 LINE",
"525 85 LINE",
"572 307 LINE",
"801 307 LINE",
"819 392 LINE",
"590 392 LINE",
"637 613 LINE",
"957 613 LINE",
"975 699 LINE",
"486 699 LINE",
"-5 0 LINE"
);
},
{
closed = 1;
nodes = (
"526 607 LINE",
"534 607 LINE",
"460 259 LINE",
"286 259 LINE"
);
},
{
closed = 1;
nodes = (
"710 741 LINE",
"830 913 LINE",
"723 913 LINE",
"618 741 LINE"
);
}
);
width = 922;
}
);
leftKerningGroup = A;
note = AEacute;
rightKerningGroup = E;
unicode = 01FC;
},
{
glyphname = B;
lastChange = "2015-11-30 00:36:24 +0000";
layers = (
{
layerId = "493B3A41-641C-4718-8E4F-15C1585391FA";
name = "Regular Italic";
paths = (
{
closed = 1;
nodes = (
"353 0 LINE SMOOTH",
"480 0 OFFCURVE",
"569 73 OFFCURVE",
"596 198 CURVE SMOOTH",
"613 278 OFFCURVE",
"585 340 OFFCURVE",
"518 361 CURVE",
"576 386 OFFCURVE",
"623 440 OFFCURVE",
"639 511 CURVE SMOOTH",
"666 629 OFFCURVE",
"599 699 OFFCURVE",
"484 699 CURVE SMOOTH",
"163 699 LINE",
"15 0 LINE"
);
},
{
closed = 1;
nodes = (
"183 315 LINE",
"387 315 LINE SMOOTH",
"478 315 OFFCURVE",
"511 284 OFFCURVE",
"493 198 CURVE SMOOTH",
"474 110 OFFCURVE",
"432 83 OFFCURVE",
"347 83 CURVE SMOOTH",
"134 83 LINE"
);
},
{
closed = 1;
nodes = (
"247 616 LINE",
"446 616 LINE SMOOTH",
"519 616 OFFCURVE",
"553 590 OFFCURVE",
"535 506 CURVE SMOOTH",
"520 433 OFFCURVE",
"470 399 OFFCURVE",
"407 399 CURVE SMOOTH",
"201 399 LINE"
);
}
);
width = 649;
}
);
note = B;
unicode = 0042;
},
{
glyphname = C;
lastChange = "2015-11-30 00:36:21 +0000";
layers = (
{
layerId = "493B3A41-641C-4718-8E4F-15C1585391FA";
name = "Regular Italic";
paths = (
{
closed = 1;
nodes = (
"461 -15 OFFCURVE",
"551 6 OFFCURVE",
"627 60 CURVE",
"648 159 LINE",
"568 100 OFFCURVE",
"486 77 OFFCURVE",
"390 77 CURVE SMOOTH",
"217 77 OFFCURVE",
"136 181 OFFCURVE",
"172 349 CURVE SMOOTH",
"207 516 OFFCURVE",
"335 620 OFFCURVE",
"505 620 CURVE SMOOTH",
"596 620 OFFCURVE",
"671 597 OFFCURVE",
"721 543 CURVE",
"742 641 LINE",
"687 690 OFFCURVE",
"613 714 OFFCURVE",
"516 714 CURVE SMOOTH",
"288 714 OFFCURVE",
"116 571 OFFCURVE",
"69 349 CURVE SMOOTH",
"21 127 OFFCURVE",
"165 -15 OFFCURVE",
"361 -15 CURVE SMOOTH"
);
}
);
width = 710;
}
);
leftKerningGroup = C;
note = C;
rightKerningGroup = C;
unicode = 0043;
},
{
glyphname = Cacute;
lastChange = "2015-11-30 00:36:24 +0000";
layers = (
{
layerId = "493B3A41-641C-4718-8E4F-15C1585391FA";
name = "Regular Italic";
paths = (
{
closed = 1;
nodes = (
"461 -15 OFFCURVE",
"551 6 OFFCURVE",
"627 60 CURVE",
"648 159 LINE",
"568 100 OFFCURVE",
"486 77 OFFCURVE",
"390 77 CURVE SMOOTH",
"217 77 OFFCURVE",
"136 181 OFFCURVE",
"172 349 CURVE SMOOTH",
"207 516 OFFCURVE",
"335 620 OFFCURVE",
"505 620 CURVE SMOOTH",
"596 620 OFFCURVE",
"671 597 OFFCURVE",
"721 543 CURVE",
"742 641 LINE",
"687 690 OFFCURVE",
"613 714 OFFCURVE",
"516 714 CURVE SMOOTH",
"288 714 OFFCURVE",
"116 571 OFFCURVE",
"69 349 CURVE SMOOTH",
"21 127 OFFCURVE",
"165 -15 OFFCURVE",
"361 -15 CURVE SMOOTH"
);
},
{
closed = 1;
nodes = (
"566 741 LINE",
"686 913 LINE",
"579 913 LINE",
"474 741 LINE"
);
}
);
width = 710;
}
);
leftKerningGroup = C;
note = Cacute;
rightKerningGroup = C;
unicode = 0106;
},
{
glyphname = Ccaron;
lastChange = "2015-11-30 00:36:22 +0000";
layers = (
{
layerId = "493B3A41-641C-4718-8E4F-15C1585391FA";
name = "Regular Italic";
paths = (
{
closed = 1;
nodes = (
"461 -15 OFFCURVE",
"551 6 OFFCURVE",
"627 60 CURVE",
"648 159 LINE",
"568 100 OFFCURVE",
"486 77 OFFCURVE",
"390 77 CURVE SMOOTH",
"217 77 OFFCURVE",
"136 181 OFFCURVE",
"172 349 CURVE SMOOTH",
"207 516 OFFCURVE",
"335 620 OFFCURVE",
"505 620 CURVE SMOOTH",
"596 620 OFFCURVE",
"671 597 OFFCURVE",
"721 543 CURVE",
"742 641 LINE",
"687 690 OFFCURVE",
"613 714 OFFCURVE",
"516 714 CURVE SMOOTH",
"288 714 OFFCURVE",
"116 571 OFFCURVE",
"69 349 CURVE SMOOTH",
"21 127 OFFCURVE",
"165 -15 OFFCURVE",
"361 -15 CURVE SMOOTH"
);
},
{
closed = 1;
nodes = (
"562 742 LINE",
"740 908 LINE",
"635 908 LINE",
"528 801 LINE",
"467 908 LINE",
"368 908 LINE",
"473 742 LINE"
);
}
);
width = 710;
}
);
leftKerningGroup = C;
note = Ccaron;
rightKerningGroup = C;
unicode = 010C;
},
{
glyphname = Ccedilla;
lastChange = "2015-11-30 00:36:22 +0000";
layers = (
{
layerId = "493B3A41-641C-4718-8E4F-15C1585391FA";
name = "Regular Italic";
paths = (
{
closed = 1;
nodes = (
"389 -248 OFFCURVE",
"448 -210 OFFCURVE",
"460 -151 CURVE SMOOTH",
"471 -99 OFFCURVE",
"449 -64 OFFCURVE",
"390 -56 CURVE",
"416 -13 LINE",
"494 -6 OFFCURVE",
"565 16 OFFCURVE",
"627 60 CURVE",
"648 159 LINE",
"568 100 OFFCURVE",
"486 77 OFFCURVE",
"390 77 CURVE SMOOTH",
"217 77 OFFCURVE",
"136 181 OFFCURVE",
"172 349 CURVE SMOOTH",
"207 516 OFFCURVE",
"335 620 OFFCURVE",
"505 620 CURVE SMOOTH",
"596 620 OFFCURVE",
"671 597 OFFCURVE",
"721 543 CURVE",
"742 641 LINE",
"687 690 OFFCURVE",
"613 714 OFFCURVE",
"516 714 CURVE SMOOTH",
"288 714 OFFCURVE",
"116 571 OFFCURVE",
"69 349 CURVE SMOOTH",
"24 141 OFFCURVE",
"147 3 OFFCURVE",
"324 -13 CURVE",
"280 -89 LINE",
"355 -89 OFFCURVE",
"376 -111 OFFCURVE",
"369 -144 CURVE SMOOTH",
"362 -176 OFFCURVE",
"336 -190 OFFCURVE",
"295 -190 CURVE SMOOTH",
"276 -190 OFFCURVE",
"252 -185 OFFCURVE",
"240 -179 CURVE",
"227 -237 LINE",
"243 -244 OFFCURVE",
"275 -248 OFFCURVE",
"307 -248 CURVE SMOOTH"
);
}
);
width = 710;
}
);
leftKerningGroup = C;
note = Ccedilla;
rightKerningGroup = C;
unicode = 00C7;
},
{
glyphname = Ccircumflex;
lastChange = "2015-11-30 00:36:24 +0000";
layers = (
{
layerId = "493B3A41-641C-4718-8E4F-15C1585391FA";
name = "Regular Italic";
paths = (
{
closed = 1;
nodes = (
"461 -15 OFFCURVE",
"551 6 OFFCURVE",
"627 60 CURVE",
"648 159 LINE",
"568 100 OFFCURVE",
"486 77 OFFCURVE",
"390 77 CURVE SMOOTH",
"217 77 OFFCURVE",
"136 181 OFFCURVE",
"172 349 CURVE SMOOTH",
"207 516 OFFCURVE",
"335 620 OFFCURVE",
"505 620 CURVE SMOOTH",
"596 620 OFFCURVE",
"671 597 OFFCURVE",
"721 543 CURVE",
"742 641 LINE",
"687 690 OFFCURVE",
"613 714 OFFCURVE",
"516 714 CURVE SMOOTH",
"288 714 OFFCURVE",
"116 571 OFFCURVE",
"69 349 CURVE SMOOTH",
"21 127 OFFCURVE",
"165 -15 OFFCURVE",
"361 -15 CURVE SMOOTH"
);
},
{
closed = 1;
nodes = (
"432 741 LINE",
"539 848 LINE",
"600 741 LINE",
"699 741 LINE",
"593 907 LINE",
"504 907 LINE",
"327 741 LINE"
);
}
);
width = 710;
}
);
leftKerningGroup = C;
note = Ccircumflex;
rightKerningGroup = C;
unicode = 0108;
},
{
glyphname = Cdotaccent;
lastChange = "2015-11-30 00:36:23 +0000";
layers = (
{
layerId = "493B3A41-641C-4718-8E4F-15C1585391FA";
name = "Regular Italic";
paths = (
{
closed = 1;
nodes = (
"461 -15 OFFCURVE",
"551 6 OFFCURVE",
"627 60 CURVE",
"648 159 LINE",
"568 100 OFFCURVE",
"486 77 OFFCURVE",
"390 77 CURVE SMOOTH",
"217 77 OFFCURVE",
"136 181 OFFCURVE",
"172 349 CURVE SMOOTH",
"207 516 OFFCURVE",
"335 620 OFFCURVE",
"505 620 CURVE SMOOTH",
"596 620 OFFCURVE",
"671 597 OFFCURVE",
"721 543 CURVE",
"742 641 LINE",
"687 690 OFFCURVE",
"613 714 OFFCURVE",
"516 714 CURVE SMOOTH",
"288 714 OFFCURVE",
"116 571 OFFCURVE",
"69 349 CURVE SMOOTH",
"21 127 OFFCURVE",
"165 -15 OFFCURVE",
"361 -15 CURVE SMOOTH"
);
},
{
closed = 1;
nodes = (
"545 741 OFFCURVE",
"576 767 OFFCURVE",
"583 799 CURVE SMOOTH",
"590 831 OFFCURVE",
"570 857 OFFCURVE",
"539 857 CURVE SMOOTH",
"507 857 OFFCURVE",
"474 831 OFFCURVE",
"467 799 CURVE SMOOTH",
"460 767 OFFCURVE",
"482 741 OFFCURVE",
"514 741 CURVE SMOOTH"
);
}
);
width = 710;
}
);
leftKerningGroup = C;
note = Cdotaccent;
rightKerningGroup = C;
unicode = 010A;
},
{
glyphname = D;
lastChange = "2015-11-30 00:36:22 +0000";
layers = (
{
layerId = "493B3A41-641C-4718-8E4F-15C1585391FA";
name = "Regular Italic";
paths = (
{
closed = 1;
nodes = (
"226 0 LINE SMOOTH",
"474 0 OFFCURVE",
"639 115 OFFCURVE",
"683 353 CURVE SMOOTH",
"721 557 OFFCURVE",
"616 699 OFFCURVE",
"388 699 CURVE SMOOTH",
"163 699 LINE",
"15 0 LINE"
);
},
{
closed = 1;
nodes = (
"247 613 LINE",
"371 613 LINE SMOOTH",
"561 613 OFFCURVE",
"613 510 OFFCURVE",
"580 353 CURVE SMOOTH",
"543 183 OFFCURVE",
"433 85 OFFCURVE",
"243 85 CURVE SMOOTH",
"135 85 LINE"
);
}
);
width = 703;
}
);
note = D;
rightKerningGroup = D;
unicode = 0044;
},
{
glyphname = Eth;
lastChange = "2015-11-30 00:36:22 +0000";
layers = (
{
layerId = "493B3A41-641C-4718-8E4F-15C1585391FA";
name = "Regular Italic";
paths = (
{
closed = 1;
nodes = (
"250 0 LINE SMOOTH",
"498 0 OFFCURVE",
"663 115 OFFCURVE",
"707 353 CURVE SMOOTH",
"745 557 OFFCURVE",
"640 699 OFFCURVE",
"412 699 CURVE SMOOTH",
"187 699 LINE",
"121 388 LINE",
"57 388 LINE",
"40 310 LINE",
"104 310 LINE",
"39 0 LINE"
);
},
{
closed = 1;
nodes = (
"206 310 LINE",
"391 310 LINE",
"408 388 LINE",
"223 388 LINE",
"271 613 LINE",
"395 613 LINE SMOOTH",
"585 613 OFFCURVE",
"638 510 OFFCURVE",
"604 353 CURVE SMOOTH",
"568 183 OFFCURVE",
"457 85 OFFCURVE",
"267 85 CURVE SMOOTH",
"159 85 LINE"
);
}
);
width = 727;
}
);
note = Eth;
rightKerningGroup = D;
unicode = 00D0;
},
{
glyphname = Dcaron;
lastChange = "2015-11-30 00:36:22 +0000";
layers = (
{
layerId = "493B3A41-641C-4718-8E4F-15C1585391FA";
name = "Regular Italic";
paths = (
{
closed = 1;
nodes = (
"226 0 LINE SMOOTH",
"474 0 OFFCURVE",
"639 115 OFFCURVE",
"683 353 CURVE SMOOTH",
"721 557 OFFCURVE",
"616 699 OFFCURVE",
"388 699 CURVE SMOOTH",
"163 699 LINE",
"15 0 LINE"
);
},
{
closed = 1;
nodes = (
"247 613 LINE",
"371 613 LINE SMOOTH",
"561 613 OFFCURVE",
"613 510 OFFCURVE",
"580 353 CURVE SMOOTH",
"543 183 OFFCURVE",
"433 85 OFFCURVE",
"243 85 CURVE SMOOTH",
"135 85 LINE"
);
},
{
closed = 1;
nodes = (
"469 742 LINE",
"647 908 LINE",
"542 908 LINE",
"435 801 LINE",
"374 908 LINE",
"275 908 LINE",
"380 742 LINE"
);
}
);
width = 703;
}
);
note = Dcaron;
rightKerningGroup = D;
unicode = 010E;
},
{
glyphname = Dcroat;
lastChange = "2015-11-30 00:36:24 +0000";
layers = (
{
layerId = "493B3A41-641C-4718-8E4F-15C1585391FA";
name = "Regular Italic";
paths = (
{
closed = 1;
nodes = (
"250 0 LINE SMOOTH",
"498 0 OFFCURVE",
"663 115 OFFCURVE",
"707 353 CURVE SMOOTH",
"745 557 OFFCURVE",
"640 699 OFFCURVE",
"412 699 CURVE SMOOTH",
"187 699 LINE",
"121 388 LINE",
"57 388 LINE",
"40 310 LINE",
"104 310 LINE",
"39 0 LINE"
);
},
{
closed = 1;
nodes = (
"206 310 LINE",
"391 310 LINE",
"408 388 LINE",
"223 388 LINE",
"271 613 LINE",
"395 613 LINE SMOOTH",
"585 613 OFFCURVE",
"638 510 OFFCURVE",
"604 353 CURVE SMOOTH",
"568 183 OFFCURVE",
"457 85 OFFCURVE",
"267 85 CURVE SMOOTH",
"159 85 LINE"
);
}
);
width = 727;
}
);
note = Dcroat;
rightKerningGroup = D;
unicode = 0110;
},
{
glyphname = Ddotbelow;
lastChange = "2015-11-30 00:36:22 +0000";
layers = (
{
layerId = "493B3A41-641C-4718-8E4F-15C1585391FA";
name = "Regular Italic";
paths = (
{
closed = 1;
nodes = (
"226 0 LINE SMOOTH",
"474 0 OFFCURVE",
"639 115 OFFCURVE",
"683 353 CURVE SMOOTH",
"721 557 OFFCURVE",
"616 699 OFFCURVE",
"388 699 CURVE SMOOTH",
"163 699 LINE",
"15 0 LINE"
);
},
{
closed = 1;
nodes = (
"222 -166 OFFCURVE",
"253 -140 OFFCURVE",
"260 -108 CURVE SMOOTH",
"266 -76 OFFCURVE",
"246 -50 OFFCURVE",
"216 -50 CURVE SMOOTH",
"184 -50 OFFCURVE",
"151 -76 OFFCURVE",
"145 -108 CURVE SMOOTH",
"138 -140 OFFCURVE",
"159 -166 OFFCURVE",
"191 -166 CURVE SMOOTH"
);
},
{
closed = 1;
nodes = (
"247 613 LINE",
"371 613 LINE SMOOTH",
"561 613 OFFCURVE",
"613 510 OFFCURVE",
"580 353 CURVE SMOOTH",
"543 183 OFFCURVE",
"433 85 OFFCURVE",
"243 85 CURVE SMOOTH",
"135 85 LINE"
);
}
);
width = 703;
}
);
note = Ddotbelow;
rightKerningGroup = D;
unicode = 1E0C;
},
{
glyphname = Dlinebelow;
lastChange = "2015-11-30 00:36:24 +0000";
layers = (
{
layerId = "493B3A41-641C-4718-8E4F-15C1585391FA";
name = "Regular Italic";
paths = (
{
closed = 1;
nodes = (
"226 0 LINE SMOOTH",
"474 0 OFFCURVE",
"639 115 OFFCURVE",
"683 353 CURVE SMOOTH",
"721 557 OFFCURVE",
"616 699 OFFCURVE",
"388 699 CURVE SMOOTH",
"163 699 LINE",
"15 0 LINE"
);
},
{
closed = 1;
nodes = (
"360 -141 LINE",
"374 -71 LINE",
"61 -71 LINE",
"47 -141 LINE"
);
},
{
closed = 1;
nodes = (
"247 613 LINE",
"371 613 LINE SMOOTH",
"561 613 OFFCURVE",
"613 510 OFFCURVE",
"580 353 CURVE SMOOTH",
"543 183 OFFCURVE",
"433 85 OFFCURVE",
"243 85 CURVE SMOOTH",
"135 85 LINE"
);
}
);
width = 703;
}
);
note = Dlinebelow;
rightKerningGroup = D;
unicode = 1E0E;
},
{
glyphname = E;
lastChange = "2015-11-30 00:36:22 +0000";
layers = (
{
layerId = "493B3A41-641C-4718-8E4F-15C1585391FA";
name = "Regular Italic";
paths = (
{
closed = 1;
nodes = (
"476 0 LINE",
"494 85 LINE",
"135 85 LINE",
"182 307 LINE",
"450 307 LINE",
"468 392 LINE",
"200 392 LINE",
"247 613 LINE",
"606 613 LINE",
"624 699 LINE",
"163 699 LINE",
"15 0 LINE"
);
}
);
width = 566;
}
);
leftKerningGroup = E;
note = E;
rightKerningGroup = E;
unicode = 0045;
},
{
glyphname = Eacute;
lastChange = "2015-11-30 00:36:21 +0000";
layers = (
{
layerId = "493B3A41-641C-4718-8E4F-15C1585391FA";
name = "Regular Italic";
paths = (
{
closed = 1;
nodes = (
"476 0 LINE",
"494 85 LINE",
"135 85 LINE",
"182 307 LINE",
"450 307 LINE",
"468 392 LINE",
"200 392 LINE",
"247 613 LINE",
"606 613 LINE",
"624 699 LINE",
"163 699 LINE",
"15 0 LINE"
);
},
{
closed = 1;
nodes = (
"432 741 LINE",
"552 913 LINE",
"445 913 LINE",
"340 741 LINE"
);
}
);
width = 566;
}
);
leftKerningGroup = E;
note = Eacute;
rightKerningGroup = E;
unicode = 00C9;
},
{
glyphname = Ebreve;
lastChange = "2015-11-30 00:36:23 +0000";
layers = (
{
layerId = "493B3A41-641C-4718-8E4F-15C1585391FA";
name = "Regular Italic";
paths = (
{
closed = 1;
nodes = (
"476 0 LINE",
"494 85 LINE",
"135 85 LINE",
"182 307 LINE",
"450 307 LINE",
"468 392 LINE",
"200 392 LINE",
"247 613 LINE",
"606 613 LINE",
"624 699 LINE",
"163 699 LINE",
"15 0 LINE"
);
},
{
closed = 1;
nodes = (
"502 742 OFFCURVE",
"572 800 OFFCURVE",
"589 882 CURVE",
"509 882 LINE",
"499 837 OFFCURVE",
"467 811 OFFCURVE",
"421 811 CURVE SMOOTH",
"375 811 OFFCURVE",
"353 837 OFFCURVE",
"363 882 CURVE",
"288 882 LINE",
"272 800 OFFCURVE",
"315 742 OFFCURVE",
"409 742 CURVE SMOOTH"
);
}
);
width = 571;
}
);
leftKerningGroup = E;
note = Ebreve;
rightKerningGroup = E;
unicode = 0114;
},
{
glyphname = Ecaron;
lastChange = "2015-11-30 00:36:24 +0000";
layers = (
{
layerId = "493B3A41-641C-4718-8E4F-15C1585391FA";
name = "Regular Italic";
paths = (
{
closed = 1;
nodes = (
"476 0 LINE",
"494 85 LINE",
"135 85 LINE",
"182 307 LINE",
"450 307 LINE",
"468 392 LINE",
"200 392 LINE",
"247 613 LINE",
"606 613 LINE",
"624 699 LINE",
"163 699 LINE",
"15 0 LINE"
);
},
{
closed = 1;
nodes = (
"454 742 LINE",
"632 908 LINE",
"527 908 LINE",
"420 801 LINE",
"359 908 LINE",
"260 908 LINE",
"365 742 LINE"
);
}
);
width = 571;
}
);
leftKerningGroup = E;
note = Ecaron;
rightKerningGroup = E;
unicode = 011A;
},
{
glyphname = Ecircumflex;
lastChange = "2015-11-30 00:36:24 +0000";
layers = (
{
layerId = "493B3A41-641C-4718-8E4F-15C1585391FA";
name = "Regular Italic";
paths = (
{
closed = 1;
nodes = (
"476 0 LINE",
"494 85 LINE",
"135 85 LINE",
"182 307 LINE",
"450 307 LINE",
"468 392 LINE",
"200 392 LINE",
"247 613 LINE",
"606 613 LINE",
"624 699 LINE",
"163 699 LINE",
"15 0 LINE"
);
},
{
closed = 1;
nodes = (
"307 747 LINE",
"414 854 LINE",
"475 747 LINE",
"574 747 LINE",
"468 913 LINE",
"379 913 LINE",
"202 747 LINE"
);
}
);
width = 571;
}
);
leftKerningGroup = E;
note = Ecircumflex;
rightKerningGroup = E;
unicode = 00CA;
},
{
glyphname = Ecircumflexacute;
lastChange = "2015-11-30 00:36:24 +0000";
layers = (
{
layerId = "493B3A41-641C-4718-8E4F-15C1585391FA";
name = "Regular Italic";
paths = (
{
closed = 1;
nodes = (
"476 0 LINE",
"494 85 LINE",
"135 85 LINE",
"182 307 LINE",
"450 307 LINE",
"468 392 LINE",
"200 392 LINE",
"247 613 LINE",
"606 613 LINE",
"624 699 LINE",
"163 699 LINE",
"15 0 LINE"
);
},
{
closed = 1;
nodes = (
"303 741 LINE",
"404 831 LINE",
"467 741 LINE",
"562 741 LINE",
"456 886 LINE",
"370 886 LINE",
"201 741 LINE"
);
},
{
closed = 1;
nodes = (
"592 842 LINE",
"697 966 LINE",
"606 966 LINE",
"515 842 LINE"
);
}
);
width = 568;
}
);
leftKerningGroup = E;
note = Ecircumflexacute;
rightKerningGroup = E;
unicode = 1EBE;
},
{
glyphname = Ecircumflexdotbelow;
lastChange = "2015-11-30 00:36:23 +0000";
layers = (
{
layerId = "493B3A41-641C-4718-8E4F-15C1585391FA";
name = "Regular Italic";
paths = (
{
closed = 1;
nodes = (
"476 0 LINE",
"494 85 LINE",
"135 85 LINE",
"182 307 LINE",
"450 307 LINE",
"468 392 LINE",
"200 392 LINE",
"247 613 LINE",
"606 613 LINE",
"624 699 LINE",
"163 699 LINE",
"15 0 LINE"
);
},
{
closed = 1;
nodes = (
"230 -166 OFFCURVE",
"261 -140 OFFCURVE",
"268 -108 CURVE SMOOTH",
"274 -76 OFFCURVE",
"254 -50 OFFCURVE",
"224 -50 CURVE SMOOTH",
"192 -50 OFFCURVE",
"159 -76 OFFCURVE",
"153 -108 CURVE SMOOTH",
"146 -140 OFFCURVE",
"167 -166 OFFCURVE",
"199 -166 CURVE SMOOTH"
);
},
{
closed = 1;
nodes = (
"312 752 LINE",
"419 859 LINE",
"480 752 LINE",
"579 752 LINE",
"473 918 LINE",
"384 918 LINE",
"207 752 LINE"
);
}
);
width = 571;
}
);
leftKerningGroup = E;
note = Ecircumflexdotbelow;
rightKerningGroup = E;
unicode = 1EC6;
},
{
glyphname = Ecircumflexgrave;
lastChange = "2015-11-30 00:36:23 +0000";
layers = (
{
layerId = "493B3A41-641C-4718-8E4F-15C1585391FA";
name = "Regular Italic";
paths = (
{
closed = 1;
nodes = (
"491 0 LINE",
"509 85 LINE",
"150 85 LINE",
"197 307 LINE",
"465 307 LINE",
"483 392 LINE",
"215 392 LINE",
"262 613 LINE",
"621 613 LINE",
"639 699 LINE",
"178 699 LINE",
"30 0 LINE"
);
},
{
closed = 1;
nodes = (
"316 842 LINE",
"276 966 LINE",
"185 966 LINE",
"238 842 LINE"
);
},
{
closed = 1;
nodes = (
"326 741 LINE",
"427 831 LINE",
"490 741 LINE",
"585 741 LINE",
"479 886 LINE",
"393 886 LINE",
"224 741 LINE"
);
}
);
width = 581;
}
);
leftKerningGroup = E;
note = Ecircumflexgrave;
rightKerningGroup = E;
unicode = 1EC0;
},
{
glyphname = Ecircumflexhookabove;
lastChange = "2015-11-30 00:36:21 +0000";
layers = (
{
layerId = "493B3A41-641C-4718-8E4F-15C1585391FA";
name = "Regular Italic";
paths = (
{
closed = 1;
nodes = (
"476 0 LINE",
"494 85 LINE",
"135 85 LINE",
"182 307 LINE",
"450 307 LINE",
"468 392 LINE",
"200 392 LINE",
"247 613 LINE",
"606 613 LINE",
"624 699 LINE",
"163 699 LINE",
"15 0 LINE"
);
},
{
closed = 1;
nodes = (
"333 741 LINE",
"434 831 LINE",
"497 741 LINE",
"592 741 LINE",
"486 886 LINE",
"400 886 LINE",
"231 741 LINE"
);
},
{
closed = 1;
nodes = (
"609 833 LINE",
"614 858 LINE",
"657 864 OFFCURVE",
"687 890 OFFCURVE",
"694 923 CURVE SMOOTH",
"703 964 OFFCURVE",
"675 991 OFFCURVE",
"617 991 CURVE SMOOTH",
"595 991 OFFCURVE",
"566 986 OFFCURVE",
"550 981 CURVE",
"541 938 LINE",
"552 943 OFFCURVE",
"570 946 OFFCURVE",
"585 946 CURVE SMOOTH",
"614 946 OFFCURVE",
"626 938 OFFCURVE",
"622 917 CURVE",
"616 893 OFFCURVE",
"595 883 OFFCURVE",
"556 883 CURVE",
"546 833 LINE"
);
}
);
width = 574;
}
);
leftKerningGroup = E;
note = Ecircumflexhookabove;
rightKerningGroup = E;
unicode = 1EC2;
},
{
glyphname = Ecircumflextilde;
lastChange = "2015-11-30 00:36:22 +0000";
layers = (
{
layerId = "493B3A41-641C-4718-8E4F-15C1585391FA";
name = "Regular Italic";
paths = (
{
closed = 1;
nodes = (
"476 0 LINE",
"494 85 LINE",
"135 85 LINE",
"182 307 LINE",
"450 307 LINE",
"468 392 LINE",
"200 392 LINE",
"247 613 LINE",
"606 613 LINE",
"624 699 LINE",
"163 699 LINE",
"15 0 LINE"
);
},
{
closed = 1;
nodes = (
"335 741 LINE",
"436 831 LINE",
"499 741 LINE",
"594 741 LINE",
"488 886 LINE",
"402 886 LINE",
"233 741 LINE"
);
},
{
closed = 1;
nodes = (
"324 927 OFFCURVE",
"351 938 OFFCURVE",
"382 938 CURVE SMOOTH",
"433 938 OFFCURVE",
"470 895 OFFCURVE",
"529 895 CURVE SMOOTH",
"564 895 OFFCURVE",
"593 904 OFFCURVE",
"616 930 CURVE",
"632 1005 LINE",
"602 972 OFFCURVE",
"573 961 OFFCURVE",
"543 961 CURVE SMOOTH",
"491 961 OFFCURVE",
"451 1005 OFFCURVE",
"396 1005 CURVE SMOOTH",
"361 1005 OFFCURVE",
"331 995 OFFCURVE",
"308 969 CURVE",
"292 894 LINE"
);
}
);
width = 571;
}
);
leftKerningGroup = E;
note = Ecircumflextilde;
rightKerningGroup = E;
unicode = 1EC4;
},
{
glyphname = Edieresis;
lastChange = "2015-11-30 00:36:24 +0000";
layers = (
{
layerId = "493B3A41-641C-4718-8E4F-15C1585391FA";
name = "Regular Italic";
paths = (
{
closed = 1;
nodes = (
"476 0 LINE",
"494 85 LINE",
"135 85 LINE",
"182 307 LINE",
"450 307 LINE",
"468 392 LINE",
"200 392 LINE",
"247 613 LINE",
"606 613 LINE",
"624 699 LINE",
"163 699 LINE",
"15 0 LINE"
);
},
{
closed = 1;
nodes = (
"312 751 OFFCURVE",
"343 777 OFFCURVE",
"350 809 CURVE SMOOTH",
"357 841 OFFCURVE",
"337 867 OFFCURVE",
"306 867 CURVE SMOOTH",
"274 867 OFFCURVE",
"242 841 OFFCURVE",
"235 809 CURVE SMOOTH",
"228 777 OFFCURVE",
"250 751 OFFCURVE",
"281 751 CURVE SMOOTH"
);
},
{
closed = 1;
nodes = (
"539 751 OFFCURVE",
"570 777 OFFCURVE",
"577 809 CURVE SMOOTH",
"584 841 OFFCURVE",
"564 867 OFFCURVE",
"533 867 CURVE SMOOTH",
"501 867 OFFCURVE",
"468 841 OFFCURVE",
"461 809 CURVE SMOOTH",
"454 777 OFFCURVE",
"476 751 OFFCURVE",
"508 751 CURVE SMOOTH"
);
}
);
width = 571;
}
);
leftKerningGroup = E;
note = Edieresis;
rightKerningGroup = E;
unicode = 00CB;
},
{
glyphname = Edotaccent;
lastChange = "2015-11-30 00:36:24 +0000";
layers = (
{
layerId = "493B3A41-641C-4718-8E4F-15C1585391FA";
name = "Regular Italic";
paths = (
{
closed = 1;
nodes = (
"476 0 LINE",
"494 85 LINE",
"135 85 LINE",
"182 307 LINE",
"450 307 LINE",
"468 392 LINE",
"200 392 LINE",
"247 613 LINE",
"606 613 LINE",
"624 699 LINE",
"163 699 LINE",
"15 0 LINE"
);
},
{
closed = 1;
nodes = (
"436 740 OFFCURVE",
"467 766 OFFCURVE",
"474 798 CURVE SMOOTH",
"481 830 OFFCURVE",
"461 856 OFFCURVE",
"430 856 CURVE SMOOTH",
"398 856 OFFCURVE",
"365 830 OFFCURVE",
"358 798 CURVE SMOOTH",
"351 766 OFFCURVE",
"373 740 OFFCURVE",
"405 740 CURVE SMOOTH"
);
}
);
width = 571;
}
);
leftKerningGroup = E;
note = Edotaccent;
rightKerningGroup = E;
unicode = 0116;
},
{
glyphname = Edotbelow;
lastChange = "2015-11-30 00:36:22 +0000";
layers = (
{
layerId = "493B3A41-641C-4718-8E4F-15C1585391FA";
name = "Regular Italic";
paths = (
{
closed = 1;
nodes = (
"476 0 LINE",
"494 85 LINE",
"135 85 LINE",
"182 307 LINE",
"450 307 LINE",
"468 392 LINE",
"200 392 LINE",
"247 613 LINE",
"606 613 LINE",
"624 699 LINE",
"163 699 LINE",
"15 0 LINE"
);
},
{
closed = 1;
nodes = (
"232 -166 OFFCURVE",
"263 -140 OFFCURVE",
"270 -108 CURVE SMOOTH",
"276 -76 OFFCURVE",
"256 -50 OFFCURVE",
"226 -50 CURVE SMOOTH",
"194 -50 OFFCURVE",
"161 -76 OFFCURVE",
"155 -108 CURVE SMOOTH",
"148 -140 OFFCURVE",
"169 -166 OFFCURVE",
"201 -166 CURVE SMOOTH"
);
}
);
width = 571;
}
);
leftKerningGroup = E;
note = Edotbelow;
rightKerningGroup = E;
unicode = 1EB8;
},
{
glyphname = Egrave;
lastChange = "2015-11-30 00:36:22 +0000";
layers = (
{
layerId = "493B3A41-641C-4718-8E4F-15C1585391FA";
name = "Regular Italic";
paths = (
{
closed = 1;
nodes = (
"476 0 LINE",
"494 85 LINE",
"135 85 LINE",
"182 307 LINE",
"450 307 LINE",
"468 392 LINE",
"200 392 LINE",
"247 613 LINE",
"606 613 LINE",
"624 699 LINE",
"163 699 LINE",
"15 0 LINE"
);
},
{
closed = 1;
nodes = (
"450 754 LINE",
"418 926 LINE",
"311 926 LINE",
"357 754 LINE"
);
}
);
width = 571;
}
);
leftKerningGroup = E;
note = Egrave;
rightKerningGroup = E;
unicode = 00C8;
},
{
glyphname = Ehookabove;
lastChange = "2015-11-30 00:36:24 +0000";
layers = (
{
layerId = "493B3A41-641C-4718-8E4F-15C1585391FA";
name = "Regular Italic";
paths = (
{
closed = 1;
nodes = (
"476 0 LINE",
"494 85 LINE",
"135 85 LINE",
"182 307 LINE",
"450 307 LINE",
"468 392 LINE",
"200 392 LINE",
"247 613 LINE",
"606 613 LINE",
"624 699 LINE",
"163 699 LINE",
"15 0 LINE"
);
},
{
closed = 1;
nodes = (
"434 742 LINE",
"441 776 LINE",
"503 784 OFFCURVE",
"543 822 OFFCURVE",
"553 870 CURVE SMOOTH",
"565 927 OFFCURVE",
"531 967 OFFCURVE",
"443 967 CURVE SMOOTH",
"411 967 OFFCURVE",
"374 961 OFFCURVE",
"353 954 CURVE",
"341 899 LINE",
"355 905 OFFCURVE",
"391 910 OFFCURVE",
"407 910 CURVE SMOOTH",
"453 910 OFFCURVE",
"470 897 OFFCURVE",
"463 866 CURVE SMOOTH",
"455 827 OFFCURVE",
"420 813 OFFCURVE",
"360 813 CURVE",
"345 742 LINE"
);
}
);
width = 571;
}
);
leftKerningGroup = E;
note = Ehookabove;
rightKerningGroup = E;
unicode = 1EBA;
},
{
glyphname = Emacron;
lastChange = "2015-11-30 00:36:24 +0000";
layers = (
{
layerId = "493B3A41-641C-4718-8E4F-15C1585391FA";
name = "Regular Italic";
paths = (
{
closed = 1;
nodes = (
"476 0 LINE",
"494 85 LINE",
"135 85 LINE",
"182 307 LINE",
"450 307 LINE",
"468 392 LINE",
"200 392 LINE",
"247 613 LINE",
"606 613 LINE",
"624 699 LINE",
"163 699 LINE",
"15 0 LINE"
);
},
{
closed = 1;
nodes = (
"566 762 LINE",
"581 831 LINE",
"270 831 LINE",
"255 762 LINE"
);
}
);
width = 571;
}
);
leftKerningGroup = E;
note = Emacron;
rightKerningGroup = E;
unicode = 0112;
},
{
glyphname = Eogonek;
lastChange = "2015-11-30 00:36:24 +0000";
layers = (
{
layerId = "493B3A41-641C-4718-8E4F-15C1585391FA";
name = "Regular Italic";
paths = (
{
closed = 1;
nodes = (
"396 -212 OFFCURVE",
"426 -207 OFFCURVE",
"446 -200 CURVE",
"459 -139 LINE",
"444 -145 OFFCURVE",
"427 -149 OFFCURVE",
"409 -149 CURVE SMOOTH",
"382 -149 OFFCURVE",
"369 -135 OFFCURVE",
"375 -106 CURVE SMOOTH",
"384 -65 OFFCURVE",
"417 -33 OFFCURVE",
"476 0 CURVE",
"494 85 LINE",
"135 85 LINE",
"182 307 LINE",
"450 307 LINE",
"468 392 LINE",
"200 392 LINE",
"247 613 LINE",
"606 613 LINE",
"624 699 LINE",
"163 699 LINE",
"15 0 LINE",
"382 0 LINE",
"335 -27 OFFCURVE",
"294 -70 OFFCURVE",
"283 -122 CURVE SMOOTH",
"270 -183 OFFCURVE",
"309 -212 OFFCURVE",
"367 -212 CURVE SMOOTH"
);
}
);
width = 571;
}
);
leftKerningGroup = E;
note = Eogonek;
rightKerningGroup = E;
unicode = 0118;
},
{
glyphname = Etilde;
lastChange = "2015-11-30 00:36:22 +0000";
layers = (
{
layerId = "493B3A41-641C-4718-8E4F-15C1585391FA";
name = "Regular Italic";
paths = (
{
closed = 1;
nodes = (
"476 0 LINE",
"494 85 LINE",
"135 85 LINE",
"182 307 LINE",
"450 307 LINE",
"468 392 LINE",
"200 392 LINE",
"247 613 LINE",
"606 613 LINE",
"624 699 LINE",
"163 699 LINE",
"15 0 LINE"
);
},
{
closed = 1;
nodes = (
"247 796 OFFCURVE",
"282 808 OFFCURVE",
"318 808 CURVE SMOOTH",
"382 808 OFFCURVE",
"419 758 OFFCURVE",
"492 758 CURVE SMOOTH",
"533 758 OFFCURVE",
"570 769 OFFCURVE",
"597 800 CURVE",
"615 886 LINE",
"580 847 OFFCURVE",
"546 835 OFFCURVE",
"509 835 CURVE SMOOTH",
"444 835 OFFCURVE",
"402 885 OFFCURVE",
"334 885 CURVE SMOOTH",
"294 885 OFFCURVE",
"256 873 OFFCURVE",
"227 842 CURVE",
"209 756 LINE"
);
}
);
width = 571;
}
);
leftKerningGroup = E;
note = Etilde;
rightKerningGroup = E;
unicode = 1EBC;
},
{
glyphname = F;
lastChange = "2015-11-30 00:36:24 +0000";
layers = (
{
layerId = "493B3A41-641C-4718-8E4F-15C1585391FA";
name = "Regular Italic";
paths = (
{
closed = 1;
nodes = (
"117 0 LINE",
"182 309 LINE",
"450 309 LINE",
"467 390 LINE",
"199 390 LINE",
"247 613 LINE",
"606 613 LINE",
"624 699 LINE",
"163 699 LINE",
"15 0 LINE"
);
}
);
width = 551;
}
);
note = F;
unicode = 0046;
},
{
glyphname = G;
lastChange = "2015-11-30 00:36:24 +0000";
layers = (
{
layerId = "493B3A41-641C-4718-8E4F-15C1585391FA";
name = "Regular Italic";
paths = (
{
closed = 1;
nodes = (
"466 -15 OFFCURVE",
"557 6 OFFCURVE",
"633 60 CURVE",
"701 380 LINE",
"466 380 LINE",
"449 297 LINE",
"582 297 LINE",
"543 114 LINE",
"503 89 OFFCURVE",
"446 77 OFFCURVE",
"386 77 CURVE SMOOTH",
"210 77 OFFCURVE",
"136 181 OFFCURVE",
"172 349 CURVE SMOOTH",
"207 516 OFFCURVE",
"347 620 OFFCURVE",
"505 620 CURVE SMOOTH",
"605 620 OFFCURVE",
"671 596 OFFCURVE",
"721 544 CURVE",
"742 642 LINE",
"687 691 OFFCURVE",
"614 714 OFFCURVE",
"516 714 CURVE SMOOTH",
"299 714 OFFCURVE",
"116 571 OFFCURVE",
"69 349 CURVE SMOOTH",
"21 127 OFFCURVE",
"155 -15 OFFCURVE",
"361 -15 CURVE SMOOTH"
);
}
);
width = 716;
}
);
leftKerningGroup = C;
note = G;
unicode = 0047;
},
{
glyphname = Gbreve;
lastChange = "2015-11-30 00:36:22 +0000";
layers = (
{
layerId = "493B3A41-641C-4718-8E4F-15C1585391FA";
name = "Regular Italic";
paths = (
{
closed = 1;
nodes = (
"466 -15 OFFCURVE",
"557 6 OFFCURVE",
"633 60 CURVE",
"701 380 LINE",
"466 380 LINE",
"449 297 LINE",
"582 297 LINE",
"543 114 LINE",
"503 89 OFFCURVE",
"446 77 OFFCURVE",
"386 77 CURVE SMOOTH",
"210 77 OFFCURVE",
"136 181 OFFCURVE",
"172 349 CURVE SMOOTH",
"207 516 OFFCURVE",
"347 620 OFFCURVE",
"505 620 CURVE SMOOTH",
"605 620 OFFCURVE",
"671 596 OFFCURVE",
"721 544 CURVE",
"742 642 LINE",
"687 691 OFFCURVE",
"614 714 OFFCURVE",
"516 714 CURVE SMOOTH",
"299 714 OFFCURVE",
"116 571 OFFCURVE",
"69 349 CURVE SMOOTH",
"21 127 OFFCURVE",
"155 -15 OFFCURVE",
"361 -15 CURVE SMOOTH"
);
},
{
closed = 1;
nodes = (
"618 742 OFFCURVE",
"688 800 OFFCURVE",
"705 882 CURVE",
"625 882 LINE",
"615 837 OFFCURVE",
"583 811 OFFCURVE",
"537 811 CURVE SMOOTH",
"491 811 OFFCURVE",
"469 837 OFFCURVE",
"479 882 CURVE",
"404 882 LINE",
"388 800 OFFCURVE",
"431 742 OFFCURVE",
"525 742 CURVE SMOOTH"
);
}
);
width = 716;
}
);
leftKerningGroup = C;
note = Gbreve;
unicode = 011E;
},
{
glyphname = Gcaron;
lastChange = "2015-11-30 00:36:23 +0000";
layers = (
{
layerId = "493B3A41-641C-4718-8E4F-15C1585391FA";
name = "Regular Italic";
paths = (
{
closed = 1;
nodes = (
"466 -15 OFFCURVE",
"557 6 OFFCURVE",
"633 60 CURVE",
"701 380 LINE",
"466 380 LINE",
"449 297 LINE",
"582 297 LINE",
"543 114 LINE",
"503 89 OFFCURVE",
"446 77 OFFCURVE",
"386 77 CURVE SMOOTH",
"210 77 OFFCURVE",
"136 181 OFFCURVE",
"172 349 CURVE SMOOTH",
"207 516 OFFCURVE",
"347 620 OFFCURVE",
"505 620 CURVE SMOOTH",
"605 620 OFFCURVE",
"671 596 OFFCURVE",
"721 544 CURVE",
"742 642 LINE",
"687 691 OFFCURVE",
"614 714 OFFCURVE",
"516 714 CURVE SMOOTH",
"299 714 OFFCURVE",
"116 571 OFFCURVE",
"69 349 CURVE SMOOTH",
"21 127 OFFCURVE",
"155 -15 OFFCURVE",
"361 -15 CURVE SMOOTH"
);
},
{
closed = 1;
nodes = (
"530 753 LINE",
"708 919 LINE",
"603 919 LINE",
"496 812 LINE",
"435 919 LINE",
"336 919 LINE",
"441 753 LINE"
);
}
);
width = 716;
}
);
leftKerningGroup = C;
note = Gcaron;
unicode = 01E6;
},
{
glyphname = Gcircumflex;
lastChange = "2015-11-30 00:36:23 +0000";
layers = (
{
layerId = "493B3A41-641C-4718-8E4F-15C1585391FA";
name = "Regular Italic";
paths = (
{
closed = 1;
nodes = (
"466 -15 OFFCURVE",
"557 6 OFFCURVE",
"633 60 CURVE",
"701 380 LINE",
"466 380 LINE",
"449 297 LINE",
"582 297 LINE",
"543 114 LINE",
"503 89 OFFCURVE",
"446 77 OFFCURVE",
"386 77 CURVE SMOOTH",
"210 77 OFFCURVE",
"136 181 OFFCURVE",
"172 349 CURVE SMOOTH",
"207 516 OFFCURVE",
"347 620 OFFCURVE",
"505 620 CURVE SMOOTH",
"605 620 OFFCURVE",
"671 596 OFFCURVE",
"721 544 CURVE",
"742 642 LINE",
"687 691 OFFCURVE",
"614 714 OFFCURVE",
"516 714 CURVE SMOOTH",
"299 714 OFFCURVE",
"116 571 OFFCURVE",
"69 349 CURVE SMOOTH",
"21 127 OFFCURVE",
"155 -15 OFFCURVE",
"361 -15 CURVE SMOOTH"
);
},
{
closed = 1;
nodes = (
"436 741 LINE",
"543 848 LINE",
"604 741 LINE",
"703 741 LINE",
"597 907 LINE",
"508 907 LINE",
"331 741 LINE"
);
}
);
width = 716;
}
);
leftKerningGroup = C;
note = Gcircumflex;
unicode = 011C;
},
{
glyphname = Gcommaaccent;
lastChange = "2015-11-30 00:36:23 +0000";
layers = (
{
layerId = "493B3A41-641C-4718-8E4F-15C1585391FA";
name = "Regular Italic";
paths = (
{
closed = 1;
nodes = (
"466 -15 OFFCURVE",
"557 6 OFFCURVE",
"633 60 CURVE",
"701 380 LINE",
"466 380 LINE",
"449 297 LINE",
"582 297 LINE",
"543 114 LINE",
"503 89 OFFCURVE",
"446 77 OFFCURVE",
"386 77 CURVE SMOOTH",
"210 77 OFFCURVE",
"136 181 OFFCURVE",
"172 349 CURVE SMOOTH",
"207 516 OFFCURVE",
"347 620 OFFCURVE",
"505 620 CURVE SMOOTH",
"605 620 OFFCURVE",
"671 596 OFFCURVE",
"721 544 CURVE",
"742 642 LINE",
"687 691 OFFCURVE",
"614 714 OFFCURVE",
"516 714 CURVE SMOOTH",
"299 714 OFFCURVE",
"116 571 OFFCURVE",
"69 349 CURVE SMOOTH",
"21 127 OFFCURVE",
"155 -15 OFFCURVE",
"361 -15 CURVE SMOOTH"
);
},
{
closed = 1;
nodes = (
"276 -260 LINE",
"414 -60 LINE",
"308 -60 LINE",
"185 -260 LINE"
);
}
);
width = 716;
}
);
leftKerningGroup = C;
note = Gcommaaccent;
unicode = 0122;
},
{
glyphname = Gdotaccent;
lastChange = "2015-11-30 00:36:22 +0000";
layers = (
{
layerId = "493B3A41-641C-4718-8E4F-15C1585391FA";
name = "Regular Italic";
paths = (
{
closed = 1;
nodes = (
"466 -15 OFFCURVE",
"557 6 OFFCURVE",
"633 60 CURVE",
"701 380 LINE",
"466 380 LINE",
"449 297 LINE",
"582 297 LINE",
"543 114 LINE",
"503 89 OFFCURVE",
"446 77 OFFCURVE",
"386 77 CURVE SMOOTH",
"210 77 OFFCURVE",
"136 181 OFFCURVE",
"172 349 CURVE SMOOTH",
"207 516 OFFCURVE",
"347 620 OFFCURVE",
"505 620 CURVE SMOOTH",
"605 620 OFFCURVE",
"671 596 OFFCURVE",
"721 544 CURVE",
"742 642 LINE",
"687 691 OFFCURVE",
"614 714 OFFCURVE",
"516 714 CURVE SMOOTH",
"299 714 OFFCURVE",
"116 571 OFFCURVE",
"69 349 CURVE SMOOTH",
"21 127 OFFCURVE",
"155 -15 OFFCURVE",
"361 -15 CURVE SMOOTH"
);
},
{
closed = 1;
nodes = (
"553 741 OFFCURVE",
"584 767 OFFCURVE",
"591 799 CURVE SMOOTH",
"598 831 OFFCURVE",
"578 857 OFFCURVE",
"547 857 CURVE SMOOTH",
"515 857 OFFCURVE",
"482 831 OFFCURVE",
"475 799 CURVE SMOOTH",
"468 767 OFFCURVE",
"490 741 OFFCURVE",
"522 741 CURVE SMOOTH"
);
}
);
width = 716;
}
);
leftKerningGroup = C;
note = Gdotaccent;
unicode = 0120;
},
{
glyphname = Gmacron;
lastChange = "2015-11-30 00:36:23 +0000";
layers = (
{
layerId = "493B3A41-641C-4718-8E4F-15C1585391FA";
name = "Regular Italic";
paths = (
{
closed = 1;
nodes = (
"466 -15 OFFCURVE",
"557 6 OFFCURVE",
"633 60 CURVE",
"701 380 LINE",
"466 380 LINE",
"449 297 LINE",
"582 297 LINE",
"543 114 LINE",
"503 89 OFFCURVE",
"446 77 OFFCURVE",
"386 77 CURVE SMOOTH",
"210 77 OFFCURVE",
"136 181 OFFCURVE",
"172 349 CURVE SMOOTH",
"207 516 OFFCURVE",
"347 620 OFFCURVE",
"505 620 CURVE SMOOTH",
"605 620 OFFCURVE",
"671 596 OFFCURVE",
"721 544 CURVE",
"742 642 LINE",
"687 691 OFFCURVE",
"614 714 OFFCURVE",
"516 714 CURVE SMOOTH",
"299 714 OFFCURVE",
"116 571 OFFCURVE",
"69 349 CURVE SMOOTH",
"21 127 OFFCURVE",
"155 -15 OFFCURVE",
"361 -15 CURVE SMOOTH"
);
},
{
closed = 1;
nodes = (
"683 762 LINE",
"698 831 LINE",
"387 831 LINE",
"372 762 LINE"
);
}
);
width = 716;
}
);
leftKerningGroup = C;
note = Gmacron;
unicode = 1E20;
},
{
glyphname = H;
lastChange = "2015-11-30 00:36:24 +0000";
layers = (
{
layerId = "493B3A41-641C-4718-8E4F-15C1585391FA";
name = "Regular Italic";
paths = (
{
closed = 1;
nodes = (
"117 0 LINE",
"183 313 LINE",
"548 313 LINE",
"482 0 LINE",
"584 0 LINE",
"732 699 LINE",
"630 699 LINE",
"566 399 LINE",
"201 399 LINE",
"265 699 LINE",
"163 699 LINE",
"15 0 LINE"
);
}
);
width = 699;
}
);
note = H;
unicode = 0048;
},
{
glyphname = Hbar;
lastChange = "2015-11-30 00:36:21 +0000";
layers = (
{
layerId = "493B3A41-641C-4718-8E4F-15C1585391FA";
name = "Regular Italic";
paths = (
{
closed = 1;
nodes = (
"123 0 LINE",
"189 312 LINE",
"554 312 LINE",
"488 0 LINE",
"590 0 LINE",
"697 505 LINE",
"749 505 LINE",
"766 588 LINE",
"714 588 LINE",
"738 699 LINE",
"636 699 LINE",
"612 588 LINE",
"247 588 LINE",
"271 699 LINE",
"169 699 LINE",
"145 588 LINE",
"96 588 LINE",
"79 505 LINE",
"128 505 LINE",
"21 0 LINE"
);
},
{
closed = 1;
nodes = (
"230 505 LINE",
"595 505 LINE",
"573 400 LINE",
"208 400 LINE"
);
}
);
width = 720;
}
);
note = Hbar;
unicode = 0126;
},
{
glyphname = Hbrevebelow;
lastChange = "2015-11-30 00:36:25 +0000";
layers = (
{
layerId = "493B3A41-641C-4718-8E4F-15C1585391FA";
name = "Regular Italic";
paths = (
{
closed = 1;
nodes = (
"117 0 LINE",
"183 313 LINE",
"548 313 LINE",
"482 0 LINE",
"584 0 LINE",
"732 699 LINE",
"630 699 LINE",
"566 399 LINE",
"201 399 LINE",
"265 699 LINE",
"163 699 LINE",
"15 0 LINE"
);
},
{
closed = 1;
nodes = (
"350 -202 OFFCURVE",
"419 -144 OFFCURVE",
"437 -61 CURVE",
"357 -61 LINE",
"347 -106 OFFCURVE",
"314 -133 OFFCURVE",
"269 -133 CURVE SMOOTH",
"223 -133 OFFCURVE",
"202 -106 OFFCURVE",
"212 -61 CURVE",
"137 -61 LINE",
"119 -144 OFFCURVE",
"164 -202 OFFCURVE",
"258 -202 CURVE SMOOTH"
);
}
);
width = 699;
}
);
note = Hbrevebelow;
unicode = 1E2A;
},
{
glyphname = Hcircumflex;
lastChange = "2015-11-30 00:36:24 +0000";
layers = (
{
layerId = "493B3A41-641C-4718-8E4F-15C1585391FA";
name = "Regular Italic";
paths = (
{
closed = 1;
nodes = (
"117 0 LINE",
"183 313 LINE",
"548 313 LINE",
"482 0 LINE",
"584 0 LINE",
"732 699 LINE",
"630 699 LINE",
"566 399 LINE",
"201 399 LINE",
"265 699 LINE",
"163 699 LINE",
"15 0 LINE"
);
},
{
closed = 1;
nodes = (
"375 741 LINE",
"482 848 LINE",
"543 741 LINE",
"642 741 LINE",
"536 907 LINE",
"447 907 LINE",
"270 741 LINE"
);
}
);
width = 699;
}
);
note = Hcircumflex;
unicode = 0124;
},
{
glyphname = Hdotbelow;
lastChange = "2015-11-30 00:36:24 +0000";
layers = (
{
layerId = "493B3A41-641C-4718-8E4F-15C1585391FA";
name = "Regular Italic";
paths = (
{
closed = 1;
nodes = (
"117 0 LINE",
"183 313 LINE",
"548 313 LINE",
"482 0 LINE",
"584 0 LINE",
"732 699 LINE",
"630 699 LINE",
"566 399 LINE",
"201 399 LINE",
"265 699 LINE",
"163 699 LINE",
"15 0 LINE"
);
},
{
closed = 1;
nodes = (
"296 -166 OFFCURVE",
"327 -140 OFFCURVE",
"334 -108 CURVE SMOOTH",
"340 -76 OFFCURVE",
"320 -50 OFFCURVE",
"290 -50 CURVE SMOOTH",
"258 -50 OFFCURVE",
"225 -76 OFFCURVE",
"219 -108 CURVE SMOOTH",
"212 -140 OFFCURVE",
"233 -166 OFFCURVE",
"265 -166 CURVE SMOOTH"
);
}
);
width = 699;
}
);
note = Hdotbelow;
unicode = 1E24;
},
{
glyphname = I;
lastChange = "2015-11-30 00:36:21 +0000";
layers = (
{
layerId = "493B3A41-641C-4718-8E4F-15C1585391FA";
name = "Regular Italic";
paths = (
{
closed = 1;
nodes = (
"118 0 LINE",
"266 699 LINE",
"163 699 LINE",
"15 0 LINE"
);
}
);
width = 233;
}
);
note = I;
unicode = 0049;
},
{
glyphname = IJ;
lastChange = "2015-11-30 00:36:22 +0000";
layers = (
{
layerId = "493B3A41-641C-4718-8E4F-15C1585391FA";
name = "Regular Italic";
paths = (
{
closed = 1;
nodes = (
"440 -15 OFFCURVE",
"511 52 OFFCURVE",
"536 168 CURVE SMOOTH",
"649 699 LINE",
"547 699 LINE",
"436 175 LINE SMOOTH",
"421 106 OFFCURVE",
"386 75 OFFCURVE",
"311 75 CURVE SMOOTH",
"285 75 OFFCURVE",
"251 80 OFFCURVE",
"231 89 CURVE",
"213 2 LINE",
"233 -8 OFFCURVE",
"278 -15 OFFCURVE",
"315 -15 CURVE SMOOTH"
);
},
{
closed = 1;
nodes = (
"119 0 LINE",
"267 699 LINE",
"164 699 LINE",
"16 0 LINE"
);
}
);
width = 613;
}
);
note = IJ;
rightKerningGroup = J;
unicode = 0132;
},
{
glyphname = Iacute;
lastChange = "2015-11-30 00:36:23 +0000";
layers = (
{
layerId = "493B3A41-641C-4718-8E4F-15C1585391FA";
name = "Regular Italic";
paths = (
{
closed = 1;
nodes = (
"119 0 LINE",
"267 699 LINE",
"164 699 LINE",
"16 0 LINE"
);
},
{
closed = 1;
nodes = (
"271 741 LINE",
"391 913 LINE",
"284 913 LINE",
"179 741 LINE"
);
}
);
width = 236;
}
);
note = Iacute;
unicode = 00CD;
},
{
glyphname = Ibreve;
lastChange = "2015-11-30 00:36:24 +0000";
layers = (
{
layerId = "493B3A41-641C-4718-8E4F-15C1585391FA";
name = "Regular Italic";
paths = (
{
closed = 1;
nodes = (
"119 0 LINE",
"267 699 LINE",
"164 699 LINE",
"16 0 LINE"
);
},
{
closed = 1;
nodes = (
"317 742 OFFCURVE",
"387 800 OFFCURVE",
"404 882 CURVE",
"324 882 LINE",
"314 837 OFFCURVE",
"282 811 OFFCURVE",
"236 811 CURVE SMOOTH",
"190 811 OFFCURVE",
"168 837 OFFCURVE",
"178 882 CURVE",
"103 882 LINE",
"87 800 OFFCURVE",
"130 742 OFFCURVE",
"224 742 CURVE SMOOTH"
);
}
);
width = 236;
}
);
note = Ibreve;
unicode = 012C;
},
{
glyphname = Icaron;
lastChange = "2015-11-30 00:36:22 +0000";
layers = (
{
layerId = "493B3A41-641C-4718-8E4F-15C1585391FA";
name = "Regular Italic";
paths = (
{
closed = 1;
nodes = (
"137 0 LINE",
"285 699 LINE",
"182 699 LINE",
"34 0 LINE"
);
},
{
closed = 1;
nodes = (
"277 753 LINE",
"455 919 LINE",
"350 919 LINE",
"243 812 LINE",
"182 919 LINE",
"83 919 LINE",
"188 753 LINE"
);
}
);
width = 247;
}
);
note = Icaron;
unicode = 01CF;
},
{
glyphname = Icircumflex;
lastChange = "2015-11-30 00:36:22 +0000";
layers = (
{
layerId = "493B3A41-641C-4718-8E4F-15C1585391FA";
name = "Regular Italic";
paths = (
{
closed = 1;
nodes = (
"119 0 LINE",
"267 699 LINE",
"164 699 LINE",
"16 0 LINE"
);
},
{
closed = 1;
nodes = (
"143 741 LINE",
"250 848 LINE",
"311 741 LINE",
"410 741 LINE",
"304 907 LINE",
"215 907 LINE",
"38 741 LINE"
);
}
);
width = 236;
}
);
note = Icircumflex;
unicode = 00CE;
},
{
glyphname = Idieresis;
lastChange = "2015-11-30 00:36:24 +0000";
layers = (
{
layerId = "493B3A41-641C-4718-8E4F-15C1585391FA";
name = "Regular Italic";
paths = (
{
closed = 1;
nodes = (
"119 0 LINE",
"267 699 LINE",
"164 699 LINE",
"16 0 LINE"
);
},
{
closed = 1;
nodes = (
"142 741 OFFCURVE",
"173 767 OFFCURVE",
"180 799 CURVE SMOOTH",
"187 831 OFFCURVE",
"167 857 OFFCURVE",
"136 857 CURVE SMOOTH",
"104 857 OFFCURVE",
"72 831 OFFCURVE",
"65 799 CURVE SMOOTH",
"58 767 OFFCURVE",
"80 741 OFFCURVE",
"111 741 CURVE SMOOTH"
);
},
{
closed = 1;
nodes = (
"369 741 OFFCURVE",
"400 767 OFFCURVE",
"407 799 CURVE SMOOTH",
"414 831 OFFCURVE",
"394 857 OFFCURVE",
"363 857 CURVE SMOOTH",
"331 857 OFFCURVE",
"298 831 OFFCURVE",
"291 799 CURVE SMOOTH",
"284 767 OFFCURVE",
"306 741 OFFCURVE",
"338 741 CURVE SMOOTH"
);
}
);
width = 236;
}
);
note = Idieresis;
unicode = 00CF;
},
{
glyphname = Idotaccent;
lastChange = "2015-11-30 00:36:23 +0000";
layers = (
{
layerId = "493B3A41-641C-4718-8E4F-15C1585391FA";
name = "Regular Italic";
paths = (
{
closed = 1;
nodes = (
"119 0 LINE",
"267 699 LINE",
"164 699 LINE",
"16 0 LINE"
);
},
{
closed = 1;
nodes = (
"257 741 OFFCURVE",
"288 767 OFFCURVE",
"295 799 CURVE SMOOTH",
"302 831 OFFCURVE",
"282 857 OFFCURVE",
"251 857 CURVE SMOOTH",
"219 857 OFFCURVE",
"186 831 OFFCURVE",
"179 799 CURVE SMOOTH",
"172 767 OFFCURVE",
"194 741 OFFCURVE",
"226 741 CURVE SMOOTH"
);
}
);
width = 236;
}
);
note = Idotaccent;
unicode = 0130;
},
{
glyphname = Idotbelow;
lastChange = "2015-11-30 00:36:25 +0000";
layers = (
{
layerId = "493B3A41-641C-4718-8E4F-15C1585391FA";
name = "Regular Italic";
paths = (
{
closed = 1;
nodes = (
"119 0 LINE",
"267 699 LINE",
"164 699 LINE",
"16 0 LINE"
);
},
{
closed = 1;
nodes = (
"65 -166 OFFCURVE",
"96 -140 OFFCURVE",
"103 -108 CURVE SMOOTH",
"109 -76 OFFCURVE",
"89 -50 OFFCURVE",
"59 -50 CURVE SMOOTH",
"27 -50 OFFCURVE",
"-6 -76 OFFCURVE",
"-12 -108 CURVE SMOOTH",
"-19 -140 OFFCURVE",
"2 -166 OFFCURVE",
"34 -166 CURVE SMOOTH"
);
}
);
width = 236;
}
);
note = Idotbelow;
unicode = 1ECA;
},
{
glyphname = Igrave;
lastChange = "2015-11-30 00:36:23 +0000";
layers = (
{
layerId = "493B3A41-641C-4718-8E4F-15C1585391FA";
name = "Regular Italic";
paths = (
{
closed = 1;
nodes = (
"119 0 LINE",
"267 699 LINE",
"164 699 LINE",
"16 0 LINE"
);
},
{
closed = 1;
nodes = (
"271 741 LINE",
"239 913 LINE",
"132 913 LINE",
"178 741 LINE"
);
}
);
width = 236;
}
);
note = Igrave;
unicode = 00CC;
},
{
glyphname = Ihookabove;
lastChange = "2015-11-30 00:36:22 +0000";
layers = (
{
layerId = "493B3A41-641C-4718-8E4F-15C1585391FA";
name = "Regular Italic";
paths = (
{
closed = 1;
nodes = (
"119 0 LINE",
"267 699 LINE",
"164 699 LINE",
"16 0 LINE"
);
},
{
closed = 1;
nodes = (
"269 742 LINE",
"276 776 LINE",
"338 784 OFFCURVE",
"378 822 OFFCURVE",
"388 870 CURVE SMOOTH",
"400 927 OFFCURVE",
"366 967 OFFCURVE",
"278 967 CURVE SMOOTH",
"246 967 OFFCURVE",
"209 961 OFFCURVE",
"188 954 CURVE",
"176 899 LINE",
"190 905 OFFCURVE",
"226 910 OFFCURVE",
"242 910 CURVE SMOOTH",
"288 910 OFFCURVE",
"305 897 OFFCURVE",
"298 866 CURVE SMOOTH",
"290 827 OFFCURVE",
"255 813 OFFCURVE",
"195 813 CURVE",
"180 742 LINE"
);
}
);
width = 236;
}
);
note = Ihookabove;
unicode = 1EC8;
},
{
glyphname = Imacron;
lastChange = "2015-11-30 00:36:22 +0000";
layers = (
{
layerId = "493B3A41-641C-4718-8E4F-15C1585391FA";
name = "Regular Italic";
paths = (
{
closed = 1;
nodes = (
"119 0 LINE",
"267 699 LINE",
"164 699 LINE",
"16 0 LINE"
);
},
{
closed = 1;
nodes = (
"389 762 LINE",
"404 832 LINE",
"85 832 LINE",
"70 762 LINE"
);
}
);
width = 236;
}
);
note = Imacron;
unicode = 012A;
},
{
glyphname = Iogonek;
lastChange = "2015-11-30 00:36:23 +0000";
layers = (
{
layerId = "493B3A41-641C-4718-8E4F-15C1585391FA";
name = "Regular Italic";
paths = (
{
closed = 1;
nodes = (
"119 0 LINE",
"267 699 LINE",
"164 699 LINE",
"16 0 LINE"
);
},
{
closed = 1;
nodes = (
"36 -212 OFFCURVE",
"66 -207 OFFCURVE",
"86 -200 CURVE",
"99 -139 LINE",
"84 -145 OFFCURVE",
"67 -149 OFFCURVE",
"49 -149 CURVE SMOOTH",
"22 -149 OFFCURVE",
"9 -135 OFFCURVE",
"15 -106 CURVE SMOOTH",
"24 -65 OFFCURVE",
"57 -33 OFFCURVE",
"116 0 CURVE",
"22 0 LINE",
"-25 -27 OFFCURVE",
"-66 -70 OFFCURVE",
"-77 -122 CURVE SMOOTH",
"-90 -183 OFFCURVE",
"-51 -212 OFFCURVE",
"7 -212 CURVE SMOOTH"
);
}
);
width = 236;
}
);
note = Iogonek;
unicode = 012E;
},
{
glyphname = Itilde;
lastChange = "2015-11-30 00:36:22 +0000";
layers = (
{
layerId = "493B3A41-641C-4718-8E4F-15C1585391FA";
name = "Regular Italic";
paths = (
{
closed = 1;
nodes = (
"119 0 LINE",
"267 699 LINE",
"164 699 LINE",
"16 0 LINE"
);
},
{
closed = 1;
nodes = (
"73 782 OFFCURVE",
"108 794 OFFCURVE",
"144 794 CURVE SMOOTH",
"208 794 OFFCURVE",
"245 744 OFFCURVE",
"318 744 CURVE SMOOTH",
"359 744 OFFCURVE",
"396 755 OFFCURVE",
"423 786 CURVE",
"441 872 LINE",
"406 833 OFFCURVE",
"372 821 OFFCURVE",
"335 821 CURVE SMOOTH",
"270 821 OFFCURVE",
"228 871 OFFCURVE",
"160 871 CURVE SMOOTH",
"120 871 OFFCURVE",
"82 859 OFFCURVE",
"53 828 CURVE",
"35 742 LINE"
);
}
);
width = 236;
}
);
note = Itilde;
unicode = 0128;
},
{
glyphname = J;
lastChange = "2015-11-30 00:36:23 +0000";
layers = (
{
layerId = "493B3A41-641C-4718-8E4F-15C1585391FA";
name = "Regular Italic";
paths = (
{
closed = 1;
nodes = (
"202 -15 OFFCURVE",
"273 52 OFFCURVE",
"298 168 CURVE SMOOTH",
"411 699 LINE",
"309 699 LINE",
"198 175 LINE SMOOTH",
"183 106 OFFCURVE",
"148 75 OFFCURVE",
"73 75 CURVE SMOOTH",
"47 75 OFFCURVE",
"13 80 OFFCURVE",
"-7 89 CURVE",
"-25 2 LINE",
"-5 -8 OFFCURVE",
"40 -15 OFFCURVE",
"77 -15 CURVE SMOOTH"
);
}
);
width = 373;
}
);
note = J;
rightKerningGroup = J;
unicode = 004A;
},
{
glyphname = Jcircumflex;
lastChange = "2015-11-30 00:36:23 +0000";
layers = (
{
layerId = "493B3A41-641C-4718-8E4F-15C1585391FA";
name = "Regular Italic";
paths = (
{
closed = 1;
nodes = (
"202 -15 OFFCURVE",
"273 52 OFFCURVE",
"298 168 CURVE SMOOTH",
"411 699 LINE",
"309 699 LINE",
"198 175 LINE SMOOTH",
"183 106 OFFCURVE",
"148 75 OFFCURVE",
"73 75 CURVE SMOOTH",
"47 75 OFFCURVE",
"13 80 OFFCURVE",
"-7 89 CURVE",
"-25 2 LINE",
"-5 -8 OFFCURVE",
"40 -15 OFFCURVE",
"77 -15 CURVE SMOOTH"
);
},
{
closed = 1;
nodes = (
"287 741 LINE",
"394 848 LINE",
"455 741 LINE",
"554 741 LINE",
"448 907 LINE",
"359 907 LINE",
"182 741 LINE"
);
}
);
width = 375;
}
);
note = Jcircumflex;
rightKerningGroup = J;
unicode = 0134;
},
{
glyphname = K;
lastChange = "2015-11-30 00:36:24 +0000";
layers = (
{
layerId = "493B3A41-641C-4718-8E4F-15C1585391FA";
name = "Regular Italic";
paths = (
{
closed = 1;
nodes = (
"583 0 LINE",
"319 354 LINE",
"713 699 LINE",
"589 699 LINE",
"197 356 LINE",
"461 0 LINE"
);
},
{
closed = 1;
nodes = (
"117 0 LINE",
"265 699 LINE",
"163 699 LINE",
"15 0 LINE"
);
}
);
width = 670;
}
);
leftKerningGroup = K;
note = K;
rightKerningGroup = K;
unicode = 004B;
},
{
glyphname = Kcommaaccent;
lastChange = "2015-11-30 00:36:23 +0000";
layers = (
{
layerId = "493B3A41-641C-4718-8E4F-15C1585391FA";
name = "Regular Italic";
paths = (
{
closed = 1;
nodes = (
"583 0 LINE",
"319 354 LINE",
"713 699 LINE",
"589 699 LINE",
"197 356 LINE",
"461 0 LINE"
);
},
{
closed = 1;
nodes = (
"168 -260 LINE",
"306 -60 LINE",
"200 -60 LINE",
"77 -260 LINE"
);
},
{
closed = 1;
nodes = (
"117 0 LINE",
"265 699 LINE",
"163 699 LINE",
"15 0 LINE"
);
}
);
width = 670;
}
);
leftKerningGroup = K;
note = Kcommaaccent;
rightKerningGroup = K;
unicode = 0136;
},
{
glyphname = L;
lastChange = "2015-11-30 00:36:22 +0000";
layers = (
{
layerId = "493B3A41-641C-4718-8E4F-15C1585391FA";
name = "Regular Italic";
paths = (
{
closed = 1;
nodes = (
"471 0 LINE",
"489 85 LINE",
"135 85 LINE",
"265 699 LINE",
"163 699 LINE",
"15 0 LINE"
);
}
);
width = 546;
}
);
note = L;
rightKerningGroup = L;
unicode = 004C;
},
{
glyphname = Lacute;
lastChange = "2015-11-30 00:36:24 +0000";
layers = (
{
layerId = "493B3A41-641C-4718-8E4F-15C1585391FA";
name = "Regular Italic";
paths = (
{
closed = 1;
nodes = (
"471 0 LINE",
"489 85 LINE",
"135 85 LINE",
"265 699 LINE",
"163 699 LINE",
"15 0 LINE"
);
},
{
closed = 1;
nodes = (
"272 757 LINE",
"392 929 LINE",
"285 929 LINE",
"180 757 LINE"
);
}
);
width = 546;
}
);
note = Lacute;
rightKerningGroup = L;
unicode = 0139;
},
{
glyphname = Lcaron;
lastChange = "2015-11-30 00:36:21 +0000";
layers = (
{
layerId = "493B3A41-641C-4718-8E4F-15C1585391FA";
name = "Regular Italic";
paths = (
{
closed = 1;
nodes = (
"471 0 LINE",
"489 85 LINE",
"135 85 LINE",
"265 699 LINE",
"163 699 LINE",
"15 0 LINE"
);
},
{
closed = 1;
nodes = (
"420 502 LINE",
"558 702 LINE",
"452 702 LINE",
"329 502 LINE"
);
}
);
width = 546;
}
);
note = Lcaron;
rightKerningGroup = L;
unicode = 013D;
},
{
glyphname = Lcommaaccent;
lastChange = "2015-11-30 00:36:22 +0000";
layers = (
{
layerId = "493B3A41-641C-4718-8E4F-15C1585391FA";
name = "Regular Italic";
paths = (
{
closed = 1;
nodes = (
"471 0 LINE",
"489 85 LINE",
"135 85 LINE",
"265 699 LINE",
"163 699 LINE",
"15 0 LINE"
);
},
{
closed = 1;
nodes = (
"151 -260 LINE",
"289 -60 LINE",
"183 -60 LINE",
"60 -260 LINE"
);
}
);
width = 546;
}
);
note = Lcommaaccent;
rightKerningGroup = L;
unicode = 013B;
},
{
glyphname = Ldot;
lastChange = "2015-11-30 00:36:21 +0000";
layers = (
{
layerId = "493B3A41-641C-4718-8E4F-15C1585391FA";
name = "Regular Italic";
paths = (
{
closed = 1;
nodes = (
"471 0 LINE",
"489 85 LINE",
"135 85 LINE",
"265 699 LINE",
"163 699 LINE",
"15 0 LINE"
);
},
{
closed = 1;
nodes = (
"412 325 OFFCURVE",
"444 351 OFFCURVE",
"451 383 CURVE SMOOTH",
"458 415 OFFCURVE",
"437 441 OFFCURVE",
"406 441 CURVE SMOOTH",
"375 441 OFFCURVE",
"342 415 OFFCURVE",
"335 383 CURVE SMOOTH",
"328 351 OFFCURVE",
"350 325 OFFCURVE",
"381 325 CURVE SMOOTH"
);
}
);
width = 546;
}
);
note = Ldot;
rightKerningGroup = L;
unicode = 013F;
},
{
glyphname = Ldotbelow;
lastChange = "2015-11-30 00:36:24 +0000";
layers = (
{
layerId = "493B3A41-641C-4718-8E4F-15C1585391FA";
name = "Regular Italic";
paths = (
{
closed = 1;
nodes = (
"471 0 LINE",
"489 85 LINE",
"135 85 LINE",
"265 699 LINE",
"163 699 LINE",
"15 0 LINE"
);
},
{
closed = 1;
nodes = (
"219 -166 OFFCURVE",
"250 -140 OFFCURVE",
"257 -108 CURVE SMOOTH",
"263 -76 OFFCURVE",
"243 -50 OFFCURVE",
"213 -50 CURVE SMOOTH",
"181 -50 OFFCURVE",
"148 -76 OFFCURVE",
"142 -108 CURVE SMOOTH",
"135 -140 OFFCURVE",
"156 -166 OFFCURVE",
"188 -166 CURVE SMOOTH"
);
}
);
width = 546;
}
);
note = Ldotbelow;
rightKerningGroup = L;
unicode = 1E36;
},
{
glyphname = Ldotbelowmacron;
lastChange = "2015-11-30 00:36:22 +0000";
layers = (
{
layerId = "493B3A41-641C-4718-8E4F-15C1585391FA";
name = "Regular Italic";
paths = (
{
closed = 1;
nodes = (
"479 0 LINE",
"497 85 LINE",
"143 85 LINE",
"273 699 LINE",
"171 699 LINE",
"23 0 LINE"
);
},
{
closed = 1;
nodes = (
"242 -166 OFFCURVE",
"273 -140 OFFCURVE",
"280 -108 CURVE SMOOTH",
"286 -76 OFFCURVE",
"266 -50 OFFCURVE",
"236 -50 CURVE SMOOTH",
"204 -50 OFFCURVE",
"171 -76 OFFCURVE",
"165 -108 CURVE SMOOTH",
"158 -140 OFFCURVE",
"179 -166 OFFCURVE",
"211 -166 CURVE SMOOTH"
);
},
{
closed = 1;
nodes = (
"495 773 LINE",
"510 842 LINE",
"199 842 LINE",
"184 773 LINE"
);
}
);
width = 554;
}
);
note = Ldotbelowmacron;
rightKerningGroup = L;
unicode = 1E38;
},
{
glyphname = Llinebelow;
lastChange = "2015-11-30 00:36:25 +0000";
layers = (
{
layerId = "493B3A41-641C-4718-8E4F-15C1585391FA";
name = "Regular Italic";
paths = (
{
closed = 1;
nodes = (
"471 0 LINE",
"489 85 LINE",
"135 85 LINE",
"265 699 LINE",
"163 699 LINE",
"15 0 LINE"
);
},
{
closed = 1;
nodes = (
"366 -141 LINE",
"380 -71 LINE",
"67 -71 LINE",
"53 -141 LINE"
);
}
);
width = 546;
}
);
note = Llinebelow;
rightKerningGroup = L;
unicode = 1E3A;
},
{
glyphname = Lslash;
lastChange = "2015-11-30 00:36:23 +0000";
layers = (
{
layerId = "493B3A41-641C-4718-8E4F-15C1585391FA";
name = "Regular Italic";
paths = (
{
closed = 1;
nodes = (
"523 0 LINE",
"541 85 LINE",
"187 85 LINE",
"241 342 LINE",
"419 415 LINE",
"439 511 LINE",
"262 438 LINE",
"317 699 LINE",
"215 699 LINE",
"150 393 LINE",
"38 347 LINE",
"18 251 LINE",
"130 296 LINE",
"67 0 LINE"
);
}
);
width = 598;
}
);
note = Lslash;
rightKerningGroup = L;
unicode = 0141;
},
{
glyphname = M;
lastChange = "2015-11-30 00:36:23 +0000";
layers = (
{
layerId = "493B3A41-641C-4718-8E4F-15C1585391FA";
name = "Regular Italic";
paths = (
{
closed = 1;
nodes = (
"113 0 LINE",
"218 497 LINE",
"341 0 LINE",
"391 0 LINE",
"723 497 LINE",
"618 0 LINE",
"717 0 LINE",
"865 699 LINE",
"760 699 LINE",
"395 154 LINE",
"262 699 LINE",
"163 699 LINE",
"15 0 LINE"
);
}
);
width = 832;
}
);
note = M;
unicode = 004D;
},
{
glyphname = Mdotbelow;
lastChange = "2015-11-30 00:36:21 +0000";
layers = (
{
layerId = "493B3A41-641C-4718-8E4F-15C1585391FA";
name = "Regular Italic";
paths = (
{
closed = 1;
nodes = (
"113 0 LINE",
"218 497 LINE",
"341 0 LINE",
"391 0 LINE",
"723 497 LINE",
"618 0 LINE",
"717 0 LINE",
"865 699 LINE",
"760 699 LINE",
"395 154 LINE",
"262 699 LINE",
"163 699 LINE",
"15 0 LINE"
);
},
{
closed = 1;
nodes = (
"363 -166 OFFCURVE",
"394 -140 OFFCURVE",
"401 -108 CURVE SMOOTH",
"407 -76 OFFCURVE",
"387 -50 OFFCURVE",
"357 -50 CURVE SMOOTH",
"325 -50 OFFCURVE",
"292 -76 OFFCURVE",
"286 -108 CURVE SMOOTH",
"279 -140 OFFCURVE",
"300 -166 OFFCURVE",
"332 -166 CURVE SMOOTH"
);
}
);
width = 832;
}
);
note = Mdotbelow;
unicode = 1E42;
},
{
glyphname = N;
lastChange = "2015-11-30 00:36:25 +0000";
layers = (
{
layerId = "493B3A41-641C-4718-8E4F-15C1585391FA";
name = "Regular Italic";
paths = (
{
closed = 1;
nodes = (
"117 0 LINE",
"229 527 LINE",
"473 0 LINE",
"571 0 LINE",
"719 699 LINE",
"616 699 LINE",
"504 172 LINE",
"260 699 LINE",
"163 699 LINE",
"15 0 LINE"
);
}
);
width = 686;
}
);
note = N;
unicode = 004E;
},
{
glyphname = Nacute;
lastChange = "2015-11-30 00:36:24 +0000";
layers = (
{
layerId = "493B3A41-641C-4718-8E4F-15C1585391FA";
name = "Regular Italic";
paths = (
{
closed = 1;
nodes = (
"117 0 LINE",
"229 527 LINE",
"473 0 LINE",
"571 0 LINE",
"719 699 LINE",
"616 699 LINE",
"504 172 LINE",
"260 699 LINE",
"163 699 LINE",
"15 0 LINE"
);
},
{
closed = 1;
nodes = (
"489 741 LINE",
"609 913 LINE",
"502 913 LINE",
"397 741 LINE"
);
}
);
width = 686;
}
);
note = Nacute;
unicode = 0143;
},
{
glyphname = Ncaron;
lastChange = "2015-11-30 00:36:25 +0000";
layers = (
{
layerId = "493B3A41-641C-4718-8E4F-15C1585391FA";
name = "Regular Italic";
paths = (
{
closed = 1;
nodes = (
"117 0 LINE",
"229 527 LINE",
"473 0 LINE",
"571 0 LINE",
"719 699 LINE",
"616 699 LINE",
"504 172 LINE",
"260 699 LINE",
"163 699 LINE",
"15 0 LINE"
);
},
{
closed = 1;
nodes = (
"495 742 LINE",
"673 908 LINE",
"568 908 LINE",
"461 801 LINE",
"400 908 LINE",
"301 908 LINE",
"406 742 LINE"
);
}
);
width = 686;
}
);
note = Ncaron;
unicode = 0147;
},
{
glyphname = Ncommaaccent;
lastChange = "2015-11-30 00:36:22 +0000";
layers = (
{
layerId = "493B3A41-641C-4718-8E4F-15C1585391FA";
name = "Regular Italic";
paths = (
{
closed = 1;
nodes = (
"117 0 LINE",
"229 527 LINE",
"473 0 LINE",
"571 0 LINE",
"719 699 LINE",
"616 699 LINE",
"504 172 LINE",
"260 699 LINE",
"163 699 LINE",
"15 0 LINE"
);
},
{
closed = 1;
nodes = (
"208 -260 LINE",
"346 -60 LINE",
"240 -60 LINE",
"117 -260 LINE"
);
}
);
width = 686;
}
);
note = Ncommaaccent;
unicode = 0145;
},
{
glyphname = Ndotaccent;
lastChange = "2015-11-30 00:36:23 +0000";
layers = (
{
layerId = "493B3A41-641C-4718-8E4F-15C1585391FA";
name = "Regular Italic";
paths = (
{
closed = 1;
nodes = (
"117 0 LINE",
"229 527 LINE",
"473 0 LINE",
"571 0 LINE",
"719 699 LINE",
"616 699 LINE",
"504 172 LINE",
"260 699 LINE",
"163 699 LINE",
"15 0 LINE"
);
},
{
closed = 1;
nodes = (
"488 741 OFFCURVE",
"519 767 OFFCURVE",
"526 799 CURVE SMOOTH",
"533 831 OFFCURVE",
"513 857 OFFCURVE",
"482 857 CURVE SMOOTH",
"450 857 OFFCURVE",
"417 831 OFFCURVE",
"410 799 CURVE SMOOTH",
"403 767 OFFCURVE",
"425 741 OFFCURVE",
"457 741 CURVE SMOOTH"
);
}
);
width = 686;
}
);
note = Ndotaccent;
unicode = 1E44;
},
{
glyphname = Ndotbelow;
lastChange = "2015-11-30 00:36:23 +0000";
layers = (
{
layerId = "493B3A41-641C-4718-8E4F-15C1585391FA";
name = "Regular Italic";
paths = (
{
closed = 1;
nodes = (
"117 0 LINE",
"229 527 LINE",
"473 0 LINE",
"571 0 LINE",
"719 699 LINE",
"616 699 LINE",
"504 172 LINE",
"260 699 LINE",
"163 699 LINE",
"15 0 LINE"
);
},
{
closed = 1;
nodes = (
"293 -166 OFFCURVE",
"324 -140 OFFCURVE",
"331 -108 CURVE SMOOTH",
"337 -76 OFFCURVE",
"317 -50 OFFCURVE",
"287 -50 CURVE SMOOTH",
"255 -50 OFFCURVE",
"222 -76 OFFCURVE",
"216 -108 CURVE SMOOTH",
"209 -140 OFFCURVE",
"230 -166 OFFCURVE",
"262 -166 CURVE SMOOTH"
);
}
);
width = 686;
}
);
note = Ndotbelow;
unicode = 1E46;
},
{
glyphname = Eng;
lastChange = "2015-11-30 00:36:23 +0000";
layers = (
{
layerId = "493B3A41-641C-4718-8E4F-15C1585391FA";
name = "Regular Italic";
paths = (
{
closed = 1;
nodes = (
"451 -231 OFFCURVE",
"532 -179 OFFCURVE",
"557 -64 CURVE SMOOTH",
"570 0 LINE",
"571 0 LINE",
"719 699 LINE",
"616 699 LINE",
"504 172 LINE",
"260 699 LINE",
"163 699 LINE",
"15 0 LINE",
"117 0 LINE",
"229 527 LINE",
"470 7 LINE",
"456 -58 LINE SMOOTH",
"443 -121 OFFCURVE",
"413 -149 OFFCURVE",
"353 -149 CURVE SMOOTH",
"331 -149 OFFCURVE",
"311 -144 OFFCURVE",
"296 -136 CURVE",
"278 -220 LINE",
"296 -227 OFFCURVE",
"320 -231 OFFCURVE",
"351 -231 CURVE SMOOTH"
);
}
);
width = 686;
}
);
note = Eng;
unicode = 014A;
},
{
glyphname = Nlinebelow;
lastChange = "2015-11-30 00:36:21 +0000";
layers = (
{
layerId = "493B3A41-641C-4718-8E4F-15C1585391FA";
name = "Regular Italic";
paths = (
{
closed = 1;
nodes = (
"117 0 LINE",
"229 527 LINE",
"473 0 LINE",
"571 0 LINE",
"719 699 LINE",
"616 699 LINE",
"504 172 LINE",
"260 699 LINE",
"163 699 LINE",
"15 0 LINE"
);
},
{
closed = 1;
nodes = (
"429 -141 LINE",
"443 -71 LINE",
"130 -71 LINE",
"116 -141 LINE"
);
}
);
width = 686;
}
);
note = Nlinebelow;
unicode = 1E48;
},
{
glyphname = Ntilde;
lastChange = "2015-11-30 00:36:22 +0000";
layers = (
{
layerId = "493B3A41-641C-4718-8E4F-15C1585391FA";
name = "Regular Italic";
paths = (
{
closed = 1;
nodes = (
"117 0 LINE",
"229 527 LINE",
"473 0 LINE",
"571 0 LINE",
"719 699 LINE",
"616 699 LINE",
"504 172 LINE",
"260 699 LINE",
"163 699 LINE",
"15 0 LINE"
);
},
{
closed = 1;
nodes = (
"310 782 OFFCURVE",
"345 794 OFFCURVE",
"381 794 CURVE SMOOTH",
"445 794 OFFCURVE",
"482 744 OFFCURVE",
"555 744 CURVE SMOOTH",
"596 744 OFFCURVE",
"633 755 OFFCURVE",
"660 786 CURVE",
"678 872 LINE",
"643 833 OFFCURVE",
"609 821 OFFCURVE",
"572 821 CURVE SMOOTH",
"507 821 OFFCURVE",
"465 871 OFFCURVE",
"397 871 CURVE SMOOTH",
"357 871 OFFCURVE",
"319 859 OFFCURVE",
"290 828 CURVE",
"272 742 LINE"
);
}
);
width = 686;
}
);
note = Ntilde;
unicode = 00D1;
},
{
glyphname = O;
lastChange = "2015-11-30 00:36:21 +0000";
layers = (
{
layerId = "493B3A41-641C-4718-8E4F-15C1585391FA";
name = "Regular Italic";
paths = (
{
closed = 1;
nodes = (
"582 -15 OFFCURVE",
"758 131 OFFCURVE",
"805 349 CURVE SMOOTH",
"851 568 OFFCURVE",
"713 714 OFFCURVE",
"514 714 CURVE SMOOTH",
"296 714 OFFCURVE",
"115 568 OFFCURVE",
"69 349 CURVE SMOOTH",
"22 131 OFFCURVE",
"165 -15 OFFCURVE",
"359 -15 CURVE SMOOTH"
);
},
{
closed = 1;
nodes = (
"215 77 OFFCURVE",
"136 181 OFFCURVE",
"172 349 CURVE SMOOTH",
"207 515 OFFCURVE",
"345 620 OFFCURVE",
"494 620 CURVE SMOOTH",
"663 620 OFFCURVE",
"737 515 OFFCURVE",
"702 349 CURVE SMOOTH",
"666 181 OFFCURVE",
"526 77 OFFCURVE",
"379 77 CURVE SMOOTH"
);
}
);
width = 826;
}
);
leftKerningGroup = O;
note = O;
rightKerningGroup = O;
unicode = 004F;
},
{
glyphname = Oacute;
lastChange = "2015-11-30 00:36:21 +0000";
layers = (
{
layerId = "493B3A41-641C-4718-8E4F-15C1585391FA";
name = "Regular Italic";
paths = (
{
closed = 1;
nodes = (
"582 -15 OFFCURVE",
"758 131 OFFCURVE",
"805 349 CURVE SMOOTH",
"851 568 OFFCURVE",
"713 714 OFFCURVE",
"514 714 CURVE SMOOTH",
"296 714 OFFCURVE",
"115 568 OFFCURVE",
"69 349 CURVE SMOOTH",
"22 131 OFFCURVE",
"165 -15 OFFCURVE",
"359 -15 CURVE SMOOTH"
);
},
{
closed = 1;
nodes = (
"215 77 OFFCURVE",
"136 181 OFFCURVE",
"172 349 CURVE SMOOTH",
"207 515 OFFCURVE",
"345 620 OFFCURVE",
"494 620 CURVE SMOOTH",
"663 620 OFFCURVE",
"737 515 OFFCURVE",
"702 349 CURVE SMOOTH",
"666 181 OFFCURVE",
"526 77 OFFCURVE",
"379 77 CURVE SMOOTH"
);
},
{
closed = 1;
nodes = (
"565 741 LINE",
"685 913 LINE",
"578 913 LINE",
"473 741 LINE"
);
}
);
width = 826;
}
);
leftKerningGroup = O;
note = Oacute;
rightKerningGroup = O;
unicode = 00D3;
},
{
glyphname = Obreve;
lastChange = "2015-11-30 00:36:23 +0000";
layers = (
{
layerId = "493B3A41-641C-4718-8E4F-15C1585391FA";
name = "Regular Italic";
paths = (
{
closed = 1;
nodes = (
"582 -15 OFFCURVE",
"758 131 OFFCURVE",
"805 349 CURVE SMOOTH",
"851 568 OFFCURVE",
"713 714 OFFCURVE",
"514 714 CURVE SMOOTH",
"296 714 OFFCURVE",
"115 568 OFFCURVE",
"69 349 CURVE SMOOTH",
"22 131 OFFCURVE",
"165 -15 OFFCURVE",
"359 -15 CURVE SMOOTH"
);
},
{
closed = 1;
nodes = (
"215 77 OFFCURVE",
"136 181 OFFCURVE",
"172 349 CURVE SMOOTH",
"207 515 OFFCURVE",
"345 620 OFFCURVE",
"494 620 CURVE SMOOTH",
"663 620 OFFCURVE",
"737 515 OFFCURVE",
"702 349 CURVE SMOOTH",
"666 181 OFFCURVE",
"526 77 OFFCURVE",
"379 77 CURVE SMOOTH"
);
},
{
closed = 1;
nodes = (
"612 742 OFFCURVE",
"682 800 OFFCURVE",
"699 882 CURVE",
"619 882 LINE",
"609 837 OFFCURVE",
"577 811 OFFCURVE",
"531 811 CURVE SMOOTH",
"485 811 OFFCURVE",
"463 837 OFFCURVE",
"473 882 CURVE",
"398 882 LINE",
"382 800 OFFCURVE",
"425 742 OFFCURVE",
"519 742 CURVE SMOOTH"
);
}
);
width = 826;
}
);
leftKerningGroup = O;
note = Obreve;
rightKerningGroup = O;
unicode = 014E;
},
{
glyphname = Ocaron;
lastChange = "2015-11-30 00:36:23 +0000";
layers = (
{
layerId = "493B3A41-641C-4718-8E4F-15C1585391FA";
name = "Regular Italic";
paths = (
{
closed = 1;
nodes = (
"582 -15 OFFCURVE",
"758 131 OFFCURVE",
"805 349 CURVE SMOOTH",
"851 568 OFFCURVE",
"713 714 OFFCURVE",
"514 714 CURVE SMOOTH",
"296 714 OFFCURVE",
"115 568 OFFCURVE",
"69 349 CURVE SMOOTH",
"22 131 OFFCURVE",
"165 -15 OFFCURVE",
"359 -15 CURVE SMOOTH"
);
},
{
closed = 1;
nodes = (
"215 77 OFFCURVE",
"136 181 OFFCURVE",
"172 349 CURVE SMOOTH",
"207 515 OFFCURVE",
"345 620 OFFCURVE",
"494 620 CURVE SMOOTH",
"663 620 OFFCURVE",
"737 515 OFFCURVE",
"702 349 CURVE SMOOTH",
"666 181 OFFCURVE",
"526 77 OFFCURVE",
"379 77 CURVE SMOOTH"
);
},
{
closed = 1;
nodes = (
"564 742 LINE",
"742 908 LINE",
"637 908 LINE",
"530 801 LINE",
"469 908 LINE",
"370 908 LINE",
"475 742 LINE"
);
}
);
width = 826;
}
);
leftKerningGroup = O;
note = Ocaron;
rightKerningGroup = O;
unicode = 01D1;
},
{
glyphname = Ocircumflex;
lastChange = "2015-11-30 00:36:23 +0000";
layers = (
{
layerId = "493B3A41-641C-4718-8E4F-15C1585391FA";
name = "Regular Italic";
paths = (
{
closed = 1;
nodes = (
"582 -15 OFFCURVE",
"758 131 OFFCURVE",
"805 349 CURVE SMOOTH",
"851 568 OFFCURVE",
"713 714 OFFCURVE",
"514 714 CURVE SMOOTH",
"296 714 OFFCURVE",
"115 568 OFFCURVE",
"69 349 CURVE SMOOTH",
"22 131 OFFCURVE",
"165 -15 OFFCURVE",
"359 -15 CURVE SMOOTH"
);
},
{
closed = 1;
nodes = (
"215 77 OFFCURVE",
"136 181 OFFCURVE",
"172 349 CURVE SMOOTH",
"207 515 OFFCURVE",
"345 620 OFFCURVE",
"494 620 CURVE SMOOTH",
"663 620 OFFCURVE",
"737 515 OFFCURVE",
"702 349 CURVE SMOOTH",
"666 181 OFFCURVE",
"526 77 OFFCURVE",
"379 77 CURVE SMOOTH"
);
},
{
closed = 1;
nodes = (
"439 741 LINE",
"546 848 LINE",
"607 741 LINE",
"706 741 LINE",
"600 907 LINE",
"511 907 LINE",
"334 741 LINE"
);
}
);
width = 826;
}
);
leftKerningGroup = O;
note = Ocircumflex;
rightKerningGroup = O;
unicode = 00D4;
},
{
glyphname = Ocircumflexacute;
lastChange = "2015-11-30 00:36:22 +0000";
layers = (
{
layerId = "493B3A41-641C-4718-8E4F-15C1585391FA";
name = "Regular Italic";
paths = (
{
closed = 1;
nodes = (
"582 -15 OFFCURVE",
"758 131 OFFCURVE",
"805 349 CURVE SMOOTH",
"851 568 OFFCURVE",
"713 714 OFFCURVE",
"514 714 CURVE SMOOTH",
"296 714 OFFCURVE",
"115 568 OFFCURVE",
"69 349 CURVE SMOOTH",
"22 131 OFFCURVE",
"165 -15 OFFCURVE",
"359 -15 CURVE SMOOTH"
);
},
{
closed = 1;
nodes = (
"215 77 OFFCURVE",
"136 181 OFFCURVE",
"172 349 CURVE SMOOTH",
"207 515 OFFCURVE",
"345 620 OFFCURVE",
"494 620 CURVE SMOOTH",
"663 620 OFFCURVE",
"737 515 OFFCURVE",
"702 349 CURVE SMOOTH",
"666 181 OFFCURVE",
"526 77 OFFCURVE",
"379 77 CURVE SMOOTH"
);
},
{
closed = 1;
nodes = (
"452 741 LINE",
"553 831 LINE",
"616 741 LINE",
"711 741 LINE",
"605 886 LINE",
"519 886 LINE",
"350 741 LINE"
);
},
{
closed = 1;
nodes = (
"741 842 LINE",
"846 966 LINE",
"755 966 LINE",
"664 842 LINE"
);
}
);
width = 826;
}
);
leftKerningGroup = O;
note = Ocircumflexacute;
rightKerningGroup = O;
unicode = 1ED0;
},
{
glyphname = Ocircumflexdotbelow;
lastChange = "2015-11-30 00:36:22 +0000";
layers = (
{
layerId = "493B3A41-641C-4718-8E4F-15C1585391FA";
name = "Regular Italic";
paths = (
{
closed = 1;
nodes = (
"582 -15 OFFCURVE",
"758 131 OFFCURVE",
"805 349 CURVE SMOOTH",
"851 568 OFFCURVE",
"713 714 OFFCURVE",
"514 714 CURVE SMOOTH",
"296 714 OFFCURVE",
"115 568 OFFCURVE",
"69 349 CURVE SMOOTH",
"22 131 OFFCURVE",
"165 -15 OFFCURVE",
"359 -15 CURVE SMOOTH"
);
},
{
closed = 1;
nodes = (
"360 -166 OFFCURVE",
"391 -140 OFFCURVE",
"398 -108 CURVE SMOOTH",
"404 -76 OFFCURVE",
"384 -50 OFFCURVE",
"354 -50 CURVE SMOOTH",
"322 -50 OFFCURVE",
"289 -76 OFFCURVE",
"283 -108 CURVE SMOOTH",
"276 -140 OFFCURVE",
"297 -166 OFFCURVE",
"329 -166 CURVE SMOOTH"
);
},
{
closed = 1;
nodes = (
"215 77 OFFCURVE",
"136 181 OFFCURVE",
"172 349 CURVE SMOOTH",
"207 515 OFFCURVE",
"345 620 OFFCURVE",
"494 620 CURVE SMOOTH",
"663 620 OFFCURVE",
"737 515 OFFCURVE",
"702 349 CURVE SMOOTH",
"666 181 OFFCURVE",
"526 77 OFFCURVE",
"379 77 CURVE SMOOTH"
);
},
{
closed = 1;
nodes = (
"438 741 LINE",
"545 848 LINE",
"606 741 LINE",
"705 741 LINE",
"599 907 LINE",
"510 907 LINE",
"333 741 LINE"
);
}
);
width = 826;
}
);
leftKerningGroup = O;
note = Ocircumflexdotbelow;
rightKerningGroup = O;
unicode = 1ED8;
},
{
glyphname = Ocircumflexgrave;
lastChange = "2015-11-30 00:36:24 +0000";
layers = (
{
layerId = "493B3A41-641C-4718-8E4F-15C1585391FA";
name = "Regular Italic";
paths = (
{
closed = 1;
nodes = (
"582 -15 OFFCURVE",
"758 131 OFFCURVE",
"805 349 CURVE SMOOTH",
"851 568 OFFCURVE",
"713 714 OFFCURVE",
"514 714 CURVE SMOOTH",
"296 714 OFFCURVE",
"115 568 OFFCURVE",
"69 349 CURVE SMOOTH",
"22 131 OFFCURVE",
"165 -15 OFFCURVE",
"359 -15 CURVE SMOOTH"
);
},
{
closed = 1;
nodes = (
"215 77 OFFCURVE",
"136 181 OFFCURVE",
"172 349 CURVE SMOOTH",
"207 515 OFFCURVE",
"345 620 OFFCURVE",
"494 620 CURVE SMOOTH",
"663 620 OFFCURVE",
"737 515 OFFCURVE",
"702 349 CURVE SMOOTH",
"666 181 OFFCURVE",
"526 77 OFFCURVE",
"379 77 CURVE SMOOTH"
);
},
{
closed = 1;
nodes = (
"433 842 LINE",
"393 966 LINE",
"302 966 LINE",
"355 842 LINE"
);
},
{
closed = 1;
nodes = (
"443 741 LINE",
"544 831 LINE",
"607 741 LINE",
"702 741 LINE",
"596 886 LINE",
"510 886 LINE",
"341 741 LINE"
);
}
);
width = 826;
}
);
leftKerningGroup = O;
note = Ocircumflexgrave;
rightKerningGroup = O;
unicode = 1ED2;
},
{
glyphname = Ocircumflexhookabove;
lastChange = "2015-11-30 00:36:23 +0000";
layers = (
{
layerId = "493B3A41-641C-4718-8E4F-15C1585391FA";
name = "Regular Italic";
paths = (
{
closed = 1;
nodes = (
"582 -15 OFFCURVE",
"758 131 OFFCURVE",
"805 349 CURVE SMOOTH",
"851 568 OFFCURVE",
"713 714 OFFCURVE",
"514 714 CURVE SMOOTH",
"296 714 OFFCURVE",
"115 568 OFFCURVE",
"69 349 CURVE SMOOTH",
"22 131 OFFCURVE",
"165 -15 OFFCURVE",
"359 -15 CURVE SMOOTH"
);
},
{
closed = 1;
nodes = (
"215 77 OFFCURVE",
"136 181 OFFCURVE",
"172 349 CURVE SMOOTH",
"207 515 OFFCURVE",
"345 620 OFFCURVE",
"494 620 CURVE SMOOTH",
"663 620 OFFCURVE",
"737 515 OFFCURVE",
"702 349 CURVE SMOOTH",
"666 181 OFFCURVE",
"526 77 OFFCURVE",
"379 77 CURVE SMOOTH"
);
},
{
closed = 1;
nodes = (
"446 741 LINE",
"547 831 LINE",
"610 741 LINE",
"705 741 LINE",
"599 886 LINE",
"513 886 LINE",
"344 741 LINE"
);
},
{
closed = 1;
nodes = (
"722 833 LINE",
"727 858 LINE",
"770 864 OFFCURVE",
"800 890 OFFCURVE",
"807 923 CURVE SMOOTH",
"816 964 OFFCURVE",
"788 991 OFFCURVE",
"730 991 CURVE SMOOTH",
"708 991 OFFCURVE",
"679 986 OFFCURVE",
"663 981 CURVE",
"654 938 LINE",
"665 943 OFFCURVE",
"683 946 OFFCURVE",
"698 946 CURVE SMOOTH",
"727 946 OFFCURVE",
"739 938 OFFCURVE",
"735 917 CURVE",
"729 893 OFFCURVE",
"708 883 OFFCURVE",
"669 883 CURVE",
"659 833 LINE"
);
}
);
width = 826;
}
);
leftKerningGroup = O;
note = Ocircumflexhookabove;
rightKerningGroup = O;
unicode = 1ED4;
},
{
glyphname = Ocircumflextilde;
lastChange = "2015-11-30 00:36:23 +0000";
layers = (
{
layerId = "493B3A41-641C-4718-8E4F-15C1585391FA";
name = "Regular Italic";
paths = (
{
closed = 1;
nodes = (
"582 -15 OFFCURVE",
"758 131 OFFCURVE",
"805 349 CURVE SMOOTH",
"851 568 OFFCURVE",
"713 714 OFFCURVE",
"514 714 CURVE SMOOTH",
"296 714 OFFCURVE",
"115 568 OFFCURVE",
"69 349 CURVE SMOOTH",
"22 131 OFFCURVE",
"165 -15 OFFCURVE",
"359 -15 CURVE SMOOTH"
);
},
{
closed = 1;
nodes = (
"215 77 OFFCURVE",
"136 181 OFFCURVE",
"172 349 CURVE SMOOTH",
"207 515 OFFCURVE",
"345 620 OFFCURVE",
"494 620 CURVE SMOOTH",
"663 620 OFFCURVE",
"737 515 OFFCURVE",
"702 349 CURVE SMOOTH",
"666 181 OFFCURVE",
"526 77 OFFCURVE",
"379 77 CURVE SMOOTH"
);
},
{
closed = 1;
nodes = (
"614 742 OFFCURVE",
"681 798 OFFCURVE",
"698 879 CURVE",
"621 879 LINE",
"612 835 OFFCURVE",
"580 809 OFFCURVE",
"534 809 CURVE SMOOTH",
"489 809 OFFCURVE",
"468 835 OFFCURVE",
"477 879 CURVE",
"406 879 LINE",
"389 798 OFFCURVE",
"432 742 OFFCURVE",
"523 742 CURVE SMOOTH"
);
},
{
closed = 1;
nodes = (
"429 939 OFFCURVE",
"456 950 OFFCURVE",
"487 950 CURVE SMOOTH",
"538 950 OFFCURVE",
"575 907 OFFCURVE",
"634 907 CURVE SMOOTH",
"669 907 OFFCURVE",
"698 916 OFFCURVE",
"721 942 CURVE",
"737 1017 LINE",
"707 984 OFFCURVE",
"678 973 OFFCURVE",
"648 973 CURVE SMOOTH",
"596 973 OFFCURVE",
"556 1017 OFFCURVE",
"501 1017 CURVE SMOOTH",
"466 1017 OFFCURVE",
"436 1007 OFFCURVE",
"413 981 CURVE",
"397 906 LINE"
);
}
);
width = 826;
}
);
leftKerningGroup = O;
note = Ocircumflextilde;
rightKerningGroup = O;
unicode = 1ED6;
},
{
glyphname = Odieresis;
lastChange = "2015-11-30 00:36:23 +0000";
layers = (
{
layerId = "493B3A41-641C-4718-8E4F-15C1585391FA";
name = "Regular Italic";
paths = (
{
closed = 1;
nodes = (
"582 -15 OFFCURVE",
"758 131 OFFCURVE",
"805 349 CURVE SMOOTH",
"851 568 OFFCURVE",
"713 714 OFFCURVE",
"514 714 CURVE SMOOTH",
"296 714 OFFCURVE",
"115 568 OFFCURVE",
"69 349 CURVE SMOOTH",
"22 131 OFFCURVE",
"165 -15 OFFCURVE",
"359 -15 CURVE SMOOTH"
);
},
{
closed = 1;
nodes = (
"215 77 OFFCURVE",
"136 181 OFFCURVE",
"172 349 CURVE SMOOTH",
"207 515 OFFCURVE",
"345 620 OFFCURVE",
"494 620 CURVE SMOOTH",
"663 620 OFFCURVE",
"737 515 OFFCURVE",
"702 349 CURVE SMOOTH",
"666 181 OFFCURVE",
"526 77 OFFCURVE",
"379 77 CURVE SMOOTH"
);
},
{
closed = 1;
nodes = (
"438 741 OFFCURVE",
"469 767 OFFCURVE",
"476 799 CURVE SMOOTH",
"483 831 OFFCURVE",
"463 857 OFFCURVE",
"432 857 CURVE SMOOTH",
"400 857 OFFCURVE",
"368 831 OFFCURVE",
"361 799 CURVE SMOOTH",
"354 767 OFFCURVE",
"376 741 OFFCURVE",
"407 741 CURVE SMOOTH"
);
},
{
closed = 1;
nodes = (
"665 741 OFFCURVE",
"696 767 OFFCURVE",
"703 799 CURVE SMOOTH",
"710 831 OFFCURVE",
"690 857 OFFCURVE",
"659 857 CURVE SMOOTH",
"627 857 OFFCURVE",
"594 831 OFFCURVE",
"587 799 CURVE SMOOTH",
"580 767 OFFCURVE",
"602 741 OFFCURVE",
"634 741 CURVE SMOOTH"
);
}
);
width = 826;
}
);
leftKerningGroup = O;
note = Odieresis;
rightKerningGroup = O;
unicode = 00D6;
},
{
glyphname = Odotbelow;
lastChange = "2015-11-30 00:36:22 +0000";
layers = (
{
layerId = "493B3A41-641C-4718-8E4F-15C1585391FA";
name = "Regular Italic";
paths = (
{
closed = 1;
nodes = (
"582 -15 OFFCURVE",
"758 131 OFFCURVE",
"805 349 CURVE SMOOTH",
"851 568 OFFCURVE",
"713 714 OFFCURVE",
"514 714 CURVE SMOOTH",
"296 714 OFFCURVE",
"115 568 OFFCURVE",
"69 349 CURVE SMOOTH",
"22 131 OFFCURVE",
"165 -15 OFFCURVE",
"359 -15 CURVE SMOOTH"
);
},
{
closed = 1;
nodes = (
"360 -166 OFFCURVE",
"391 -140 OFFCURVE",
"398 -108 CURVE SMOOTH",
"404 -76 OFFCURVE",
"384 -50 OFFCURVE",
"354 -50 CURVE SMOOTH",
"322 -50 OFFCURVE",
"289 -76 OFFCURVE",
"283 -108 CURVE SMOOTH",
"276 -140 OFFCURVE",
"297 -166 OFFCURVE",
"329 -166 CURVE SMOOTH"
);
},
{
closed = 1;
nodes = (
"215 77 OFFCURVE",
"136 181 OFFCURVE",
"172 349 CURVE SMOOTH",
"207 515 OFFCURVE",
"345 620 OFFCURVE",
"494 620 CURVE SMOOTH",
"663 620 OFFCURVE",
"737 515 OFFCURVE",
"702 349 CURVE SMOOTH",
"666 181 OFFCURVE",
"526 77 OFFCURVE",
"379 77 CURVE SMOOTH"
);
}
);
width = 826;
}
);
leftKerningGroup = O;
note = Odotbelow;
rightKerningGroup = O;
unicode = 1ECC;
},
{
glyphname = Ograve;
lastChange = "2015-11-30 00:36:24 +0000";
layers = (
{
layerId = "493B3A41-641C-4718-8E4F-15C1585391FA";
name = "Regular Italic";
paths = (
{
closed = 1;
nodes = (
"582 -15 OFFCURVE",
"758 131 OFFCURVE",
"805 349 CURVE SMOOTH",
"851 568 OFFCURVE",
"713 714 OFFCURVE",
"514 714 CURVE SMOOTH",
"296 714 OFFCURVE",
"115 568 OFFCURVE",
"69 349 CURVE SMOOTH",
"22 131 OFFCURVE",
"165 -15 OFFCURVE",
"359 -15 CURVE SMOOTH"
);
},
{
closed = 1;
nodes = (
"215 77 OFFCURVE",
"136 181 OFFCURVE",
"172 349 CURVE SMOOTH",
"207 515 OFFCURVE",
"345 620 OFFCURVE",
"494 620 CURVE SMOOTH",
"663 620 OFFCURVE",
"737 515 OFFCURVE",
"702 349 CURVE SMOOTH",
"666 181 OFFCURVE",
"526 77 OFFCURVE",
"379 77 CURVE SMOOTH"
);
},
{
closed = 1;
nodes = (
"577 741 LINE",
"545 913 LINE",
"438 913 LINE",
"484 741 LINE"
);
}
);
width = 826;
}
);
leftKerningGroup = O;
note = Ograve;
rightKerningGroup = O;
unicode = 00D2;
},
{
glyphname = Ohookabove;
lastChange = "2015-11-30 00:36:22 +0000";
layers = (
{
layerId = "493B3A41-641C-4718-8E4F-15C1585391FA";
name = "Regular Italic";
paths = (
{
closed = 1;
nodes = (
"582 -15 OFFCURVE",
"758 131 OFFCURVE",
"805 349 CURVE SMOOTH",
"851 568 OFFCURVE",
"713 714 OFFCURVE",
"514 714 CURVE SMOOTH",
"296 714 OFFCURVE",
"115 568 OFFCURVE",
"69 349 CURVE SMOOTH",
"22 131 OFFCURVE",
"165 -15 OFFCURVE",
"359 -15 CURVE SMOOTH"
);
},
{
closed = 1;
nodes = (
"215 77 OFFCURVE",
"136 181 OFFCURVE",
"172 349 CURVE SMOOTH",
"207 515 OFFCURVE",
"345 620 OFFCURVE",
"494 620 CURVE SMOOTH",
"663 620 OFFCURVE",
"737 515 OFFCURVE",
"702 349 CURVE SMOOTH",
"666 181 OFFCURVE",
"526 77 OFFCURVE",
"379 77 CURVE SMOOTH"
);
},
{
closed = 1;
nodes = (
"564 742 LINE",
"571 776 LINE",
"633 784 OFFCURVE",
"673 822 OFFCURVE",
"683 870 CURVE SMOOTH",
"695 927 OFFCURVE",
"661 967 OFFCURVE",
"573 967 CURVE SMOOTH",
"541 967 OFFCURVE",
"504 961 OFFCURVE",
"483 954 CURVE",
"471 899 LINE",
"485 905 OFFCURVE",
"521 910 OFFCURVE",
"537 910 CURVE SMOOTH",
"583 910 OFFCURVE",
"600 897 OFFCURVE",
"593 866 CURVE SMOOTH",
"585 827 OFFCURVE",
"550 813 OFFCURVE",
"490 813 CURVE",
"475 742 LINE"
);
}
);
width = 826;
}
);
leftKerningGroup = O;
note = Ohookabove;
rightKerningGroup = O;
unicode = 1ECE;
},
{
glyphname = Ohorn;
lastChange = "2015-11-30 00:36:22 +0000";
layers = (
{
layerId = "493B3A41-641C-4718-8E4F-15C1585391FA";
name = "Regular Italic";
paths = (
{
closed = 1;
nodes = (
"582 -15 OFFCURVE",
"759 131 OFFCURVE",
"805 349 CURVE SMOOTH",
"821 425 OFFCURVE",
"815 493 OFFCURVE",
"791 549 CURVE",
"869 568 OFFCURVE",
"929 631 OFFCURVE",
"945 706 CURVE SMOOTH",
"953 747 LINE",
"859 747 LINE",
"852 711 LINE SMOOTH",
"839 651 OFFCURVE",
"808 624 OFFCURVE",
"742 624 CURVE",
"688 681 OFFCURVE",
"608 714 OFFCURVE",
"514 714 CURVE SMOOTH",
"296 714 OFFCURVE",
"116 568 OFFCURVE",
"69 349 CURVE SMOOTH",
"23 131 OFFCURVE",
"165 -15 OFFCURVE",
"359 -15 CURVE SMOOTH"
);
},
{
closed = 1;
nodes = (
"215 77 OFFCURVE",
"136 181 OFFCURVE",
"172 349 CURVE SMOOTH",
"207 515 OFFCURVE",
"345 620 OFFCURVE",
"494 620 CURVE SMOOTH",
"663 620 OFFCURVE",
"737 515 OFFCURVE",
"702 349 CURVE SMOOTH",
"666 181 OFFCURVE",
"526 77 OFFCURVE",
"379 77 CURVE SMOOTH"
);
}
);
width = 862;
}
);
leftKerningGroup = O;
note = Ohorn;
rightKerningGroup = O;
unicode = 01A0;
},
{
glyphname = Ohornacute;
lastChange = "2015-11-30 00:36:23 +0000";
layers = (
{
layerId = "493B3A41-641C-4718-8E4F-15C1585391FA";
name = "Regular Italic";
paths = (
{
closed = 1;
nodes = (
"582 -15 OFFCURVE",
"759 131 OFFCURVE",
"805 349 CURVE SMOOTH",
"821 425 OFFCURVE",
"815 493 OFFCURVE",
"791 549 CURVE",
"869 568 OFFCURVE",
"929 631 OFFCURVE",
"945 706 CURVE SMOOTH",
"953 747 LINE",
"859 747 LINE",
"852 711 LINE SMOOTH",
"839 651 OFFCURVE",
"808 624 OFFCURVE",
"742 624 CURVE",
"688 681 OFFCURVE",
"608 714 OFFCURVE",
"514 714 CURVE SMOOTH",
"296 714 OFFCURVE",
"116 568 OFFCURVE",
"69 349 CURVE SMOOTH",
"23 131 OFFCURVE",
"165 -15 OFFCURVE",
"359 -15 CURVE SMOOTH"
);
},
{
closed = 1;
nodes = (
"215 77 OFFCURVE",
"136 181 OFFCURVE",
"172 349 CURVE SMOOTH",
"207 515 OFFCURVE",
"345 620 OFFCURVE",
"494 620 CURVE SMOOTH",
"663 620 OFFCURVE",
"737 515 OFFCURVE",
"702 349 CURVE SMOOTH",
"666 181 OFFCURVE",
"526 77 OFFCURVE",
"379 77 CURVE SMOOTH"
);
},
{
closed = 1;
nodes = (
"570 741 LINE",
"690 913 LINE",
"583 913 LINE",
"478 741 LINE"
);
}
);
width = 865;
}
);
leftKerningGroup = O;
note = Ohornacute;
rightKerningGroup = O;
unicode = 1EDA;
},
{
glyphname = Ohorndotbelow;
lastChange = "2015-11-30 00:36:23 +0000";
layers = (
{
layerId = "493B3A41-641C-4718-8E4F-15C1585391FA";
name = "Regular Italic";
paths = (
{
closed = 1;
nodes = (
"582 -15 OFFCURVE",
"759 131 OFFCURVE",
"805 349 CURVE SMOOTH",
"821 425 OFFCURVE",
"815 493 OFFCURVE",
"791 549 CURVE",
"869 568 OFFCURVE",
"929 631 OFFCURVE",
"945 706 CURVE SMOOTH",
"953 747 LINE",
"859 747 LINE",
"852 711 LINE SMOOTH",
"839 651 OFFCURVE",
"808 624 OFFCURVE",
"742 624 CURVE",
"688 681 OFFCURVE",
"608 714 OFFCURVE",
"514 714 CURVE SMOOTH",
"296 714 OFFCURVE",
"116 568 OFFCURVE",
"69 349 CURVE SMOOTH",
"23 131 OFFCURVE",
"165 -15 OFFCURVE",
"359 -15 CURVE SMOOTH"
);
},
{
closed = 1;
nodes = (
"357 -166 OFFCURVE",
"388 -140 OFFCURVE",
"395 -108 CURVE SMOOTH",
"401 -76 OFFCURVE",
"381 -50 OFFCURVE",
"351 -50 CURVE SMOOTH",
"319 -50 OFFCURVE",
"286 -76 OFFCURVE",
"280 -108 CURVE SMOOTH",
"273 -140 OFFCURVE",
"294 -166 OFFCURVE",
"326 -166 CURVE SMOOTH"
);
},
{
closed = 1;
nodes = (
"215 77 OFFCURVE",
"136 181 OFFCURVE",
"172 349 CURVE SMOOTH",
"207 515 OFFCURVE",
"345 620 OFFCURVE",
"494 620 CURVE SMOOTH",
"663 620 OFFCURVE",
"737 515 OFFCURVE",
"702 349 CURVE SMOOTH",
"666 181 OFFCURVE",
"526 77 OFFCURVE",
"379 77 CURVE SMOOTH"
);
}
);
width = 865;
}
);
leftKerningGroup = O;
note = Ohorndotbelow;
rightKerningGroup = O;
unicode = 1EE2;
},
{
glyphname = Ohorngrave;
lastChange = "2015-11-30 00:36:23 +0000";
layers = (
{
layerId = "493B3A41-641C-4718-8E4F-15C1585391FA";
name = "Regular Italic";
paths = (
{
closed = 1;
nodes = (
"582 -15 OFFCURVE",
"759 131 OFFCURVE",
"805 349 CURVE SMOOTH",
"821 425 OFFCURVE",
"815 493 OFFCURVE",
"791 549 CURVE",
"869 568 OFFCURVE",
"929 631 OFFCURVE",
"945 706 CURVE SMOOTH",
"953 747 LINE",
"859 747 LINE",
"852 711 LINE SMOOTH",
"839 651 OFFCURVE",
"808 624 OFFCURVE",
"742 624 CURVE",
"688 681 OFFCURVE",
"608 714 OFFCURVE",
"514 714 CURVE SMOOTH",
"296 714 OFFCURVE",
"116 568 OFFCURVE",
"69 349 CURVE SMOOTH",
"23 131 OFFCURVE",
"165 -15 OFFCURVE",
"359 -15 CURVE SMOOTH"
);
},
{
closed = 1;
nodes = (
"215 77 OFFCURVE",
"136 181 OFFCURVE",
"172 349 CURVE SMOOTH",
"207 515 OFFCURVE",
"345 620 OFFCURVE",
"494 620 CURVE SMOOTH",
"663 620 OFFCURVE",
"737 515 OFFCURVE",
"702 349 CURVE SMOOTH",
"666 181 OFFCURVE",
"526 77 OFFCURVE",
"379 77 CURVE SMOOTH"
);
},
{
closed = 1;
nodes = (
"562 741 LINE",
"530 913 LINE",
"423 913 LINE",
"469 741 LINE"
);
}
);
width = 865;
}
);
leftKerningGroup = O;
note = Ohorngrave;
rightKerningGroup = O;
unicode = 1EDC;
},
{
glyphname = Ohornhookabove;
lastChange = "2015-11-30 00:36:22 +0000";
layers = (
{
layerId = "493B3A41-641C-4718-8E4F-15C1585391FA";
name = "Regular Italic";
paths = (
{
closed = 1;
nodes = (
"582 -15 OFFCURVE",
"759 131 OFFCURVE",
"805 349 CURVE SMOOTH",
"821 425 OFFCURVE",
"815 493 OFFCURVE",
"791 549 CURVE",
"869 568 OFFCURVE",
"929 631 OFFCURVE",
"945 706 CURVE SMOOTH",
"953 747 LINE",
"859 747 LINE",
"852 711 LINE SMOOTH",
"839 651 OFFCURVE",
"808 624 OFFCURVE",
"742 624 CURVE",
"688 681 OFFCURVE",
"608 714 OFFCURVE",
"514 714 CURVE SMOOTH",
"296 714 OFFCURVE",
"116 568 OFFCURVE",
"69 349 CURVE SMOOTH",
"23 131 OFFCURVE",
"165 -15 OFFCURVE",
"359 -15 CURVE SMOOTH"
);
},
{
closed = 1;
nodes = (
"215 77 OFFCURVE",
"136 181 OFFCURVE",
"172 349 CURVE SMOOTH",
"207 515 OFFCURVE",
"345 620 OFFCURVE",
"494 620 CURVE SMOOTH",
"663 620 OFFCURVE",
"737 515 OFFCURVE",
"702 349 CURVE SMOOTH",
"666 181 OFFCURVE",
"526 77 OFFCURVE",
"379 77 CURVE SMOOTH"
);
},
{
closed = 1;
nodes = (
"566 742 LINE",
"573 776 LINE",
"635 784 OFFCURVE",
"675 822 OFFCURVE",
"685 870 CURVE SMOOTH",
"697 927 OFFCURVE",
"663 967 OFFCURVE",
"575 967 CURVE SMOOTH",
"543 967 OFFCURVE",
"506 961 OFFCURVE",
"485 954 CURVE",
"473 899 LINE",
"487 905 OFFCURVE",
"523 910 OFFCURVE",
"539 910 CURVE SMOOTH",
"585 910 OFFCURVE",
"602 897 OFFCURVE",
"595 866 CURVE SMOOTH",
"587 827 OFFCURVE",
"552 813 OFFCURVE",
"492 813 CURVE",
"477 742 LINE"
);
}
);
width = 865;
}
);
leftKerningGroup = O;
note = Ohornhookabove;
rightKerningGroup = O;
unicode = 1EDE;
},
{
glyphname = Ohorntilde;
lastChange = "2015-11-30 00:36:24 +0000";
layers = (
{
layerId = "493B3A41-641C-4718-8E4F-15C1585391FA";
name = "Regular Italic";
paths = (
{
closed = 1;
nodes = (
"582 -15 OFFCURVE",
"759 131 OFFCURVE",
"805 349 CURVE SMOOTH",
"821 425 OFFCURVE",
"815 493 OFFCURVE",
"791 549 CURVE",
"869 568 OFFCURVE",
"929 631 OFFCURVE",
"945 706 CURVE SMOOTH",
"953 747 LINE",
"859 747 LINE",
"852 711 LINE SMOOTH",
"839 651 OFFCURVE",
"808 624 OFFCURVE",
"742 624 CURVE",
"688 681 OFFCURVE",
"608 714 OFFCURVE",
"514 714 CURVE SMOOTH",
"296 714 OFFCURVE",
"116 568 OFFCURVE",
"69 349 CURVE SMOOTH",
"23 131 OFFCURVE",
"165 -15 OFFCURVE",
"359 -15 CURVE SMOOTH"
);
},
{
closed = 1;
nodes = (
"215 77 OFFCURVE",
"136 181 OFFCURVE",
"172 349 CURVE SMOOTH",
"207 515 OFFCURVE",
"345 620 OFFCURVE",
"494 620 CURVE SMOOTH",
"663 620 OFFCURVE",
"737 515 OFFCURVE",
"702 349 CURVE SMOOTH",
"666 181 OFFCURVE",
"526 77 OFFCURVE",
"379 77 CURVE SMOOTH"
);
},
{
closed = 1;
nodes = (
"387 782 OFFCURVE",
"422 794 OFFCURVE",
"458 794 CURVE SMOOTH",
"522 794 OFFCURVE",
"559 744 OFFCURVE",
"632 744 CURVE SMOOTH",
"673 744 OFFCURVE",
"710 755 OFFCURVE",
"737 786 CURVE",
"755 872 LINE",
"720 833 OFFCURVE",
"686 821 OFFCURVE",
"649 821 CURVE SMOOTH",
"584 821 OFFCURVE",
"542 871 OFFCURVE",
"474 871 CURVE SMOOTH",
"434 871 OFFCURVE",
"396 859 OFFCURVE",
"367 828 CURVE",
"349 742 LINE"
);
}
);
width = 865;
}
);
leftKerningGroup = O;
note = Ohorntilde;
rightKerningGroup = O;
unicode = 1EE0;
},
{
glyphname = Ohungarumlaut;
lastChange = "2015-11-30 00:36:23 +0000";
layers = (
{
layerId = "493B3A41-641C-4718-8E4F-15C1585391FA";
name = "Regular Italic";
paths = (
{
closed = 1;
nodes = (
"582 -15 OFFCURVE",
"758 131 OFFCURVE",
"805 349 CURVE SMOOTH",
"851 568 OFFCURVE",
"713 714 OFFCURVE",
"514 714 CURVE SMOOTH",
"296 714 OFFCURVE",
"115 568 OFFCURVE",
"69 349 CURVE SMOOTH",
"22 131 OFFCURVE",
"165 -15 OFFCURVE",
"359 -15 CURVE SMOOTH"
);
},
{
closed = 1;
nodes = (
"215 77 OFFCURVE",
"136 181 OFFCURVE",
"172 349 CURVE SMOOTH",
"207 515 OFFCURVE",
"345 620 OFFCURVE",
"494 620 CURVE SMOOTH",
"663 620 OFFCURVE",
"737 515 OFFCURVE",
"702 349 CURVE SMOOTH",
"666 181 OFFCURVE",
"526 77 OFFCURVE",
"379 77 CURVE SMOOTH"
);
},
{
closed = 1;
nodes = (
"449 741 LINE",
"569 913 LINE",
"467 913 LINE",
"363 741 LINE"
);
},
{
closed = 1;
nodes = (
"656 741 LINE",
"776 913 LINE",
"674 913 LINE",
"568 741 LINE"
);
}
);
width = 826;
}
);
leftKerningGroup = O;
note = Ohungarumlaut;
rightKerningGroup = O;
unicode = 0150;
},
{
glyphname = Omacron;
lastChange = "2015-11-30 00:36:24 +0000";
layers = (
{
layerId = "493B3A41-641C-4718-8E4F-15C1585391FA";
name = "Regular Italic";
paths = (
{
closed = 1;
nodes = (
"582 -15 OFFCURVE",
"758 131 OFFCURVE",
"805 349 CURVE SMOOTH",
"851 568 OFFCURVE",
"713 714 OFFCURVE",
"514 714 CURVE SMOOTH",
"296 714 OFFCURVE",
"115 568 OFFCURVE",
"69 349 CURVE SMOOTH",
"22 131 OFFCURVE",
"165 -15 OFFCURVE",
"359 -15 CURVE SMOOTH"
);
},
{
closed = 1;
nodes = (
"215 77 OFFCURVE",
"136 181 OFFCURVE",
"172 349 CURVE SMOOTH",
"207 515 OFFCURVE",
"345 620 OFFCURVE",
"494 620 CURVE SMOOTH",
"663 620 OFFCURVE",
"737 515 OFFCURVE",
"702 349 CURVE SMOOTH",
"666 181 OFFCURVE",
"526 77 OFFCURVE",
"379 77 CURVE SMOOTH"
);
},
{
closed = 1;
nodes = (
"680 762 LINE",
"695 831 LINE",
"384 831 LINE",
"369 762 LINE"
);
}
);
width = 826;
}
);
leftKerningGroup = O;
note = Omacron;
rightKerningGroup = O;
unicode = 014C;
},
{
glyphname = Oslash;
lastChange = "2015-11-30 00:36:23 +0000";
layers = (
{
layerId = "493B3A41-641C-4718-8E4F-15C1585391FA";
name = "Regular Italic";
paths = (
{
closed = 1;
nodes = (
"222 -86 LINE",
"272 -5 LINE",
"299 -11 OFFCURVE",
"328 -15 OFFCURVE",
"359 -15 CURVE SMOOTH",
"582 -15 OFFCURVE",
"758 131 OFFCURVE",
"805 349 CURVE SMOOTH",
"836 496 OFFCURVE",
"785 610 OFFCURVE",
"686 669 CURVE",
"757 784 LINE",
"657 784 LINE",
"607 702 LINE",
"578 710 OFFCURVE",
"547 714 OFFCURVE",
"514 714 CURVE SMOOTH",
"296 714 OFFCURVE",
"115 568 OFFCURVE",
"69 349 CURVE SMOOTH",
"37 200 OFFCURVE",
"91 85 OFFCURVE",
"191 27 CURVE",
"122 -86 LINE"
);
},
{
closed = 1;
nodes = (
"167 149 OFFCURVE",
"147 234 OFFCURVE",
"172 349 CURVE SMOOTH",
"207 515 OFFCURVE",
"345 620 OFFCURVE",
"494 620 CURVE SMOOTH",
"515 620 OFFCURVE",
"535 618 OFFCURVE",
"553 616 CURVE",
"240 107 LINE"
);
},
{
closed = 1;
nodes = (
"359 77 OFFCURVE",
"341 78 OFFCURVE",
"324 80 CURVE",
"636 588 LINE",
"707 545 OFFCURVE",
"725 461 OFFCURVE",
"702 349 CURVE SMOOTH",
"666 181 OFFCURVE",
"526 77 OFFCURVE",
"379 77 CURVE SMOOTH"
);
}
);
width = 826;
}
);
leftKerningGroup = O;
note = Oslash;
rightKerningGroup = O;
unicode = 00D8;
},
{
glyphname = Oslashacute;
lastChange = "2015-11-30 00:36:23 +0000";
layers = (
{
layerId = "493B3A41-641C-4718-8E4F-15C1585391FA";
name = "Regular Italic";
paths = (
{
closed = 1;
nodes = (
"222 -86 LINE",
"272 -5 LINE",
"299 -11 OFFCURVE",
"328 -15 OFFCURVE",
"359 -15 CURVE SMOOTH",
"582 -15 OFFCURVE",
"758 131 OFFCURVE",
"805 349 CURVE SMOOTH",
"836 496 OFFCURVE",
"785 610 OFFCURVE",
"686 669 CURVE",
"757 784 LINE",
"657 784 LINE",
"607 702 LINE",
"578 710 OFFCURVE",
"547 714 OFFCURVE",
"514 714 CURVE SMOOTH",
"296 714 OFFCURVE",
"115 568 OFFCURVE",
"69 349 CURVE SMOOTH",
"37 200 OFFCURVE",
"91 85 OFFCURVE",
"191 27 CURVE",
"122 -86 LINE"
);
},
{
closed = 1;
nodes = (
"167 149 OFFCURVE",
"147 234 OFFCURVE",
"172 349 CURVE SMOOTH",
"207 515 OFFCURVE",
"345 620 OFFCURVE",
"494 620 CURVE SMOOTH",
"515 620 OFFCURVE",
"535 618 OFFCURVE",
"553 616 CURVE",
"240 107 LINE"
);
},
{
closed = 1;
nodes = (
"359 77 OFFCURVE",
"341 78 OFFCURVE",
"324 80 CURVE",
"636 588 LINE",
"707 545 OFFCURVE",
"725 461 OFFCURVE",
"702 349 CURVE SMOOTH",
"666 181 OFFCURVE",
"526 77 OFFCURVE",
"379 77 CURVE SMOOTH"
);
},
{
closed = 1;
nodes = (
"563 748 LINE",
"683 920 LINE",
"576 920 LINE",
"470 748 LINE"
);
}
);
width = 826;
}
);
leftKerningGroup = O;
note = Oslashacute;
rightKerningGroup = O;
unicode = 01FE;
},
{
glyphname = Otilde;
lastChange = "2015-11-30 00:36:21 +0000";
layers = (
{
layerId = "493B3A41-641C-4718-8E4F-15C1585391FA";
name = "Regular Italic";
paths = (
{
closed = 1;
nodes = (
"582 -15 OFFCURVE",
"758 131 OFFCURVE",
"805 349 CURVE SMOOTH",
"851 568 OFFCURVE",
"713 714 OFFCURVE",
"514 714 CURVE SMOOTH",
"296 714 OFFCURVE",
"115 568 OFFCURVE",
"69 349 CURVE SMOOTH",
"22 131 OFFCURVE",
"165 -15 OFFCURVE",
"359 -15 CURVE SMOOTH"
);
},
{
closed = 1;
nodes = (
"215 77 OFFCURVE",
"136 181 OFFCURVE",
"172 349 CURVE SMOOTH",
"207 515 OFFCURVE",
"345 620 OFFCURVE",
"494 620 CURVE SMOOTH",
"663 620 OFFCURVE",
"737 515 OFFCURVE",
"702 349 CURVE SMOOTH",
"666 181 OFFCURVE",
"526 77 OFFCURVE",
"379 77 CURVE SMOOTH"
);
},
{
closed = 1;
nodes = (
"369 782 OFFCURVE",
"404 794 OFFCURVE",
"440 794 CURVE SMOOTH",
"504 794 OFFCURVE",
"541 744 OFFCURVE",
"614 744 CURVE SMOOTH",
"655 744 OFFCURVE",
"692 755 OFFCURVE",
"719 786 CURVE",
"737 872 LINE",
"702 833 OFFCURVE",
"668 821 OFFCURVE",
"631 821 CURVE SMOOTH",
"566 821 OFFCURVE",
"524 871 OFFCURVE",
"456 871 CURVE SMOOTH",
"416 871 OFFCURVE",
"378 859 OFFCURVE",
"349 828 CURVE",
"331 742 LINE"
);
}
);
width = 826;
}
);
leftKerningGroup = O;
note = Otilde;
rightKerningGroup = O;
unicode = 00D5;
},
{
glyphname = OE;
lastChange = "2015-11-30 00:36:21 +0000";
layers = (
{
layerId = "493B3A41-641C-4718-8E4F-15C1585391FA";
name = "Regular Italic";
paths = (
{
closed = 1;
nodes = (
"796 0 LINE",
"814 85 LINE",
"505 85 LINE",
"552 307 LINE",
"771 307 LINE",
"789 392 LINE",
"570 392 LINE",
"617 613 LINE",
"926 613 LINE",
"944 699 LINE",
"520 699 LINE SMOOTH",
"296 699 OFFCURVE",
"115 568 OFFCURVE",
"69 349 CURVE SMOOTH",
"22 131 OFFCURVE",
"164 0 OFFCURVE",
"372 0 CURVE SMOOTH"
);
},
{
closed = 1;
nodes = (
"206 85 OFFCURVE",
"136 182 OFFCURVE",
"172 349 CURVE SMOOTH",
"207 515 OFFCURVE",
"352 613 OFFCURVE",
"495 613 CURVE SMOOTH",
"515 613 LINE",
"403 85 LINE",
"383 85 LINE SMOOTH"
);
}
);
width = 891;
}
);
leftKerningGroup = O;
note = OE;
rightKerningGroup = E;
unicode = 0152;
},
{
glyphname = P;
lastChange = "2015-11-30 00:36:23 +0000";
layers = (
{
layerId = "493B3A41-641C-4718-8E4F-15C1585391FA";
name = "Regular Italic";
paths = (
{
closed = 1;
nodes = (
"117 0 LINE",
"173 267 LINE",
"340 267 LINE SMOOTH",
"488 267 OFFCURVE",
"601 337 OFFCURVE",
"630 482 CURVE SMOOTH",
"657 618 OFFCURVE",
"571 699 OFFCURVE",
"432 699 CURVE SMOOTH",
"163 699 LINE",
"15 0 LINE"
);
},
{
closed = 1;
nodes = (
"247 613 LINE",
"403 613 LINE SMOOTH",
"506 613 OFFCURVE",
"549 586 OFFCURVE",
"527 482 CURVE SMOOTH",
"505 379 OFFCURVE",
"430 352 OFFCURVE",
"347 352 CURVE SMOOTH",
"191 352 LINE"
);
}
);
width = 603;
}
);
note = P;
unicode = 0050;
},
{
glyphname = Thorn;
lastChange = "2015-11-30 00:36:22 +0000";
layers = (
{
layerId = "493B3A41-641C-4718-8E4F-15C1585391FA";
name = "Regular Italic";
paths = (
{
closed = 1;
nodes = (
"117 0 LINE",
"146 141 LINE",
"319 141 LINE SMOOTH",
"473 141 OFFCURVE",
"574 204 OFFCURVE",
"602 350 CURVE SMOOTH",
"629 488 OFFCURVE",
"550 561 OFFCURVE",
"409 561 CURVE SMOOTH",
"236 561 LINE",
"265 699 LINE",
"163 699 LINE",
"15 0 LINE"
);
},
{
closed = 1;
nodes = (
"217 475 LINE",
"373 475 LINE SMOOTH",
"468 475 OFFCURVE",
"521 454 OFFCURVE",
"499 350 CURVE SMOOTH",
"477 247 OFFCURVE",
"404 226 OFFCURVE",
"321 226 CURVE SMOOTH",
"165 226 LINE"
);
}
);
width = 603;
}
);
note = Thorn;
unicode = 00DE;
},
{
glyphname = Q;
lastChange = "2015-11-30 00:36:22 +0000";
layers = (
{
layerId = "493B3A41-641C-4718-8E4F-15C1585391FA";
name = "Regular Italic";
paths = (
{
closed = 1;
nodes = (
"742 0 LINE",
"760 88 LINE",
"609 88 LINE",
"703 137 OFFCURVE",
"781 236 OFFCURVE",
"805 351 CURVE SMOOTH",
"852 570 OFFCURVE",
"722 714 OFFCURVE",
"514 714 CURVE SMOOTH",
"296 714 OFFCURVE",
"116 570 OFFCURVE",
"69 351 CURVE SMOOTH",
"24 137 OFFCURVE",
"150 0 OFFCURVE",
"381 0 CURVE SMOOTH"
);
},
{
closed = 1;
nodes = (
"210 93 OFFCURVE",
"137 184 OFFCURVE",
"172 351 CURVE SMOOTH",
"207 516 OFFCURVE",
"346 620 OFFCURVE",
"494 620 CURVE SMOOTH",
"670 620 OFFCURVE",
"736 516 OFFCURVE",
"701 351 CURVE SMOOTH",
"666 185 OFFCURVE",
"535 93 OFFCURVE",
"382 93 CURVE SMOOTH"
);
}
);
width = 817;
}
);
leftKerningGroup = O;
note = Q;
rightKerningGroup = O;
unicode = 0051;
},
{
glyphname = R;
lastChange = "2015-11-30 00:36:23 +0000";
layers = (
{
layerId = "493B3A41-641C-4718-8E4F-15C1585391FA";
name = "Regular Italic";
paths = (
{
closed = 1;
nodes = (
"117 0 LINE",
"175 276 LINE",
"328 276 LINE",
"419 0 LINE",
"525 0 LINE",
"431 284 LINE",
"543 309 OFFCURVE",
"609 385 OFFCURVE",
"631 487 CURVE SMOOTH",
"659 618 OFFCURVE",
"585 699 OFFCURVE",
"444 699 CURVE SMOOTH",
"163 699 LINE",
"15 0 LINE"
);
},
{
closed = 1;
nodes = (
"247 613 LINE",
"417 613 LINE SMOOTH",
"508 613 OFFCURVE",
"549 584 OFFCURVE",
"528 487 CURVE SMOOTH",
"510 402 OFFCURVE",
"441 362 OFFCURVE",
"355 362 CURVE SMOOTH",
"193 362 LINE"
);
}
);
width = 623;
}
);
note = R;
rightKerningGroup = R;
unicode = 0052;
},
{
glyphname = Racute;
lastChange = "2015-11-30 00:36:24 +0000";
layers = (
{
layerId = "493B3A41-641C-4718-8E4F-15C1585391FA";
name = "Regular Italic";
paths = (
{
closed = 1;
nodes = (
"117 0 LINE",
"175 276 LINE",
"328 276 LINE",
"419 0 LINE",
"525 0 LINE",
"431 284 LINE",
"543 309 OFFCURVE",
"609 385 OFFCURVE",
"631 487 CURVE SMOOTH",
"659 618 OFFCURVE",
"585 699 OFFCURVE",
"444 699 CURVE SMOOTH",
"163 699 LINE",
"15 0 LINE"
);
},
{
closed = 1;
nodes = (
"247 613 LINE",
"417 613 LINE SMOOTH",
"508 613 OFFCURVE",
"549 584 OFFCURVE",
"528 487 CURVE SMOOTH",
"510 402 OFFCURVE",
"441 362 OFFCURVE",
"355 362 CURVE SMOOTH",
"193 362 LINE"
);
},
{
closed = 1;
nodes = (
"426 741 LINE",
"546 913 LINE",
"439 913 LINE",
"334 741 LINE"
);
}
);
width = 623;
}
);
note = Racute;
rightKerningGroup = R;
unicode = 0154;
},
{
glyphname = Rcaron;
lastChange = "2015-11-30 00:36:22 +0000";
layers = (
{
layerId = "493B3A41-641C-4718-8E4F-15C1585391FA";
name = "Regular Italic";
paths = (
{
closed = 1;
nodes = (
"117 0 LINE",
"175 276 LINE",
"328 276 LINE",
"419 0 LINE",
"525 0 LINE",
"431 284 LINE",
"543 309 OFFCURVE",
"609 385 OFFCURVE",
"631 487 CURVE SMOOTH",
"659 618 OFFCURVE",
"585 699 OFFCURVE",
"444 699 CURVE SMOOTH",
"163 699 LINE",
"15 0 LINE"
);
},
{
closed = 1;
nodes = (
"247 613 LINE",
"417 613 LINE SMOOTH",
"508 613 OFFCURVE",
"549 584 OFFCURVE",
"528 487 CURVE SMOOTH",
"510 402 OFFCURVE",
"441 362 OFFCURVE",
"355 362 CURVE SMOOTH",
"193 362 LINE"
);
},
{
closed = 1;
nodes = (
"428 742 LINE",
"606 908 LINE",
"501 908 LINE",
"394 801 LINE",
"333 908 LINE",
"234 908 LINE",
"339 742 LINE"
);
}
);
width = 623;
}
);
note = Rcaron;
rightKerningGroup = R;
unicode = 0158;
},
{
glyphname = Rcommaaccent;
lastChange = "2015-11-30 00:36:21 +0000";
layers = (
{
layerId = "493B3A41-641C-4718-8E4F-15C1585391FA";
name = "Regular Italic";
paths = (
{
closed = 1;
nodes = (
"117 0 LINE",
"175 276 LINE",
"328 276 LINE",
"419 0 LINE",
"525 0 LINE",
"431 284 LINE",
"543 309 OFFCURVE",
"609 385 OFFCURVE",
"631 487 CURVE SMOOTH",
"659 618 OFFCURVE",
"585 699 OFFCURVE",
"444 699 CURVE SMOOTH",
"163 699 LINE",
"15 0 LINE"
);
},
{
closed = 1;
nodes = (
"155 -260 LINE",
"293 -60 LINE",
"187 -60 LINE",
"64 -260 LINE"
);
},
{
closed = 1;
nodes = (
"247 613 LINE",
"417 613 LINE SMOOTH",
"508 613 OFFCURVE",
"549 584 OFFCURVE",
"528 487 CURVE SMOOTH",
"510 402 OFFCURVE",
"441 362 OFFCURVE",
"355 362 CURVE SMOOTH",
"193 362 LINE"
);
}
);
width = 623;
}
);
note = Rcommaaccent;
rightKerningGroup = R;
unicode = 0156;
},
{
glyphname = Rdotbelow;
lastChange = "2015-11-30 00:36:22 +0000";
layers = (
{
layerId = "493B3A41-641C-4718-8E4F-15C1585391FA";
name = "Regular Italic";
paths = (
{
closed = 1;
nodes = (
"117 0 LINE",
"175 276 LINE",
"328 276 LINE",
"419 0 LINE",
"525 0 LINE",
"431 284 LINE",
"543 309 OFFCURVE",
"609 385 OFFCURVE",
"631 487 CURVE SMOOTH",
"659 618 OFFCURVE",
"585 699 OFFCURVE",
"444 699 CURVE SMOOTH",
"163 699 LINE",
"15 0 LINE"
);
},
{
closed = 1;
nodes = (
"247 -166 OFFCURVE",
"278 -140 OFFCURVE",
"285 -108 CURVE SMOOTH",
"291 -76 OFFCURVE",
"271 -50 OFFCURVE",
"241 -50 CURVE SMOOTH",
"209 -50 OFFCURVE",
"176 -76 OFFCURVE",
"170 -108 CURVE SMOOTH",
"163 -140 OFFCURVE",
"184 -166 OFFCURVE",
"216 -166 CURVE SMOOTH"
);
},
{
closed = 1;
nodes = (
"247 613 LINE",
"417 613 LINE SMOOTH",
"508 613 OFFCURVE",
"549 584 OFFCURVE",
"528 487 CURVE SMOOTH",
"510 402 OFFCURVE",
"441 362 OFFCURVE",
"355 362 CURVE SMOOTH",
"193 362 LINE"
);
}
);
width = 623;
}
);
note = Rdotbelow;
rightKerningGroup = R;
unicode = 1E5A;
},
{
glyphname = Rdotbelowmacron;
lastChange = "2015-11-30 00:36:23 +0000";
layers = (
{
layerId = "493B3A41-641C-4718-8E4F-15C1585391FA";
name = "Regular Italic";
paths = (
{
closed = 1;
nodes = (
"117 0 LINE",
"175 276 LINE",
"328 276 LINE",
"419 0 LINE",
"525 0 LINE",
"431 284 LINE",
"543 309 OFFCURVE",
"609 385 OFFCURVE",
"631 487 CURVE SMOOTH",
"659 618 OFFCURVE",
"585 699 OFFCURVE",
"444 699 CURVE SMOOTH",
"163 699 LINE",
"15 0 LINE"
);
},
{
closed = 1;
nodes = (
"226 -166 OFFCURVE",
"257 -140 OFFCURVE",
"264 -108 CURVE SMOOTH",
"270 -76 OFFCURVE",
"250 -50 OFFCURVE",
"220 -50 CURVE SMOOTH",
"188 -50 OFFCURVE",
"155 -76 OFFCURVE",
"149 -108 CURVE SMOOTH",
"142 -140 OFFCURVE",
"163 -166 OFFCURVE",
"195 -166 CURVE SMOOTH"
);
},
{
closed = 1;
nodes = (
"247 613 LINE",
"417 613 LINE SMOOTH",
"508 613 OFFCURVE",
"549 584 OFFCURVE",
"528 487 CURVE SMOOTH",
"510 402 OFFCURVE",
"441 362 OFFCURVE",
"355 362 CURVE SMOOTH",
"193 362 LINE"
);
},
{
closed = 1;
nodes = (
"549 774 LINE",
"564 843 LINE",
"253 843 LINE",
"238 774 LINE"
);
}
);
width = 623;
}
);
note = Rdotbelowmacron;
rightKerningGroup = R;
unicode = 1E5C;
},
{
glyphname = Rlinebelow;
lastChange = "2015-11-30 00:36:22 +0000";
layers = (
{
layerId = "493B3A41-641C-4718-8E4F-15C1585391FA";
name = "Regular Italic";
paths = (
{
closed = 1;
nodes = (
"117 0 LINE",
"175 276 LINE",
"328 276 LINE",
"419 0 LINE",
"525 0 LINE",
"431 284 LINE",
"543 309 OFFCURVE",
"609 385 OFFCURVE",
"631 487 CURVE SMOOTH",
"659 618 OFFCURVE",
"585 699 OFFCURVE",
"444 699 CURVE SMOOTH",
"163 699 LINE",
"15 0 LINE"
);
},
{
closed = 1;
nodes = (
"372 -141 LINE",
"386 -71 LINE",
"73 -71 LINE",
"59 -141 LINE"
);
},
{
closed = 1;
nodes = (
"247 613 LINE",
"417 613 LINE SMOOTH",
"508 613 OFFCURVE",
"549 584 OFFCURVE",
"528 487 CURVE SMOOTH",
"510 402 OFFCURVE",
"441 362 OFFCURVE",
"355 362 CURVE SMOOTH",
"193 362 LINE"
);
}
);
width = 623;
}
);
note = Rlinebelow;
rightKerningGroup = R;
unicode = 1E5E;
},
{
glyphname = S;
lastChange = "2015-11-30 00:36:23 +0000";
layers = (
{
layerId = "493B3A41-641C-4718-8E4F-15C1585391FA";
name = "Regular Italic";
paths = (
{
closed = 1;
nodes = (
"385 -15 OFFCURVE",
"478 57 OFFCURVE",
"503 176 CURVE SMOOTH",
"528 292 OFFCURVE",
"470 336 OFFCURVE",
"352 388 CURVE SMOOTH",
"249 434 OFFCURVE",
"205 459 OFFCURVE",
"220 527 CURVE SMOOTH",
"233 590 OFFCURVE",
"292 627 OFFCURVE",
"389 627 CURVE SMOOTH",
"451 627 OFFCURVE",
"504 614 OFFCURVE",
"556 588 CURVE",
"575 676 LINE",
"523 702 OFFCURVE",
"467 714 OFFCURVE",
"390 714 CURVE SMOOTH",
"239 714 OFFCURVE",
"136 639 OFFCURVE",
"113 527 CURVE SMOOTH",
"91 428 OFFCURVE",
"140 367 OFFCURVE",
"255 318 CURVE SMOOTH",
"365 271 OFFCURVE",
"411 250 OFFCURVE",
"395 176 CURVE SMOOTH",
"381 109 OFFCURVE",
"324 71 OFFCURVE",
"217 71 CURVE SMOOTH",
"149 71 OFFCURVE",
"79 85 OFFCURVE",
"19 116 CURVE",
"0 24 LINE",
"45 0 OFFCURVE",
"125 -15 OFFCURVE",
"205 -15 CURVE SMOOTH"
);
}
);
width = 561;
}
);
leftKerningGroup = S;
note = S;
rightKerningGroup = S;
unicode = 0053;
},
{
glyphname = Sacute;
lastChange = "2015-11-30 00:36:22 +0000";
layers = (
{
layerId = "493B3A41-641C-4718-8E4F-15C1585391FA";
name = "Regular Italic";
paths = (
{
closed = 1;
nodes = (
"385 -15 OFFCURVE",
"478 57 OFFCURVE",
"503 176 CURVE SMOOTH",
"528 292 OFFCURVE",
"470 336 OFFCURVE",
"352 388 CURVE SMOOTH",
"249 434 OFFCURVE",
"205 459 OFFCURVE",
"220 527 CURVE SMOOTH",
"233 590 OFFCURVE",
"292 627 OFFCURVE",
"389 627 CURVE SMOOTH",
"451 627 OFFCURVE",
"504 614 OFFCURVE",
"556 588 CURVE",
"575 676 LINE",
"523 702 OFFCURVE",
"467 714 OFFCURVE",
"390 714 CURVE SMOOTH",
"239 714 OFFCURVE",
"136 639 OFFCURVE",
"113 527 CURVE SMOOTH",
"91 428 OFFCURVE",
"140 367 OFFCURVE",
"255 318 CURVE SMOOTH",
"365 271 OFFCURVE",
"411 250 OFFCURVE",
"395 176 CURVE SMOOTH",
"381 109 OFFCURVE",
"324 71 OFFCURVE",
"217 71 CURVE SMOOTH",
"149 71 OFFCURVE",
"79 85 OFFCURVE",
"19 116 CURVE",
"0 24 LINE",
"45 0 OFFCURVE",
"125 -15 OFFCURVE",
"205 -15 CURVE SMOOTH"
);
},
{
closed = 1;
nodes = (
"430 741 LINE",
"550 913 LINE",
"443 913 LINE",
"338 741 LINE"
);
}
);
width = 561;
}
);
leftKerningGroup = S;
note = Sacute;
rightKerningGroup = S;
unicode = 015A;
},
{
glyphname = Scaron;
lastChange = "2015-11-30 00:36:23 +0000";
layers = (
{
layerId = "493B3A41-641C-4718-8E4F-15C1585391FA";
name = "Regular Italic";
paths = (
{
closed = 1;
nodes = (
"385 -15 OFFCURVE",
"478 57 OFFCURVE",
"503 176 CURVE SMOOTH",
"528 292 OFFCURVE",
"470 336 OFFCURVE",
"352 388 CURVE SMOOTH",
"249 434 OFFCURVE",
"205 459 OFFCURVE",
"220 527 CURVE SMOOTH",
"233 590 OFFCURVE",
"292 627 OFFCURVE",
"389 627 CURVE SMOOTH",
"451 627 OFFCURVE",
"504 614 OFFCURVE",
"556 588 CURVE",
"575 676 LINE",
"523 702 OFFCURVE",
"467 714 OFFCURVE",
"390 714 CURVE SMOOTH",
"239 714 OFFCURVE",
"136 639 OFFCURVE",
"113 527 CURVE SMOOTH",
"91 428 OFFCURVE",
"140 367 OFFCURVE",
"255 318 CURVE SMOOTH",
"365 271 OFFCURVE",
"411 250 OFFCURVE",
"395 176 CURVE SMOOTH",
"381 109 OFFCURVE",
"324 71 OFFCURVE",
"217 71 CURVE SMOOTH",
"149 71 OFFCURVE",
"79 85 OFFCURVE",
"19 116 CURVE",
"0 24 LINE",
"45 0 OFFCURVE",
"125 -15 OFFCURVE",
"205 -15 CURVE SMOOTH"
);
},
{
closed = 1;
nodes = (
"444 742 LINE",
"622 908 LINE",
"517 908 LINE",
"410 801 LINE",
"349 908 LINE",
"250 908 LINE",
"355 742 LINE"
);
}
);
width = 561;
}
);
leftKerningGroup = S;
note = Scaron;
rightKerningGroup = S;
unicode = 0160;
},
{
glyphname = Scedilla;
lastChange = "2015-11-30 00:36:24 +0000";
layers = (
{
layerId = "493B3A41-641C-4718-8E4F-15C1585391FA";
name = "Regular Italic";
paths = (
{
closed = 1;
nodes = (
"229 -248 OFFCURVE",
"288 -210 OFFCURVE",
"300 -151 CURVE SMOOTH",
"311 -99 OFFCURVE",
"289 -64 OFFCURVE",
"230 -56 CURVE",
"256 -13 LINE",
"403 0 OFFCURVE",
"480 69 OFFCURVE",
"503 176 CURVE SMOOTH",
"528 292 OFFCURVE",
"470 336 OFFCURVE",
"352 388 CURVE SMOOTH",
"249 434 OFFCURVE",
"205 459 OFFCURVE",
"220 527 CURVE SMOOTH",
"233 590 OFFCURVE",
"292 627 OFFCURVE",
"389 627 CURVE SMOOTH",
"451 627 OFFCURVE",
"504 614 OFFCURVE",
"556 588 CURVE",
"575 676 LINE",
"523 702 OFFCURVE",
"467 714 OFFCURVE",
"390 714 CURVE SMOOTH",
"239 714 OFFCURVE",
"136 639 OFFCURVE",
"113 527 CURVE SMOOTH",
"91 428 OFFCURVE",
"140 367 OFFCURVE",
"255 318 CURVE SMOOTH",
"365 271 OFFCURVE",
"411 250 OFFCURVE",
"395 176 CURVE SMOOTH",
"381 109 OFFCURVE",
"324 71 OFFCURVE",
"217 71 CURVE SMOOTH",
"149 71 OFFCURVE",
"79 85 OFFCURVE",
"19 116 CURVE",
"0 24 LINE",
"37 4 OFFCURVE",
"98 -9 OFFCURVE",
"164 -13 CURVE",
"120 -89 LINE",
"195 -89 OFFCURVE",
"216 -111 OFFCURVE",
"209 -144 CURVE SMOOTH",
"202 -176 OFFCURVE",
"176 -190 OFFCURVE",
"135 -190 CURVE SMOOTH",
"116 -190 OFFCURVE",
"92 -185 OFFCURVE",
"80 -179 CURVE",
"67 -237 LINE",
"83 -244 OFFCURVE",
"115 -248 OFFCURVE",
"147 -248 CURVE SMOOTH"
);
}
);
width = 561;
}
);
leftKerningGroup = S;
note = Scedilla;
rightKerningGroup = S;
unicode = 015E;
},
{
glyphname = Scircumflex;
lastChange = "2015-11-30 00:36:21 +0000";
layers = (
{
layerId = "493B3A41-641C-4718-8E4F-15C1585391FA";
name = "Regular Italic";
paths = (
{
closed = 1;
nodes = (
"385 -15 OFFCURVE",
"478 57 OFFCURVE",
"503 176 CURVE SMOOTH",
"528 292 OFFCURVE",
"470 336 OFFCURVE",
"352 388 CURVE SMOOTH",
"249 434 OFFCURVE",
"205 459 OFFCURVE",
"220 527 CURVE SMOOTH",
"233 590 OFFCURVE",
"292 627 OFFCURVE",
"389 627 CURVE SMOOTH",
"451 627 OFFCURVE",
"504 614 OFFCURVE",
"556 588 CURVE",
"575 676 LINE",
"523 702 OFFCURVE",
"467 714 OFFCURVE",
"390 714 CURVE SMOOTH",
"239 714 OFFCURVE",
"136 639 OFFCURVE",
"113 527 CURVE SMOOTH",
"91 428 OFFCURVE",
"140 367 OFFCURVE",
"255 318 CURVE SMOOTH",
"365 271 OFFCURVE",
"411 250 OFFCURVE",
"395 176 CURVE SMOOTH",
"381 109 OFFCURVE",
"324 71 OFFCURVE",
"217 71 CURVE SMOOTH",
"149 71 OFFCURVE",
"79 85 OFFCURVE",
"19 116 CURVE",
"0 24 LINE",
"45 0 OFFCURVE",
"125 -15 OFFCURVE",
"205 -15 CURVE SMOOTH"
);
},
{
closed = 1;
nodes = (
"307 741 LINE",
"414 848 LINE",
"475 741 LINE",
"574 741 LINE",
"468 907 LINE",
"379 907 LINE",
"202 741 LINE"
);
}
);
width = 561;
}
);
leftKerningGroup = S;
note = Scircumflex;
rightKerningGroup = S;
unicode = 015C;
},
{
glyphname = Scommaaccent;
lastChange = "2015-11-30 00:36:22 +0000";
layers = (
{
layerId = "493B3A41-641C-4718-8E4F-15C1585391FA";
name = "Regular Italic";
paths = (
{
closed = 1;
nodes = (
"385 -15 OFFCURVE",
"478 57 OFFCURVE",
"503 176 CURVE SMOOTH",
"528 292 OFFCURVE",
"470 336 OFFCURVE",
"352 388 CURVE SMOOTH",
"249 434 OFFCURVE",
"205 459 OFFCURVE",
"220 527 CURVE SMOOTH",
"233 590 OFFCURVE",
"292 627 OFFCURVE",
"389 627 CURVE SMOOTH",
"451 627 OFFCURVE",
"504 614 OFFCURVE",
"556 588 CURVE",
"575 676 LINE",
"523 702 OFFCURVE",
"467 714 OFFCURVE",
"390 714 CURVE SMOOTH",
"239 714 OFFCURVE",
"136 639 OFFCURVE",
"113 527 CURVE SMOOTH",
"91 428 OFFCURVE",
"140 367 OFFCURVE",
"255 318 CURVE SMOOTH",
"365 271 OFFCURVE",
"411 250 OFFCURVE",
"395 176 CURVE SMOOTH",
"381 109 OFFCURVE",
"324 71 OFFCURVE",
"217 71 CURVE SMOOTH",
"149 71 OFFCURVE",
"79 85 OFFCURVE",
"19 116 CURVE",
"0 24 LINE",
"45 0 OFFCURVE",
"125 -15 OFFCURVE",
"205 -15 CURVE SMOOTH"
);
},
{
closed = 1;
nodes = (
"128 -259 LINE",
"265 -60 LINE",
"160 -60 LINE",
"35 -259 LINE"
);
}
);
width = 561;
}
);
leftKerningGroup = S;
note = Scommaaccent;
rightKerningGroup = S;
unicode = 0218;
},
{
glyphname = Sdotaccent;
lastChange = "2015-11-30 00:36:22 +0000";
layers = (
{
layerId = "493B3A41-641C-4718-8E4F-15C1585391FA";
name = "Regular Italic";
paths = (
{
closed = 1;
nodes = (
"385 -15 OFFCURVE",
"478 57 OFFCURVE",
"503 176 CURVE SMOOTH",
"528 292 OFFCURVE",
"470 336 OFFCURVE",
"352 388 CURVE SMOOTH",
"249 434 OFFCURVE",
"205 459 OFFCURVE",
"220 527 CURVE SMOOTH",
"233 590 OFFCURVE",
"292 627 OFFCURVE",
"389 627 CURVE SMOOTH",
"451 627 OFFCURVE",
"504 614 OFFCURVE",
"556 588 CURVE",
"575 676 LINE",
"523 702 OFFCURVE",
"467 714 OFFCURVE",
"390 714 CURVE SMOOTH",
"239 714 OFFCURVE",
"136 639 OFFCURVE",
"113 527 CURVE SMOOTH",
"91 428 OFFCURVE",
"140 367 OFFCURVE",
"255 318 CURVE SMOOTH",
"365 271 OFFCURVE",
"411 250 OFFCURVE",
"395 176 CURVE SMOOTH",
"381 109 OFFCURVE",
"324 71 OFFCURVE",
"217 71 CURVE SMOOTH",
"149 71 OFFCURVE",
"79 85 OFFCURVE",
"19 116 CURVE",
"0 24 LINE",
"45 0 OFFCURVE",
"125 -15 OFFCURVE",
"205 -15 CURVE SMOOTH"
);
},
{
closed = 1;
nodes = (
"429 741 OFFCURVE",
"460 767 OFFCURVE",
"467 799 CURVE SMOOTH",
"474 831 OFFCURVE",
"454 857 OFFCURVE",
"423 857 CURVE SMOOTH",
"391 857 OFFCURVE",
"358 831 OFFCURVE",
"351 799 CURVE SMOOTH",
"344 767 OFFCURVE",
"366 741 OFFCURVE",
"398 741 CURVE SMOOTH"
);
}
);
width = 561;
}
);
leftKerningGroup = S;
note = Sdotaccent;
rightKerningGroup = S;
unicode = 1E60;
},
{
glyphname = Sdotbelow;
lastChange = "2015-11-30 00:36:22 +0000";
layers = (
{
layerId = "493B3A41-641C-4718-8E4F-15C1585391FA";
name = "Regular Italic";
paths = (
{
closed = 1;
nodes = (
"385 -15 OFFCURVE",
"478 57 OFFCURVE",
"503 176 CURVE SMOOTH",
"528 292 OFFCURVE",
"470 336 OFFCURVE",
"352 388 CURVE SMOOTH",
"249 434 OFFCURVE",
"205 459 OFFCURVE",
"220 527 CURVE SMOOTH",
"233 590 OFFCURVE",
"292 627 OFFCURVE",
"389 627 CURVE SMOOTH",
"451 627 OFFCURVE",
"504 614 OFFCURVE",
"556 588 CURVE",
"575 676 LINE",
"523 702 OFFCURVE",
"467 714 OFFCURVE",
"390 714 CURVE SMOOTH",
"239 714 OFFCURVE",
"136 639 OFFCURVE",
"113 527 CURVE SMOOTH",
"91 428 OFFCURVE",
"140 367 OFFCURVE",
"255 318 CURVE SMOOTH",
"365 271 OFFCURVE",
"411 250 OFFCURVE",
"395 176 CURVE SMOOTH",
"381 109 OFFCURVE",
"324 71 OFFCURVE",
"217 71 CURVE SMOOTH",
"149 71 OFFCURVE",
"79 85 OFFCURVE",
"19 116 CURVE",
"0 24 LINE",
"45 0 OFFCURVE",
"125 -15 OFFCURVE",
"205 -15 CURVE SMOOTH"
);
},
{
closed = 1;
nodes = (
"215 -166 OFFCURVE",
"246 -140 OFFCURVE",
"253 -108 CURVE SMOOTH",
"259 -76 OFFCURVE",
"239 -50 OFFCURVE",
"209 -50 CURVE SMOOTH",
"177 -50 OFFCURVE",
"144 -76 OFFCURVE",
"138 -108 CURVE SMOOTH",
"131 -140 OFFCURVE",
"152 -166 OFFCURVE",
"184 -166 CURVE SMOOTH"
);
}
);
width = 561;
}
);
leftKerningGroup = S;
note = Sdotbelow;
rightKerningGroup = S;
unicode = 1E62;
},
{
glyphname = Germandbls;
lastChange = "2015-11-30 00:36:24 +0000";
layers = (
{
layerId = "493B3A41-641C-4718-8E4F-15C1585391FA";
name = "Regular Italic";
paths = (
{
closed = 1;
nodes = (
"452 -15 OFFCURVE",
"546 74 OFFCURVE",
"573 198 CURVE SMOOTH",
"597 311 OFFCURVE",
"554 376 OFFCURVE",
"436 390 CURVE",
"584 511 LINE",
"602 621 OFFCURVE",
"546 714 OFFCURVE",
"396 714 CURVE SMOOTH",
"245 714 OFFCURVE",
"143 628 OFFCURVE",
"109 469 CURVE SMOOTH",
"10 0 LINE",
"112 0 LINE",
"212 473 LINE SMOOTH",
"234 577 OFFCURVE",
"301 620 OFFCURVE",
"376 620 CURVE SMOOTH",
"445 620 OFFCURVE",
"482 581 OFFCURVE",
"479 528 CURVE",
"308 386 LINE",
"295 325 LINE",
"336 325 LINE SMOOTH",
"422 325 OFFCURVE",
"491 297 OFFCURVE",
"470 201 CURVE SMOOTH",
"453 119 OFFCURVE",
"396 77 OFFCURVE",
"302 77 CURVE SMOOTH",
"258 77 OFFCURVE",
"225 83 OFFCURVE",
"195 98 CURVE",
"175 4 LINE",
"206 -10 OFFCURVE",
"254 -15 OFFCURVE",
"303 -15 CURVE SMOOTH"
);
}
);
width = 626;
}
);
note = uni1E9E;
unicode = 1E9E;
},
{
glyphname = Schwa;
lastChange = "2015-11-30 00:36:24 +0000";
layers = (
{
layerId = "493B3A41-641C-4718-8E4F-15C1585391FA";
name = "Regular Italic";
paths = (
{
closed = 1;
nodes = (
"615 -15 OFFCURVE",
"755 129 OFFCURVE",
"802 350 CURVE SMOOTH",
"851 581 OFFCURVE",
"731 714 OFFCURVE",
"476 714 CURVE SMOOTH",
"378 714 OFFCURVE",
"268 693 OFFCURVE",
"204 669 CURVE",
"185 582 LINE",
"255 608 OFFCURVE",
"356 626 OFFCURVE",
"445 626 CURVE SMOOTH",
"671 626 OFFCURVE",
"723 539 OFFCURVE",
"700 385 CURVE",
"76 385 LINE",
"65 333 LINE SMOOTH",
"24 137 OFFCURVE",
"112 -15 OFFCURVE",
"356 -15 CURVE SMOOTH"
);
},
{
closed = 1;
nodes = (
"182 71 OFFCURVE",
"135 170 OFFCURVE",
"159 307 CURVE",
"685 307 LINE",
"650 171 OFFCURVE",
"549 71 OFFCURVE",
"373 71 CURVE SMOOTH"
);
}
);
width = 823;
}
);
note = uni018F;
unicode = 018F;
},
{
glyphname = T;
lastChange = "2015-11-30 00:36:24 +0000";
layers = (
{
layerId = "493B3A41-641C-4718-8E4F-15C1585391FA";
name = "Regular Italic";
paths = (
{
closed = 1;
nodes = (
"295 0 LINE",
"425 613 LINE",
"642 613 LINE",
"660 699 LINE",
"123 699 LINE",
"105 613 LINE",
"322 613 LINE",
"192 0 LINE"
);
}
);
width = 587;
}
);
leftKerningGroup = T;
note = T;
rightKerningGroup = T;
unicode = 0054;
},
{
glyphname = Tbar;
lastChange = "2015-11-30 00:36:24 +0000";
layers = (
{
layerId = "493B3A41-641C-4718-8E4F-15C1585391FA";
name = "Regular Italic";
paths = (
{
closed = 1;
nodes = (
"296 0 LINE",
"358 292 LINE",
"483 292 LINE",
"501 378 LINE",
"376 378 LINE",
"425 610 LINE",
"641 610 LINE",
"660 699 LINE",
"123 699 LINE",
"104 610 LINE",
"320 610 LINE",
"271 378 LINE",
"146 378 LINE",
"128 292 LINE",
"253 292 LINE",
"191 0 LINE"
);
}
);
width = 587;
}
);
leftKerningGroup = T;
note = Tbar;
rightKerningGroup = T;
unicode = 0166;
},
{
glyphname = Tcaron;
lastChange = "2015-11-30 00:36:23 +0000";
layers = (
{
layerId = "493B3A41-641C-4718-8E4F-15C1585391FA";
name = "Regular Italic";
paths = (
{
closed = 1;
nodes = (
"295 0 LINE",
"425 613 LINE",
"642 613 LINE",
"660 699 LINE",
"123 699 LINE",
"105 613 LINE",
"322 613 LINE",
"192 0 LINE"
);
},
{
closed = 1;
nodes = (
"444 742 LINE",
"622 908 LINE",
"517 908 LINE",
"410 801 LINE",
"349 908 LINE",
"250 908 LINE",
"355 742 LINE"
);
}
);
width = 587;
}
);
leftKerningGroup = T;
note = Tcaron;
rightKerningGroup = T;
unicode = 0164;
},
{
glyphname = Tcedilla;
lastChange = "2015-11-30 00:36:23 +0000";
layers = (
{
layerId = "493B3A41-641C-4718-8E4F-15C1585391FA";
name = "Regular Italic";
paths = (
{
closed = 1;
nodes = (
"255 -248 OFFCURVE",
"314 -210 OFFCURVE",
"326 -151 CURVE SMOOTH",
"337 -99 OFFCURVE",
"315 -64 OFFCURVE",
"256 -56 CURVE",
"290 0 LINE",
"295 0 LINE",
"425 613 LINE",
"642 613 LINE",
"660 699 LINE",
"123 699 LINE",
"105 613 LINE",
"322 613 LINE",
"192 0 LINE",
"198 0 LINE",
"146 -89 LINE",
"221 -89 OFFCURVE",
"242 -111 OFFCURVE",
"235 -144 CURVE SMOOTH",
"228 -176 OFFCURVE",
"202 -190 OFFCURVE",
"161 -190 CURVE SMOOTH",
"142 -190 OFFCURVE",
"118 -185 OFFCURVE",
"106 -179 CURVE",
"93 -237 LINE",
"109 -244 OFFCURVE",
"141 -248 OFFCURVE",
"173 -248 CURVE SMOOTH"
);
}
);
width = 587;
}
);
leftKerningGroup = T;
note = Tcedilla;
rightKerningGroup = T;
unicode = 0162;
},
{
glyphname = Tcommaaccent;
lastChange = "2015-11-30 00:36:21 +0000";
layers = (
{
layerId = "493B3A41-641C-4718-8E4F-15C1585391FA";
name = "Regular Italic";
paths = (
{
closed = 1;
nodes = (
"295 0 LINE",
"425 613 LINE",
"642 613 LINE",
"660 699 LINE",
"123 699 LINE",
"105 613 LINE",
"322 613 LINE",
"192 0 LINE"
);
},
{
closed = 1;
nodes = (
"143 -260 LINE",
"281 -60 LINE",
"175 -60 LINE",
"52 -260 LINE"
);
}
);
width = 587;
}
);
leftKerningGroup = T;
note = Tcommaaccent;
rightKerningGroup = T;
unicode = 021A;
},
{
glyphname = Tdotbelow;
lastChange = "2015-11-30 00:36:24 +0000";
layers = (
{
layerId = "493B3A41-641C-4718-8E4F-15C1585391FA";
name = "Regular Italic";
paths = (
{
closed = 1;
nodes = (
"295 0 LINE",
"425 613 LINE",
"642 613 LINE",
"660 699 LINE",
"123 699 LINE",
"105 613 LINE",
"322 613 LINE",
"192 0 LINE"
);
},
{
closed = 1;
nodes = (
"240 -166 OFFCURVE",
"271 -140 OFFCURVE",
"278 -108 CURVE SMOOTH",
"284 -76 OFFCURVE",
"264 -50 OFFCURVE",
"234 -50 CURVE SMOOTH",
"202 -50 OFFCURVE",
"169 -76 OFFCURVE",
"163 -108 CURVE SMOOTH",
"156 -140 OFFCURVE",
"177 -166 OFFCURVE",
"209 -166 CURVE SMOOTH"
);
}
);
width = 587;
}
);
leftKerningGroup = T;
note = Tdotbelow;
rightKerningGroup = T;
unicode = 1E6C;
},
{
glyphname = Tlinebelow;
lastChange = "2015-11-30 00:36:21 +0000";
layers = (
{
layerId = "493B3A41-641C-4718-8E4F-15C1585391FA";
name = "Regular Italic";
paths = (
{
closed = 1;
nodes = (
"295 0 LINE",
"425 613 LINE",
"642 613 LINE",
"660 699 LINE",
"123 699 LINE",
"105 613 LINE",
"322 613 LINE",
"192 0 LINE"
);
},
{
closed = 1;
nodes = (
"370 -141 LINE",
"384 -71 LINE",
"71 -71 LINE",
"57 -141 LINE"
);
}
);
width = 587;
}
);
leftKerningGroup = T;
note = Tlinebelow;
rightKerningGroup = T;
unicode = 1E6E;
},
{
glyphname = U;
lastChange = "2015-11-30 00:36:24 +0000";
layers = (
{
layerId = "493B3A41-641C-4718-8E4F-15C1585391FA";
name = "Regular Italic";
paths = (
{
closed = 1;
nodes = (
"504 -15 OFFCURVE",
"607 95 OFFCURVE",
"642 261 CURVE SMOOTH",
"735 699 LINE",
"633 699 LINE",
"539 257 LINE SMOOTH",
"513 135 OFFCURVE",
"426 77 OFFCURVE",
"315 77 CURVE SMOOTH",
"188 77 OFFCURVE",
"139 131 OFFCURVE",
"166 257 CURVE SMOOTH",
"260 699 LINE",
"158 699 LINE",
"65 261 LINE SMOOTH",
"30 95 OFFCURVE",
"113 -15 OFFCURVE",
"295 -15 CURVE SMOOTH"
);
}
);
width = 697;
}
);
leftKerningGroup = U;
note = U;
rightKerningGroup = U;
unicode = 0055;
},
{
glyphname = Uacute;
lastChange = "2015-11-30 00:36:21 +0000";
layers = (
{
layerId = "493B3A41-641C-4718-8E4F-15C1585391FA";
name = "Regular Italic";
paths = (
{
closed = 1;
nodes = (
"504 -15 OFFCURVE",
"607 95 OFFCURVE",
"642 261 CURVE SMOOTH",
"735 699 LINE",
"633 699 LINE",
"539 257 LINE SMOOTH",
"513 135 OFFCURVE",
"426 77 OFFCURVE",
"315 77 CURVE SMOOTH",
"188 77 OFFCURVE",
"139 131 OFFCURVE",
"166 257 CURVE SMOOTH",
"260 699 LINE",
"158 699 LINE",
"65 261 LINE SMOOTH",
"30 95 OFFCURVE",
"113 -15 OFFCURVE",
"295 -15 CURVE SMOOTH"
);
},
{
closed = 1;
nodes = (
"494 741 LINE",
"614 913 LINE",
"507 913 LINE",
"402 741 LINE"
);
}
);
width = 697;
}
);
leftKerningGroup = U;
note = Uacute;
rightKerningGroup = U;
unicode = 00DA;
},
{
glyphname = Ubreve;
lastChange = "2015-11-30 00:36:23 +0000";
layers = (
{
layerId = "493B3A41-641C-4718-8E4F-15C1585391FA";
name = "Regular Italic";
paths = (
{
closed = 1;
nodes = (
"504 -15 OFFCURVE",
"607 95 OFFCURVE",
"642 261 CURVE SMOOTH",
"735 699 LINE",
"633 699 LINE",
"539 257 LINE SMOOTH",
"513 135 OFFCURVE",
"426 77 OFFCURVE",
"315 77 CURVE SMOOTH",
"188 77 OFFCURVE",
"139 131 OFFCURVE",
"166 257 CURVE SMOOTH",
"260 699 LINE",
"158 699 LINE",
"65 261 LINE SMOOTH",
"30 95 OFFCURVE",
"113 -15 OFFCURVE",
"295 -15 CURVE SMOOTH"
);
},
{
closed = 1;
nodes = (
"548 742 OFFCURVE",
"618 800 OFFCURVE",
"635 882 CURVE",
"555 882 LINE",
"545 837 OFFCURVE",
"513 811 OFFCURVE",
"467 811 CURVE SMOOTH",
"421 811 OFFCURVE",
"399 837 OFFCURVE",
"409 882 CURVE",
"334 882 LINE",
"318 800 OFFCURVE",
"361 742 OFFCURVE",
"455 742 CURVE SMOOTH"
);
}
);
width = 697;
}
);
leftKerningGroup = U;
note = Ubreve;
rightKerningGroup = U;
unicode = 016C;
},
{
glyphname = Ucaron;
lastChange = "2015-11-30 00:36:21 +0000";
layers = (
{
layerId = "493B3A41-641C-4718-8E4F-15C1585391FA";
name = "Regular Italic";
paths = (
{
closed = 1;
nodes = (
"504 -15 OFFCURVE",
"607 95 OFFCURVE",
"642 261 CURVE SMOOTH",
"735 699 LINE",
"633 699 LINE",
"539 257 LINE SMOOTH",
"513 135 OFFCURVE",
"426 77 OFFCURVE",
"315 77 CURVE SMOOTH",
"188 77 OFFCURVE",
"139 131 OFFCURVE",
"166 257 CURVE SMOOTH",
"260 699 LINE",
"158 699 LINE",
"65 261 LINE SMOOTH",
"30 95 OFFCURVE",
"113 -15 OFFCURVE",
"295 -15 CURVE SMOOTH"
);
},
{
closed = 1;
nodes = (
"499 742 LINE",
"677 908 LINE",
"572 908 LINE",
"465 801 LINE",
"404 908 LINE",
"305 908 LINE",
"410 742 LINE"
);
}
);
width = 697;
}
);
leftKerningGroup = U;
note = Ucaron;
rightKerningGroup = U;
unicode = 01D3;
},
{
glyphname = Ucircumflex;
lastChange = "2015-11-30 00:36:22 +0000";
layers = (
{
layerId = "493B3A41-641C-4718-8E4F-15C1585391FA";
name = "Regular Italic";
paths = (
{
closed = 1;
nodes = (
"504 -15 OFFCURVE",
"607 95 OFFCURVE",
"642 261 CURVE SMOOTH",
"735 699 LINE",
"633 699 LINE",
"539 257 LINE SMOOTH",
"513 135 OFFCURVE",
"426 77 OFFCURVE",
"315 77 CURVE SMOOTH",
"188 77 OFFCURVE",
"139 131 OFFCURVE",
"166 257 CURVE SMOOTH",
"260 699 LINE",
"158 699 LINE",
"65 261 LINE SMOOTH",
"30 95 OFFCURVE",
"113 -15 OFFCURVE",
"295 -15 CURVE SMOOTH"
);
},
{
closed = 1;
nodes = (
"374 741 LINE",
"481 848 LINE",
"542 741 LINE",
"641 741 LINE",
"535 907 LINE",
"446 907 LINE",
"269 741 LINE"
);
}
);
width = 697;
}
);
leftKerningGroup = U;
note = Ucircumflex;
rightKerningGroup = U;
unicode = 00DB;
},
{
glyphname = Udieresis;
lastChange = "2015-11-30 00:36:25 +0000";
layers = (
{
layerId = "493B3A41-641C-4718-8E4F-15C1585391FA";
name = "Regular Italic";
paths = (
{
closed = 1;
nodes = (
"504 -15 OFFCURVE",
"607 95 OFFCURVE",
"642 261 CURVE SMOOTH",
"735 699 LINE",
"633 699 LINE",
"539 257 LINE SMOOTH",
"513 135 OFFCURVE",
"426 77 OFFCURVE",
"315 77 CURVE SMOOTH",
"188 77 OFFCURVE",
"139 131 OFFCURVE",
"166 257 CURVE SMOOTH",
"260 699 LINE",
"158 699 LINE",
"65 261 LINE SMOOTH",
"30 95 OFFCURVE",
"113 -15 OFFCURVE",
"295 -15 CURVE SMOOTH"
);
},
{
closed = 1;
nodes = (
"373 741 OFFCURVE",
"404 767 OFFCURVE",
"411 799 CURVE SMOOTH",
"418 831 OFFCURVE",
"398 857 OFFCURVE",
"367 857 CURVE SMOOTH",
"335 857 OFFCURVE",
"303 831 OFFCURVE",
"296 799 CURVE SMOOTH",
"289 767 OFFCURVE",
"311 741 OFFCURVE",
"342 741 CURVE SMOOTH"
);
},
{
closed = 1;
nodes = (
"600 741 OFFCURVE",
"631 767 OFFCURVE",
"638 799 CURVE SMOOTH",
"645 831 OFFCURVE",
"625 857 OFFCURVE",
"594 857 CURVE SMOOTH",
"562 857 OFFCURVE",
"529 831 OFFCURVE",
"522 799 CURVE SMOOTH",
"515 767 OFFCURVE",
"537 741 OFFCURVE",
"569 741 CURVE SMOOTH"
);
}
);
width = 697;
}
);
leftKerningGroup = U;
note = Udieresis;
rightKerningGroup = U;
unicode = 00DC;
},
{
glyphname = Udieresisacute;
lastChange = "2015-11-30 00:36:24 +0000";
layers = (
{
layerId = "493B3A41-641C-4718-8E4F-15C1585391FA";
name = "Regular Italic";
paths = (
{
closed = 1;
nodes = (
"504 -15 OFFCURVE",
"607 95 OFFCURVE",
"642 261 CURVE SMOOTH",
"735 699 LINE",
"633 699 LINE",
"539 257 LINE SMOOTH",
"513 135 OFFCURVE",
"426 77 OFFCURVE",
"315 77 CURVE SMOOTH",
"188 77 OFFCURVE",
"139 131 OFFCURVE",
"166 257 CURVE SMOOTH",
"260 699 LINE",
"158 699 LINE",
"65 261 LINE SMOOTH",
"30 95 OFFCURVE",
"113 -15 OFFCURVE",
"295 -15 CURVE SMOOTH"
);
},
{
closed = 1;
nodes = (
"372 749 OFFCURVE",
"404 775 OFFCURVE",
"411 807 CURVE SMOOTH",
"418 839 OFFCURVE",
"397 865 OFFCURVE",
"366 865 CURVE SMOOTH",
"335 865 OFFCURVE",
"302 839 OFFCURVE",
"295 807 CURVE SMOOTH",
"288 775 OFFCURVE",
"310 749 OFFCURVE",
"341 749 CURVE SMOOTH"
);
},
{
closed = 1;
nodes = (
"608 749 OFFCURVE",
"640 775 OFFCURVE",
"647 807 CURVE SMOOTH",
"654 839 OFFCURVE",
"633 865 OFFCURVE",
"602 865 CURVE SMOOTH",
"571 865 OFFCURVE",
"538 839 OFFCURVE",
"531 807 CURVE SMOOTH",
"524 775 OFFCURVE",
"546 749 OFFCURVE",
"577 749 CURVE SMOOTH"
);
},
{
closed = 1;
nodes = (
"513 846 LINE",
"610 971 LINE",
"520 971 LINE",
"437 846 LINE"
);
}
);
width = 697;
}
);
leftKerningGroup = U;
note = Udieresisacute;
rightKerningGroup = U;
unicode = 01D7;
},
{
glyphname = Udieresiscaron;
lastChange = "2015-11-30 00:36:23 +0000";
layers = (
{
layerId = "493B3A41-641C-4718-8E4F-15C1585391FA";
name = "Regular Italic";
paths = (
{
closed = 1;
nodes = (
"504 -15 OFFCURVE",
"607 95 OFFCURVE",
"642 261 CURVE SMOOTH",
"735 699 LINE",
"633 699 LINE",
"539 257 LINE SMOOTH",
"513 135 OFFCURVE",
"426 77 OFFCURVE",
"315 77 CURVE SMOOTH",
"188 77 OFFCURVE",
"139 131 OFFCURVE",
"166 257 CURVE SMOOTH",
"260 699 LINE",
"158 699 LINE",
"65 261 LINE SMOOTH",
"30 95 OFFCURVE",
"113 -15 OFFCURVE",
"295 -15 CURVE SMOOTH"
);
},
{
closed = 1;
nodes = (
"368 741 OFFCURVE",
"400 767 OFFCURVE",
"407 799 CURVE SMOOTH",
"414 831 OFFCURVE",
"393 857 OFFCURVE",
"362 857 CURVE SMOOTH",
"331 857 OFFCURVE",
"298 831 OFFCURVE",
"291 799 CURVE SMOOTH",
"284 767 OFFCURVE",
"306 741 OFFCURVE",
"337 741 CURVE SMOOTH"
);
},
{
closed = 1;
nodes = (
"604 741 OFFCURVE",
"636 767 OFFCURVE",
"643 799 CURVE SMOOTH",
"650 831 OFFCURVE",
"629 857 OFFCURVE",
"598 857 CURVE SMOOTH",
"567 857 OFFCURVE",
"534 831 OFFCURVE",
"527 799 CURVE SMOOTH",
"520 767 OFFCURVE",
"542 741 OFFCURVE",
"573 741 CURVE SMOOTH"
);
},
{
closed = 1;
nodes = (
"515 843 LINE",
"660 968 LINE",
"575 968 LINE",
"489 890 LINE",
"434 968 LINE",
"349 968 LINE",
"442 843 LINE"
);
}
);
width = 697;
}
);
leftKerningGroup = U;
note = Udieresiscaron;
rightKerningGroup = U;
unicode = 01D9;
},
{
glyphname = Udieresisgrave;
lastChange = "2015-11-30 00:36:22 +0000";
layers = (
{
layerId = "493B3A41-641C-4718-8E4F-15C1585391FA";
name = "Regular Italic";
paths = (
{
closed = 1;
nodes = (
"504 -15 OFFCURVE",
"607 95 OFFCURVE",
"642 261 CURVE SMOOTH",
"735 699 LINE",
"633 699 LINE",
"539 257 LINE SMOOTH",
"513 135 OFFCURVE",
"426 77 OFFCURVE",
"315 77 CURVE SMOOTH",
"188 77 OFFCURVE",
"139 131 OFFCURVE",
"166 257 CURVE SMOOTH",
"260 699 LINE",
"158 699 LINE",
"65 261 LINE SMOOTH",
"30 95 OFFCURVE",
"113 -15 OFFCURVE",
"295 -15 CURVE SMOOTH"
);
},
{
closed = 1;
nodes = (
"371 741 OFFCURVE",
"403 767 OFFCURVE",
"410 799 CURVE SMOOTH",
"417 831 OFFCURVE",
"396 857 OFFCURVE",
"365 857 CURVE SMOOTH",
"334 857 OFFCURVE",
"301 831 OFFCURVE",
"294 799 CURVE SMOOTH",
"287 767 OFFCURVE",
"309 741 OFFCURVE",
"340 741 CURVE SMOOTH"
);
},
{
closed = 1;
nodes = (
"520 838 LINE",
"491 963 LINE",
"401 963 LINE",
"444 838 LINE"
);
},
{
closed = 1;
nodes = (
"607 741 OFFCURVE",
"639 767 OFFCURVE",
"646 799 CURVE SMOOTH",
"653 831 OFFCURVE",
"632 857 OFFCURVE",
"601 857 CURVE SMOOTH",
"570 857 OFFCURVE",
"537 831 OFFCURVE",
"530 799 CURVE SMOOTH",
"523 767 OFFCURVE",
"545 741 OFFCURVE",
"576 741 CURVE SMOOTH"
);
}
);
width = 697;
}
);
leftKerningGroup = U;
note = Udieresisgrave;
rightKerningGroup = U;
unicode = 01DB;
},
{
glyphname = Udieresismacron;
lastChange = "2015-11-30 00:36:23 +0000";
layers = (
{
layerId = "493B3A41-641C-4718-8E4F-15C1585391FA";
name = "Regular Italic";
paths = (
{
closed = 1;
nodes = (
"504 -15 OFFCURVE",
"607 95 OFFCURVE",
"642 261 CURVE SMOOTH",
"735 699 LINE",
"633 699 LINE",
"539 257 LINE SMOOTH",
"513 135 OFFCURVE",
"426 77 OFFCURVE",
"315 77 CURVE SMOOTH",
"188 77 OFFCURVE",
"139 131 OFFCURVE",
"166 257 CURVE SMOOTH",
"260 699 LINE",
"158 699 LINE",
"65 261 LINE SMOOTH",
"30 95 OFFCURVE",
"113 -15 OFFCURVE",
"295 -15 CURVE SMOOTH"
);
},
{
closed = 1;
nodes = (
"373 741 OFFCURVE",
"404 767 OFFCURVE",
"411 799 CURVE SMOOTH",
"418 831 OFFCURVE",
"398 857 OFFCURVE",
"367 857 CURVE SMOOTH",
"335 857 OFFCURVE",
"303 831 OFFCURVE",
"296 799 CURVE SMOOTH",
"289 767 OFFCURVE",
"311 741 OFFCURVE",
"342 741 CURVE SMOOTH"
);
},
{
closed = 1;
nodes = (
"600 741 OFFCURVE",
"631 767 OFFCURVE",
"638 799 CURVE SMOOTH",
"645 831 OFFCURVE",
"625 857 OFFCURVE",
"594 857 CURVE SMOOTH",
"562 857 OFFCURVE",
"529 831 OFFCURVE",
"522 799 CURVE SMOOTH",
"515 767 OFFCURVE",
"537 741 OFFCURVE",
"569 741 CURVE SMOOTH"
);
},
{
closed = 1;
nodes = (
"649 921 LINE",
"664 990 LINE",
"353 990 LINE",
"338 921 LINE"
);
}
);
width = 697;
}
);
leftKerningGroup = U;
note = Udieresismacron;
rightKerningGroup = U;
unicode = 01D5;
},
{
glyphname = Udotbelow;
lastChange = "2015-11-30 00:36:22 +0000";
layers = (
{
layerId = "493B3A41-641C-4718-8E4F-15C1585391FA";
name = "Regular Italic";
paths = (
{
closed = 1;
nodes = (
"504 -15 OFFCURVE",
"607 95 OFFCURVE",
"642 261 CURVE SMOOTH",
"735 699 LINE",
"633 699 LINE",
"539 257 LINE SMOOTH",
"513 135 OFFCURVE",
"426 77 OFFCURVE",
"315 77 CURVE SMOOTH",
"188 77 OFFCURVE",
"139 131 OFFCURVE",
"166 257 CURVE SMOOTH",
"260 699 LINE",
"158 699 LINE",
"65 261 LINE SMOOTH",
"30 95 OFFCURVE",
"113 -15 OFFCURVE",
"295 -15 CURVE SMOOTH"
);
},
{
closed = 1;
nodes = (
"295 -166 OFFCURVE",
"326 -140 OFFCURVE",
"333 -108 CURVE SMOOTH",
"339 -76 OFFCURVE",
"319 -50 OFFCURVE",
"289 -50 CURVE SMOOTH",
"257 -50 OFFCURVE",
"224 -76 OFFCURVE",
"218 -108 CURVE SMOOTH",
"211 -140 OFFCURVE",
"232 -166 OFFCURVE",
"264 -166 CURVE SMOOTH"
);
}
);
width = 697;
}
);
leftKerningGroup = U;
note = Udotbelow;
rightKerningGroup = U;
unicode = 1EE4;
},
{
glyphname = Ugrave;
lastChange = "2015-11-30 00:36:24 +0000";
layers = (
{
layerId = "493B3A41-641C-4718-8E4F-15C1585391FA";
name = "Regular Italic";
paths = (
{
closed = 1;
nodes = (
"504 -15 OFFCURVE",
"607 95 OFFCURVE",
"642 261 CURVE SMOOTH",
"735 699 LINE",
"633 699 LINE",
"539 257 LINE SMOOTH",
"513 135 OFFCURVE",
"426 77 OFFCURVE",
"315 77 CURVE SMOOTH",
"188 77 OFFCURVE",
"139 131 OFFCURVE",
"166 257 CURVE SMOOTH",
"260 699 LINE",
"158 699 LINE",
"65 261 LINE SMOOTH",
"30 95 OFFCURVE",
"113 -15 OFFCURVE",
"295 -15 CURVE SMOOTH"
);
},
{
closed = 1;
nodes = (
"507 741 LINE",
"475 913 LINE",
"368 913 LINE",
"414 741 LINE"
);
}
);
width = 697;
}
);
leftKerningGroup = U;
note = Ugrave;
rightKerningGroup = U;
unicode = 00D9;
},
{
glyphname = Uhookabove;
lastChange = "2015-11-30 00:36:22 +0000";
layers = (
{
layerId = "493B3A41-641C-4718-8E4F-15C1585391FA";
name = "Regular Italic";
paths = (
{
closed = 1;
nodes = (
"504 -15 OFFCURVE",
"607 95 OFFCURVE",
"642 261 CURVE SMOOTH",
"735 699 LINE",
"633 699 LINE",
"539 257 LINE SMOOTH",
"513 135 OFFCURVE",
"426 77 OFFCURVE",
"315 77 CURVE SMOOTH",
"188 77 OFFCURVE",
"139 131 OFFCURVE",
"166 257 CURVE SMOOTH",
"260 699 LINE",
"158 699 LINE",
"65 261 LINE SMOOTH",
"30 95 OFFCURVE",
"113 -15 OFFCURVE",
"295 -15 CURVE SMOOTH"
);
},
{
closed = 1;
nodes = (
"491 742 LINE",
"498 776 LINE",
"560 784 OFFCURVE",
"600 822 OFFCURVE",
"610 870 CURVE SMOOTH",
"622 927 OFFCURVE",
"588 967 OFFCURVE",
"500 967 CURVE SMOOTH",
"468 967 OFFCURVE",
"431 961 OFFCURVE",
"410 954 CURVE",
"398 899 LINE",
"412 905 OFFCURVE",
"448 910 OFFCURVE",
"464 910 CURVE SMOOTH",
"510 910 OFFCURVE",
"527 897 OFFCURVE",
"520 866 CURVE SMOOTH",
"512 827 OFFCURVE",
"477 813 OFFCURVE",
"417 813 CURVE",
"402 742 LINE"
);
}
);
width = 697;
}
);
leftKerningGroup = U;
note = Uhookabove;
rightKerningGroup = U;
unicode = 1EE6;
},
{
glyphname = Uhorn;
lastChange = "2015-11-30 00:36:22 +0000";
layers = (
{
layerId = "493B3A41-641C-4718-8E4F-15C1585391FA";
name = "Regular Italic";
paths = (
{
closed = 1;
nodes = (
"504 -15 OFFCURVE",
"607 95 OFFCURVE",
"642 261 CURVE SMOOTH",
"702 543 LINE",
"827 543 OFFCURVE",
"901 617 OFFCURVE",
"920 706 CURVE SMOOTH",
"928 747 LINE",
"834 747 LINE",
"827 711 LINE SMOOTH",
"814 650 OFFCURVE",
"786 624 OFFCURVE",
"719 624 CURVE",
"735 699 LINE",
"633 699 LINE",
"539 257 LINE SMOOTH",
"513 135 OFFCURVE",
"426 77 OFFCURVE",
"315 77 CURVE SMOOTH",
"188 77 OFFCURVE",
"139 131 OFFCURVE",
"166 257 CURVE SMOOTH",
"260 699 LINE",
"158 699 LINE",
"65 261 LINE SMOOTH",
"30 95 OFFCURVE",
"113 -15 OFFCURVE",
"295 -15 CURVE SMOOTH"
);
}
);
width = 838;
}
);
leftKerningGroup = U;
note = Uhorn;
rightKerningGroup = U;
unicode = 01AF;
},
{
glyphname = Uhornacute;
lastChange = "2015-11-30 00:36:25 +0000";
layers = (
{
layerId = "493B3A41-641C-4718-8E4F-15C1585391FA";
name = "Regular Italic";
paths = (
{
closed = 1;
nodes = (
"504 -15 OFFCURVE",
"607 95 OFFCURVE",
"642 261 CURVE SMOOTH",
"702 543 LINE",
"827 543 OFFCURVE",
"901 617 OFFCURVE",
"920 706 CURVE SMOOTH",
"928 747 LINE",
"834 747 LINE",
"827 711 LINE SMOOTH",
"814 650 OFFCURVE",
"786 624 OFFCURVE",
"719 624 CURVE",
"735 699 LINE",
"633 699 LINE",
"539 257 LINE SMOOTH",
"513 135 OFFCURVE",
"426 77 OFFCURVE",
"315 77 CURVE SMOOTH",
"188 77 OFFCURVE",
"139 131 OFFCURVE",
"166 257 CURVE SMOOTH",
"260 699 LINE",
"158 699 LINE",
"65 261 LINE SMOOTH",
"30 95 OFFCURVE",
"113 -15 OFFCURVE",
"295 -15 CURVE SMOOTH"
);
},
{
closed = 1;
nodes = (
"496 741 LINE",
"616 913 LINE",
"509 913 LINE",
"404 741 LINE"
);
}
);
width = 840;
}
);
leftKerningGroup = U;
note = Uhornacute;
rightKerningGroup = U;
unicode = 1EE8;
},
{
glyphname = Uhorndotbelow;
lastChange = "2015-11-30 00:36:22 +0000";
layers = (
{
layerId = "493B3A41-641C-4718-8E4F-15C1585391FA";
name = "Regular Italic";
paths = (
{
closed = 1;
nodes = (
"504 -15 OFFCURVE",
"607 95 OFFCURVE",
"642 261 CURVE SMOOTH",
"702 543 LINE",
"827 543 OFFCURVE",
"901 617 OFFCURVE",
"920 706 CURVE SMOOTH",
"928 747 LINE",
"834 747 LINE",
"827 711 LINE SMOOTH",
"814 650 OFFCURVE",
"786 624 OFFCURVE",
"719 624 CURVE",
"735 699 LINE",
"633 699 LINE",
"539 257 LINE SMOOTH",
"513 135 OFFCURVE",
"426 77 OFFCURVE",
"315 77 CURVE SMOOTH",
"188 77 OFFCURVE",
"139 131 OFFCURVE",
"166 257 CURVE SMOOTH",
"260 699 LINE",
"158 699 LINE",
"65 261 LINE SMOOTH",
"30 95 OFFCURVE",
"113 -15 OFFCURVE",
"295 -15 CURVE SMOOTH"
);
},
{
closed = 1;
nodes = (
"292 -166 OFFCURVE",
"323 -140 OFFCURVE",
"330 -108 CURVE SMOOTH",
"336 -76 OFFCURVE",
"316 -50 OFFCURVE",
"286 -50 CURVE SMOOTH",
"254 -50 OFFCURVE",
"221 -76 OFFCURVE",
"215 -108 CURVE SMOOTH",
"208 -140 OFFCURVE",
"229 -166 OFFCURVE",
"261 -166 CURVE SMOOTH"
);
}
);
width = 840;
}
);
leftKerningGroup = U;
note = Uhorndotbelow;
rightKerningGroup = U;
unicode = 1EF0;
},
{
glyphname = Uhorngrave;
lastChange = "2015-11-30 00:36:22 +0000";
layers = (
{
layerId = "493B3A41-641C-4718-8E4F-15C1585391FA";
name = "Regular Italic";
paths = (
{
closed = 1;
nodes = (
"504 -15 OFFCURVE",
"607 95 OFFCURVE",
"642 261 CURVE SMOOTH",
"702 543 LINE",
"827 543 OFFCURVE",
"901 617 OFFCURVE",
"920 706 CURVE SMOOTH",
"928 747 LINE",
"834 747 LINE",
"827 711 LINE SMOOTH",
"814 650 OFFCURVE",
"786 624 OFFCURVE",
"719 624 CURVE",
"735 699 LINE",
"633 699 LINE",
"539 257 LINE SMOOTH",
"513 135 OFFCURVE",
"426 77 OFFCURVE",
"315 77 CURVE SMOOTH",
"188 77 OFFCURVE",
"139 131 OFFCURVE",
"166 257 CURVE SMOOTH",
"260 699 LINE",
"158 699 LINE",
"65 261 LINE SMOOTH",
"30 95 OFFCURVE",
"113 -15 OFFCURVE",
"295 -15 CURVE SMOOTH"
);
},
{
closed = 1;
nodes = (
"510 741 LINE",
"478 913 LINE",
"371 913 LINE",
"417 741 LINE"
);
}
);
width = 840;
}
);
leftKerningGroup = U;
note = Uhorngrave;
rightKerningGroup = U;
unicode = 1EEA;
},
{
glyphname = Uhornhookabove;
lastChange = "2015-11-30 00:36:24 +0000";
layers = (
{
layerId = "493B3A41-641C-4718-8E4F-15C1585391FA";
name = "Regular Italic";
paths = (
{
closed = 1;
nodes = (
"504 -15 OFFCURVE",
"607 95 OFFCURVE",
"642 261 CURVE SMOOTH",
"702 543 LINE",
"827 543 OFFCURVE",
"901 617 OFFCURVE",
"920 706 CURVE SMOOTH",
"928 747 LINE",
"834 747 LINE",
"827 711 LINE SMOOTH",
"814 650 OFFCURVE",
"786 624 OFFCURVE",
"719 624 CURVE",
"735 699 LINE",
"633 699 LINE",
"539 257 LINE SMOOTH",
"513 135 OFFCURVE",
"426 77 OFFCURVE",
"315 77 CURVE SMOOTH",
"188 77 OFFCURVE",
"139 131 OFFCURVE",
"166 257 CURVE SMOOTH",
"260 699 LINE",
"158 699 LINE",
"65 261 LINE SMOOTH",
"30 95 OFFCURVE",
"113 -15 OFFCURVE",
"295 -15 CURVE SMOOTH"
);
},
{
closed = 1;
nodes = (
"495 742 LINE",
"502 776 LINE",
"564 784 OFFCURVE",
"604 822 OFFCURVE",
"614 870 CURVE SMOOTH",
"626 927 OFFCURVE",
"592 967 OFFCURVE",
"504 967 CURVE SMOOTH",
"472 967 OFFCURVE",
"435 961 OFFCURVE",
"414 954 CURVE",
"402 899 LINE",
"416 905 OFFCURVE",
"452 910 OFFCURVE",
"468 910 CURVE SMOOTH",
"514 910 OFFCURVE",
"531 897 OFFCURVE",
"524 866 CURVE SMOOTH",
"516 827 OFFCURVE",
"481 813 OFFCURVE",
"421 813 CURVE",
"406 742 LINE"
);
}
);
width = 840;
}
);
leftKerningGroup = U;
note = Uhornhookabove;
rightKerningGroup = U;
unicode = 1EEC;
},
{
glyphname = Uhorntilde;
lastChange = "2015-11-30 00:36:23 +0000";
layers = (
{
layerId = "493B3A41-641C-4718-8E4F-15C1585391FA";
name = "Regular Italic";
paths = (
{
closed = 1;
nodes = (
"504 -15 OFFCURVE",
"607 95 OFFCURVE",
"642 261 CURVE SMOOTH",
"702 543 LINE",
"827 543 OFFCURVE",
"901 617 OFFCURVE",
"920 706 CURVE SMOOTH",
"928 747 LINE",
"834 747 LINE",
"827 711 LINE SMOOTH",
"814 650 OFFCURVE",
"786 624 OFFCURVE",
"719 624 CURVE",
"735 699 LINE",
"633 699 LINE",
"539 257 LINE SMOOTH",
"513 135 OFFCURVE",
"426 77 OFFCURVE",
"315 77 CURVE SMOOTH",
"188 77 OFFCURVE",
"139 131 OFFCURVE",
"166 257 CURVE SMOOTH",
"260 699 LINE",
"158 699 LINE",
"65 261 LINE SMOOTH",
"30 95 OFFCURVE",
"113 -15 OFFCURVE",
"295 -15 CURVE SMOOTH"
);
},
{
closed = 1;
nodes = (
"312 782 OFFCURVE",
"347 794 OFFCURVE",
"383 794 CURVE SMOOTH",
"447 794 OFFCURVE",
"484 744 OFFCURVE",
"557 744 CURVE SMOOTH",
"598 744 OFFCURVE",
"635 755 OFFCURVE",
"662 786 CURVE",
"680 872 LINE",
"645 833 OFFCURVE",
"611 821 OFFCURVE",
"574 821 CURVE SMOOTH",
"509 821 OFFCURVE",
"467 871 OFFCURVE",
"399 871 CURVE SMOOTH",
"359 871 OFFCURVE",
"321 859 OFFCURVE",
"292 828 CURVE",
"274 742 LINE"
);
}
);
width = 840;
}
);
leftKerningGroup = U;
note = Uhorntilde;
rightKerningGroup = U;
unicode = 1EEE;
},
{
glyphname = Uhungarumlaut;
lastChange = "2015-11-30 00:36:21 +0000";
layers = (
{
layerId = "493B3A41-641C-4718-8E4F-15C1585391FA";
name = "Regular Italic";
paths = (
{
closed = 1;
nodes = (
"504 -15 OFFCURVE",
"607 95 OFFCURVE",
"642 261 CURVE SMOOTH",
"735 699 LINE",
"633 699 LINE",
"539 257 LINE SMOOTH",
"513 135 OFFCURVE",
"426 77 OFFCURVE",
"315 77 CURVE SMOOTH",
"188 77 OFFCURVE",
"139 131 OFFCURVE",
"166 257 CURVE SMOOTH",
"260 699 LINE",
"158 699 LINE",
"65 261 LINE SMOOTH",
"30 95 OFFCURVE",
"113 -15 OFFCURVE",
"295 -15 CURVE SMOOTH"
);
},
{
closed = 1;
nodes = (
"391 741 LINE",
"511 913 LINE",
"409 913 LINE",
"305 741 LINE"
);
},
{
closed = 1;
nodes = (
"598 741 LINE",
"718 913 LINE",
"616 913 LINE",
"510 741 LINE"
);
}
);
width = 697;
}
);
leftKerningGroup = U;
note = Uhungarumlaut;
rightKerningGroup = U;
unicode = 0170;
},
{
glyphname = Umacron;
lastChange = "2015-11-30 00:36:24 +0000";
layers = (
{
layerId = "493B3A41-641C-4718-8E4F-15C1585391FA";
name = "Regular Italic";
paths = (
{
closed = 1;
nodes = (
"504 -15 OFFCURVE",
"607 95 OFFCURVE",
"642 261 CURVE SMOOTH",
"735 699 LINE",
"633 699 LINE",
"539 257 LINE SMOOTH",
"513 135 OFFCURVE",
"426 77 OFFCURVE",
"315 77 CURVE SMOOTH",
"188 77 OFFCURVE",
"139 131 OFFCURVE",
"166 257 CURVE SMOOTH",
"260 699 LINE",
"158 699 LINE",
"65 261 LINE SMOOTH",
"30 95 OFFCURVE",
"113 -15 OFFCURVE",
"295 -15 CURVE SMOOTH"
);
},
{
closed = 1;
nodes = (
"615 762 LINE",
"630 831 LINE",
"319 831 LINE",
"304 762 LINE"
);
}
);
width = 697;
}
);
leftKerningGroup = U;
note = Umacron;
rightKerningGroup = U;
unicode = 016A;
},
{
glyphname = Uogonek;
lastChange = "2015-11-30 00:36:24 +0000";
layers = (
{
layerId = "493B3A41-641C-4718-8E4F-15C1585391FA";
name = "Regular Italic";
paths = (
{
closed = 1;
nodes = (
"504 -15 OFFCURVE",
"607 95 OFFCURVE",
"642 261 CURVE SMOOTH",
"735 699 LINE",
"633 699 LINE",
"539 257 LINE SMOOTH",
"513 135 OFFCURVE",
"426 77 OFFCURVE",
"315 77 CURVE SMOOTH",
"188 77 OFFCURVE",
"139 131 OFFCURVE",
"166 257 CURVE SMOOTH",
"260 699 LINE",
"158 699 LINE",
"65 261 LINE SMOOTH",
"30 95 OFFCURVE",
"113 -15 OFFCURVE",
"295 -15 CURVE SMOOTH"
);
},
{
closed = 1;
nodes = (
"283 -212 OFFCURVE",
"313 -207 OFFCURVE",
"333 -200 CURVE",
"346 -139 LINE",
"331 -145 OFFCURVE",
"314 -149 OFFCURVE",
"296 -149 CURVE SMOOTH",
"269 -149 OFFCURVE",
"256 -135 OFFCURVE",
"262 -106 CURVE SMOOTH",
"271 -65 OFFCURVE",
"304 -33 OFFCURVE",
"363 0 CURVE",
"269 0 LINE",
"222 -27 OFFCURVE",
"181 -70 OFFCURVE",
"170 -122 CURVE SMOOTH",
"157 -183 OFFCURVE",
"196 -212 OFFCURVE",
"254 -212 CURVE SMOOTH"
);
}
);
width = 697;
}
);
leftKerningGroup = U;
note = Uogonek;
rightKerningGroup = U;
unicode = 0172;
},
{
glyphname = Uring;
lastChange = "2015-11-30 00:36:22 +0000";
layers = (
{
layerId = "493B3A41-641C-4718-8E4F-15C1585391FA";
name = "Regular Italic";
paths = (
{
closed = 1;
nodes = (
"504 -15 OFFCURVE",
"607 95 OFFCURVE",
"642 261 CURVE SMOOTH",
"735 699 LINE",
"633 699 LINE",
"539 257 LINE SMOOTH",
"513 135 OFFCURVE",
"426 77 OFFCURVE",
"315 77 CURVE SMOOTH",
"188 77 OFFCURVE",
"139 131 OFFCURVE",
"166 257 CURVE SMOOTH",
"260 699 LINE",
"158 699 LINE",
"65 261 LINE SMOOTH",
"30 95 OFFCURVE",
"113 -15 OFFCURVE",
"295 -15 CURVE SMOOTH"
);
},
{
closed = 1;
nodes = (
"524 742 OFFCURVE",
"581 793 OFFCURVE",
"595 858 CURVE SMOOTH",
"609 922 OFFCURVE",
"568 974 OFFCURVE",
"504 974 CURVE SMOOTH",
"433 974 OFFCURVE",
"377 922 OFFCURVE",
"363 858 CURVE SMOOTH",
"349 793 OFFCURVE",
"389 742 OFFCURVE",
"454 742 CURVE SMOOTH"
);
},
{
closed = 1;
nodes = (
"430 803 OFFCURVE",
"419 828 OFFCURVE",
"425 858 CURVE SMOOTH",
"431 887 OFFCURVE",
"460 912 OFFCURVE",
"490 912 CURVE SMOOTH",
"526 912 OFFCURVE",
"539 887 OFFCURVE",
"533 858 CURVE SMOOTH",
"527 828 OFFCURVE",
"496 803 OFFCURVE",
"467 803 CURVE SMOOTH"
);
}
);
width = 697;
}
);
leftKerningGroup = U;
note = Uring;
rightKerningGroup = U;
unicode = 016E;
},
{
glyphname = Utilde;
lastChange = "2015-11-30 00:36:21 +0000";
layers = (
{
layerId = "493B3A41-641C-4718-8E4F-15C1585391FA";
name = "Regular Italic";
paths = (
{
closed = 1;
nodes = (
"504 -15 OFFCURVE",
"607 95 OFFCURVE",
"642 261 CURVE SMOOTH",
"735 699 LINE",
"633 699 LINE",
"539 257 LINE SMOOTH",
"513 135 OFFCURVE",
"426 77 OFFCURVE",
"315 77 CURVE SMOOTH",
"188 77 OFFCURVE",
"139 131 OFFCURVE",
"166 257 CURVE SMOOTH",
"260 699 LINE",
"158 699 LINE",
"65 261 LINE SMOOTH",
"30 95 OFFCURVE",
"113 -15 OFFCURVE",
"295 -15 CURVE SMOOTH"
);
},
{
closed = 1;
nodes = (
"307 782 OFFCURVE",
"342 794 OFFCURVE",
"378 794 CURVE SMOOTH",
"442 794 OFFCURVE",
"479 744 OFFCURVE",
"552 744 CURVE SMOOTH",
"593 744 OFFCURVE",
"630 755 OFFCURVE",
"657 786 CURVE",
"675 872 LINE",
"640 833 OFFCURVE",
"606 821 OFFCURVE",
"569 821 CURVE SMOOTH",
"504 821 OFFCURVE",
"462 871 OFFCURVE",
"394 871 CURVE SMOOTH",
"354 871 OFFCURVE",
"316 859 OFFCURVE",
"287 828 CURVE",
"269 742 LINE"
);
}
);
width = 697;
}
);
leftKerningGroup = U;
note = Utilde;
rightKerningGroup = U;
unicode = 0168;
},
{
glyphname = V;
lastChange = "2015-11-30 00:36:21 +0000";
layers = (
{
layerId = "493B3A41-641C-4718-8E4F-15C1585391FA";
name = "Regular Italic";
paths = (
{
closed = 1;
nodes = (
"372 0 LINE",
"799 699 LINE",
"688 699 LINE",
"349 139 LINE",
"248 699 LINE",
"143 699 LINE",
"274 0 LINE"
);
}
);
width = 746;
}
);
note = V;
unicode = 0056;
},
{
glyphname = W;
lastChange = "2015-11-30 00:36:22 +0000";
layers = (
{
layerId = "493B3A41-641C-4718-8E4F-15C1585391FA";
name = "Regular Italic";
paths = (
{
closed = 1;
nodes = (
"299 0 LINE",
"565 528 LINE",
"608 0 LINE",
"702 0 LINE",
"1054 699 LINE",
"948 699 LINE",
"679 168 LINE",
"639 699 LINE",
"559 699 LINE",
"292 168 LINE",
"249 699 LINE",
"143 699 LINE",
"199 0 LINE"
);
}
);
width = 1001;
}
);
leftKerningGroup = W;
note = W;
rightKerningGroup = W;
unicode = 0057;
},
{
glyphname = Wacute;
lastChange = "2015-11-30 00:36:21 +0000";
layers = (
{
layerId = "493B3A41-641C-4718-8E4F-15C1585391FA";
name = "Regular Italic";
paths = (
{
closed = 1;
nodes = (
"299 0 LINE",
"565 528 LINE",
"608 0 LINE",
"702 0 LINE",
"1054 699 LINE",
"948 699 LINE",
"679 168 LINE",
"639 699 LINE",
"559 699 LINE",
"292 168 LINE",
"249 699 LINE",
"143 699 LINE",
"199 0 LINE"
);
},
{
closed = 1;
nodes = (
"664 741 LINE",
"784 913 LINE",
"677 913 LINE",
"572 741 LINE"
);
}
);
width = 1001;
}
);
leftKerningGroup = W;
note = Wacute;
rightKerningGroup = W;
unicode = 1E82;
},
{
glyphname = Wcircumflex;
lastChange = "2015-11-30 00:36:21 +0000";
layers = (
{
layerId = "493B3A41-641C-4718-8E4F-15C1585391FA";
name = "Regular Italic";
paths = (
{
closed = 1;
nodes = (
"302 0 LINE",
"568 528 LINE",
"611 0 LINE",
"705 0 LINE",
"1057 699 LINE",
"951 699 LINE",
"682 168 LINE",
"642 699 LINE",
"562 699 LINE",
"295 168 LINE",
"252 699 LINE",
"146 699 LINE",
"202 0 LINE"
);
},
{
closed = 1;
nodes = (
"529 741 LINE",
"636 848 LINE",
"697 741 LINE",
"796 741 LINE",
"690 907 LINE",
"601 907 LINE",
"424 741 LINE"
);
}
);
width = 1007;
}
);
leftKerningGroup = W;
note = Wcircumflex;
rightKerningGroup = W;
unicode = 0174;
},
{
glyphname = Wdieresis;
lastChange = "2015-11-30 00:36:23 +0000";
layers = (
{
layerId = "493B3A41-641C-4718-8E4F-15C1585391FA";
name = "Regular Italic";
paths = (
{
closed = 1;
nodes = (
"299 0 LINE",
"565 528 LINE",
"608 0 LINE",
"702 0 LINE",
"1054 699 LINE",
"948 699 LINE",
"679 168 LINE",
"639 699 LINE",
"559 699 LINE",
"292 168 LINE",
"249 699 LINE",
"143 699 LINE",
"199 0 LINE"
);
},
{
closed = 1;
nodes = (
"525 741 OFFCURVE",
"556 767 OFFCURVE",
"563 799 CURVE SMOOTH",
"570 831 OFFCURVE",
"550 857 OFFCURVE",
"519 857 CURVE SMOOTH",
"487 857 OFFCURVE",
"455 831 OFFCURVE",
"448 799 CURVE SMOOTH",
"441 767 OFFCURVE",
"463 741 OFFCURVE",
"494 741 CURVE SMOOTH"
);
},
{
closed = 1;
nodes = (
"752 741 OFFCURVE",
"783 767 OFFCURVE",
"790 799 CURVE SMOOTH",
"797 831 OFFCURVE",
"777 857 OFFCURVE",
"746 857 CURVE SMOOTH",
"714 857 OFFCURVE",
"681 831 OFFCURVE",
"674 799 CURVE SMOOTH",
"667 767 OFFCURVE",
"689 741 OFFCURVE",
"721 741 CURVE SMOOTH"
);
}
);
width = 1001;
}
);
leftKerningGroup = W;
note = Wdieresis;
rightKerningGroup = W;
unicode = 1E84;
},
{
glyphname = Wgrave;
lastChange = "2015-11-30 00:36:23 +0000";
layers = (
{
layerId = "493B3A41-641C-4718-8E4F-15C1585391FA";
name = "Regular Italic";
paths = (
{
closed = 1;
nodes = (
"299 0 LINE",
"565 528 LINE",
"608 0 LINE",
"702 0 LINE",
"1054 699 LINE",
"948 699 LINE",
"679 168 LINE",
"639 699 LINE",
"559 699 LINE",
"292 168 LINE",
"249 699 LINE",
"143 699 LINE",
"199 0 LINE"
);
},
{
closed = 1;
nodes = (
"648 741 LINE",
"616 913 LINE",
"509 913 LINE",
"555 741 LINE"
);
}
);
width = 1001;
}
);
leftKerningGroup = W;
note = Wgrave;
rightKerningGroup = W;
unicode = 1E80;
},
{
glyphname = X;
lastChange = "2015-11-30 00:36:25 +0000";
layers = (
{
layerId = "493B3A41-641C-4718-8E4F-15C1585391FA";
name = "Regular Italic";
paths = (
{
closed = 1;
nodes = (
"113 0 LINE",
"374 276 LINE",
"519 0 LINE",
"636 0 LINE",
"449 355 LINE",
"775 699 LINE",
"658 699 LINE",
"408 435 LINE",
"270 699 LINE",
"153 699 LINE",
"332 355 LINE",
"-4 0 LINE"
);
}
);
width = 732;
}
);
note = X;
unicode = 0058;
},
{
glyphname = Y;
lastChange = "2015-11-30 00:36:24 +0000";
layers = (
{
layerId = "493B3A41-641C-4718-8E4F-15C1585391FA";
name = "Regular Italic";
paths = (
{
closed = 1;
nodes = (
"348 0 LINE",
"404 265 LINE",
"753 699 LINE",
"642 699 LINE",
"372 362 LINE",
"249 699 LINE",
"143 699 LINE",
"305 265 LINE",
"249 0 LINE"
);
}
);
width = 700;
}
);
leftKerningGroup = Y;
note = Y;
rightKerningGroup = Y;
unicode = 0059;
},
{
glyphname = Yacute;
lastChange = "2015-11-30 00:36:22 +0000";
layers = (
{
layerId = "493B3A41-641C-4718-8E4F-15C1585391FA";
name = "Regular Italic";
paths = (
{
closed = 1;
nodes = (
"348 0 LINE",
"404 265 LINE",
"753 699 LINE",
"642 699 LINE",
"372 362 LINE",
"249 699 LINE",
"143 699 LINE",
"305 265 LINE",
"249 0 LINE"
);
},
{
closed = 1;
nodes = (
"489 754 LINE",
"609 926 LINE",
"502 926 LINE",
"397 754 LINE"
);
}
);
width = 700;
}
);
leftKerningGroup = Y;
note = Yacute;
rightKerningGroup = Y;
unicode = 00DD;
},
{
glyphname = Ycircumflex;
lastChange = "2015-11-30 00:36:22 +0000";
layers = (
{
layerId = "493B3A41-641C-4718-8E4F-15C1585391FA";
name = "Regular Italic";
paths = (
{
closed = 1;
nodes = (
"351 0 LINE",
"407 265 LINE",
"756 699 LINE",
"645 699 LINE",
"375 362 LINE",
"252 699 LINE",
"146 699 LINE",
"308 265 LINE",
"252 0 LINE"
);
},
{
closed = 1;
nodes = (
"378 741 LINE",
"485 848 LINE",
"546 741 LINE",
"645 741 LINE",
"539 907 LINE",
"450 907 LINE",
"273 741 LINE"
);
}
);
width = 706;
}
);
leftKerningGroup = Y;
note = Ycircumflex;
rightKerningGroup = Y;
unicode = 0176;
},
{
glyphname = Ydieresis;
lastChange = "2015-11-30 00:36:22 +0000";
layers = (
{
layerId = "493B3A41-641C-4718-8E4F-15C1585391FA";
name = "Regular Italic";
paths = (
{
closed = 1;
nodes = (
"348 0 LINE",
"404 265 LINE",
"753 699 LINE",
"642 699 LINE",
"372 362 LINE",
"249 699 LINE",
"143 699 LINE",
"305 265 LINE",
"249 0 LINE"
);
},
{
closed = 1;
nodes = (
"364 752 OFFCURVE",
"395 778 OFFCURVE",
"402 810 CURVE SMOOTH",
"409 842 OFFCURVE",
"389 868 OFFCURVE",
"358 868 CURVE SMOOTH",
"326 868 OFFCURVE",
"294 842 OFFCURVE",
"287 810 CURVE SMOOTH",
"280 778 OFFCURVE",
"302 752 OFFCURVE",
"333 752 CURVE SMOOTH"
);
},
{
closed = 1;
nodes = (
"591 752 OFFCURVE",
"622 778 OFFCURVE",
"629 810 CURVE SMOOTH",
"636 842 OFFCURVE",
"616 868 OFFCURVE",
"585 868 CURVE SMOOTH",
"553 868 OFFCURVE",
"520 842 OFFCURVE",
"513 810 CURVE SMOOTH",
"506 778 OFFCURVE",
"528 752 OFFCURVE",
"560 752 CURVE SMOOTH"
);
}
);
width = 700;
}
);
leftKerningGroup = Y;
note = Ydieresis;
rightKerningGroup = Y;
unicode = 0178;
},
{
glyphname = Ydotaccent;
lastChange = "2015-11-30 00:36:23 +0000";
layers = (
{
layerId = "493B3A41-641C-4718-8E4F-15C1585391FA";
name = "Regular Italic";
paths = (
{
closed = 1;
nodes = (
"348 0 LINE",
"404 265 LINE",
"753 699 LINE",
"642 699 LINE",
"372 362 LINE",
"249 699 LINE",
"143 699 LINE",
"305 265 LINE",
"249 0 LINE"
);
},
{
closed = 1;
nodes = (
"488 741 OFFCURVE",
"519 767 OFFCURVE",
"526 799 CURVE SMOOTH",
"533 831 OFFCURVE",
"513 857 OFFCURVE",
"482 857 CURVE SMOOTH",
"450 857 OFFCURVE",
"417 831 OFFCURVE",
"410 799 CURVE SMOOTH",
"403 767 OFFCURVE",
"425 741 OFFCURVE",
"457 741 CURVE SMOOTH"
);
}
);
width = 700;
}
);
leftKerningGroup = Y;
note = Ydotaccent;
rightKerningGroup = Y;
unicode = 1E8E;
},
{
glyphname = Ydotbelow;
lastChange = "2015-11-30 00:36:21 +0000";
layers = (
{
layerId = "493B3A41-641C-4718-8E4F-15C1585391FA";
name = "Regular Italic";
paths = (
{
closed = 1;
nodes = (
"348 0 LINE",
"404 265 LINE",
"753 699 LINE",
"642 699 LINE",
"372 362 LINE",
"249 699 LINE",
"143 699 LINE",
"305 265 LINE",
"249 0 LINE"
);
},
{
closed = 1;
nodes = (
"296 -166 OFFCURVE",
"327 -140 OFFCURVE",
"334 -108 CURVE SMOOTH",
"340 -76 OFFCURVE",
"320 -50 OFFCURVE",
"290 -50 CURVE SMOOTH",
"258 -50 OFFCURVE",
"225 -76 OFFCURVE",
"219 -108 CURVE SMOOTH",
"212 -140 OFFCURVE",
"233 -166 OFFCURVE",
"265 -166 CURVE SMOOTH"
);
}
);
width = 700;
}
);
leftKerningGroup = Y;
note = Ydotbelow;
rightKerningGroup = Y;
unicode = 1EF4;
},
{
glyphname = Ygrave;
lastChange = "2015-11-30 00:36:22 +0000";
layers = (
{
layerId = "493B3A41-641C-4718-8E4F-15C1585391FA";
name = "Regular Italic";
paths = (
{
closed = 1;
nodes = (
"348 0 LINE",
"404 265 LINE",
"753 699 LINE",
"642 699 LINE",
"372 362 LINE",
"249 699 LINE",
"143 699 LINE",
"305 265 LINE",
"249 0 LINE"
);
},
{
closed = 1;
nodes = (
"505 741 LINE",
"473 913 LINE",
"366 913 LINE",
"412 741 LINE"
);
}
);
width = 700;
}
);
leftKerningGroup = Y;
note = Ygrave;
rightKerningGroup = Y;
unicode = 1EF2;
},
{
glyphname = Yhookabove;
lastChange = "2015-11-30 00:36:24 +0000";
layers = (
{
layerId = "493B3A41-641C-4718-8E4F-15C1585391FA";
name = "Regular Italic";
paths = (
{
closed = 1;
nodes = (
"348 0 LINE",
"404 265 LINE",
"753 699 LINE",
"642 699 LINE",
"372 362 LINE",
"249 699 LINE",
"143 699 LINE",
"305 265 LINE",
"249 0 LINE"
);
},
{
closed = 1;
nodes = (
"495 742 LINE",
"502 776 LINE",
"564 784 OFFCURVE",
"604 822 OFFCURVE",
"614 870 CURVE SMOOTH",
"626 927 OFFCURVE",
"592 967 OFFCURVE",
"504 967 CURVE SMOOTH",
"472 967 OFFCURVE",
"435 961 OFFCURVE",
"414 954 CURVE",
"402 899 LINE",
"416 905 OFFCURVE",
"452 910 OFFCURVE",
"468 910 CURVE SMOOTH",
"514 910 OFFCURVE",
"531 897 OFFCURVE",
"524 866 CURVE SMOOTH",
"516 827 OFFCURVE",
"481 813 OFFCURVE",
"421 813 CURVE",
"406 742 LINE"
);
}
);
width = 700;
}
);
leftKerningGroup = Y;
note = Yhookabove;
rightKerningGroup = Y;
unicode = 1EF6;
},
{
glyphname = Ytilde;
lastChange = "2015-11-30 00:36:21 +0000";
layers = (
{
layerId = "493B3A41-641C-4718-8E4F-15C1585391FA";
name = "Regular Italic";
paths = (
{
closed = 1;
nodes = (
"348 0 LINE",
"404 265 LINE",
"753 699 LINE",
"642 699 LINE",
"372 362 LINE",
"249 699 LINE",
"143 699 LINE",
"305 265 LINE",
"249 0 LINE"
);
},
{
closed = 1;
nodes = (
"305 782 OFFCURVE",
"340 794 OFFCURVE",
"376 794 CURVE SMOOTH",
"440 794 OFFCURVE",
"477 744 OFFCURVE",
"550 744 CURVE SMOOTH",
"591 744 OFFCURVE",
"628 755 OFFCURVE",
"655 786 CURVE",
"673 872 LINE",
"638 833 OFFCURVE",
"604 821 OFFCURVE",
"567 821 CURVE SMOOTH",
"502 821 OFFCURVE",
"460 871 OFFCURVE",
"392 871 CURVE SMOOTH",
"352 871 OFFCURVE",
"314 859 OFFCURVE",
"285 828 CURVE",
"267 742 LINE"
);
}
);
width = 700;
}
);
leftKerningGroup = Y;
note = Ytilde;
rightKerningGroup = Y;
unicode = 1EF8;
},
{
glyphname = Z;
lastChange = "2015-11-30 00:36:22 +0000";
layers = (
{
layerId = "493B3A41-641C-4718-8E4F-15C1585391FA";
name = "Regular Italic";
paths = (
{
closed = 1;
nodes = (
"523 0 LINE",
"541 85 LINE",
"138 85 LINE",
"639 629 LINE",
"654 699 LINE",
"152 699 LINE",
"134 613 LINE",
"512 613 LINE",
"9 69 LINE",
"-5 0 LINE"
);
}
);
width = 618;
}
);
leftKerningGroup = Z;
note = Z;
rightKerningGroup = Z;
unicode = 005A;
},
{
glyphname = Zacute;
lastChange = "2015-11-30 00:36:23 +0000";
layers = (
{
layerId = "493B3A41-641C-4718-8E4F-15C1585391FA";
name = "Regular Italic";
paths = (
{
closed = 1;
nodes = (
"523 0 LINE",
"541 85 LINE",
"138 85 LINE",
"639 629 LINE",
"654 699 LINE",
"152 699 LINE",
"134 613 LINE",
"512 613 LINE",
"9 69 LINE",
"-5 0 LINE"
);
},
{
closed = 1;
nodes = (
"439 741 LINE",
"559 913 LINE",
"452 913 LINE",
"347 741 LINE"
);
}
);
width = 618;
}
);
leftKerningGroup = Z;
note = Zacute;
rightKerningGroup = Z;
unicode = 0179;
},
{
glyphname = Zcaron;
lastChange = "2015-11-30 00:36:24 +0000";
layers = (
{
layerId = "493B3A41-641C-4718-8E4F-15C1585391FA";
name = "Regular Italic";
paths = (
{
closed = 1;
nodes = (
"523 0 LINE",
"541 85 LINE",
"138 85 LINE",
"639 629 LINE",
"654 699 LINE",
"152 699 LINE",
"134 613 LINE",
"512 613 LINE",
"9 69 LINE",
"-5 0 LINE"
);
},
{
closed = 1;
nodes = (
"458 742 LINE",
"636 908 LINE",
"531 908 LINE",
"424 801 LINE",
"363 908 LINE",
"264 908 LINE",
"369 742 LINE"
);
}
);
width = 618;
}
);
leftKerningGroup = Z;
note = Zcaron;
rightKerningGroup = Z;
unicode = 017D;
},
{
glyphname = Zdotaccent;
lastChange = "2015-11-30 00:36:23 +0000";
layers = (
{
layerId = "493B3A41-641C-4718-8E4F-15C1585391FA";
name = "Regular Italic";
paths = (
{
closed = 1;
nodes = (
"523 0 LINE",
"541 85 LINE",
"138 85 LINE",
"639 629 LINE",
"654 699 LINE",
"152 699 LINE",
"134 613 LINE",
"512 613 LINE",
"9 69 LINE",
"-5 0 LINE"
);
},
{
closed = 1;
nodes = (
"437 741 OFFCURVE",
"468 767 OFFCURVE",
"475 799 CURVE SMOOTH",
"482 831 OFFCURVE",
"462 857 OFFCURVE",
"431 857 CURVE SMOOTH",
"399 857 OFFCURVE",
"366 831 OFFCURVE",
"359 799 CURVE SMOOTH",
"352 767 OFFCURVE",
"374 741 OFFCURVE",
"406 741 CURVE SMOOTH"
);
}
);
width = 618;
}
);
leftKerningGroup = Z;
note = Zdotaccent;
rightKerningGroup = Z;
unicode = 017B;
},
{
glyphname = Zdotbelow;
lastChange = "2015-11-30 00:36:24 +0000";
layers = (
{
layerId = "493B3A41-641C-4718-8E4F-15C1585391FA";
name = "Regular Italic";
paths = (
{
closed = 1;
nodes = (
"523 0 LINE",
"541 85 LINE",
"138 85 LINE",
"639 629 LINE",
"654 699 LINE",
"152 699 LINE",
"134 613 LINE",
"512 613 LINE",
"9 69 LINE",
"-5 0 LINE"
);
},
{
closed = 1;
nodes = (
"265 -166 OFFCURVE",
"296 -140 OFFCURVE",
"303 -108 CURVE SMOOTH",
"309 -76 OFFCURVE",
"289 -50 OFFCURVE",
"259 -50 CURVE SMOOTH",
"227 -50 OFFCURVE",
"194 -76 OFFCURVE",
"188 -108 CURVE SMOOTH",
"181 -140 OFFCURVE",
"202 -166 OFFCURVE",
"234 -166 CURVE SMOOTH"
);
}
);
width = 618;
}
);
leftKerningGroup = Z;
note = Zdotbelow;
rightKerningGroup = Z;
unicode = 1E92;
},
{
glyphname = a;
lastChange = "2015-11-30 00:36:21 +0000";
layers = (
{
layerId = "493B3A41-641C-4718-8E4F-15C1585391FA";
name = "Regular Italic";
paths = (
{
closed = 1;
nodes = (
"330 -15 OFFCURVE",
"396 11 OFFCURVE",
"461 70 CURVE",
"447 0 LINE",
"545 0 LINE",
"647 480 LINE",
"546 480 LINE",
"532 416 LINE",
"498 469 OFFCURVE",
"436 495 OFFCURVE",
"352 495 CURVE SMOOTH",
"206 495 OFFCURVE",
"78 391 OFFCURVE",
"45 239 CURVE SMOOTH",
"12 84 OFFCURVE",
"110 -15 OFFCURVE",
"243 -15 CURVE SMOOTH"
);
},
{
closed = 1;
nodes = (
"155 65 OFFCURVE",
"125 134 OFFCURVE",
"147 239 CURVE SMOOTH",
"170 344 OFFCURVE",
"259 414 OFFCURVE",
"357 414 CURVE SMOOTH",
"440 414 OFFCURVE",
"499 367 OFFCURVE",
"506 293 CURVE",
"483 185 LINE",
"442 111 OFFCURVE",
"365 65 OFFCURVE",
"283 65 CURVE SMOOTH"
);
}
);
width = 660;
}
);
leftKerningGroup = a;
note = a;
rightKerningGroup = a;
unicode = 0061;
},
{
glyphname = aacute;
lastChange = "2015-11-30 00:36:23 +0000";
layers = (
{
layerId = "493B3A41-641C-4718-8E4F-15C1585391FA";
name = "Regular Italic";
paths = (
{
closed = 1;
nodes = (
"330 -15 OFFCURVE",
"396 11 OFFCURVE",
"461 70 CURVE",
"447 0 LINE",
"545 0 LINE",
"647 480 LINE",
"546 480 LINE",
"532 416 LINE",
"498 469 OFFCURVE",
"436 495 OFFCURVE",
"352 495 CURVE SMOOTH",
"206 495 OFFCURVE",
"78 391 OFFCURVE",
"45 239 CURVE SMOOTH",
"12 84 OFFCURVE",
"110 -15 OFFCURVE",
"243 -15 CURVE SMOOTH"
);
},
{
closed = 1;
nodes = (
"155 65 OFFCURVE",
"125 134 OFFCURVE",
"147 239 CURVE SMOOTH",
"170 344 OFFCURVE",
"259 414 OFFCURVE",
"357 414 CURVE SMOOTH",
"440 414 OFFCURVE",
"499 367 OFFCURVE",
"506 293 CURVE",
"483 185 LINE",
"442 111 OFFCURVE",
"365 65 OFFCURVE",
"283 65 CURVE SMOOTH"
);
},
{
closed = 1;
nodes = (
"478 534 LINE",
"598 706 LINE",
"491 706 LINE",
"386 534 LINE"
);
}
);
width = 655;
}
);
leftKerningGroup = a;
note = aacute;
rightKerningGroup = a;
unicode = 00E1;
},
{
glyphname = abreve;
lastChange = "2015-11-30 00:36:22 +0000";
layers = (
{
layerId = "493B3A41-641C-4718-8E4F-15C1585391FA";
name = "Regular Italic";
paths = (
{
closed = 1;
nodes = (
"330 -15 OFFCURVE",
"396 11 OFFCURVE",
"461 70 CURVE",
"447 0 LINE",
"545 0 LINE",
"647 480 LINE",
"546 480 LINE",
"532 416 LINE",
"498 469 OFFCURVE",
"436 495 OFFCURVE",
"352 495 CURVE SMOOTH",
"206 495 OFFCURVE",
"78 391 OFFCURVE",
"45 239 CURVE SMOOTH",
"12 84 OFFCURVE",
"110 -15 OFFCURVE",
"243 -15 CURVE SMOOTH"
);
},
{
closed = 1;
nodes = (
"155 65 OFFCURVE",
"125 134 OFFCURVE",
"147 239 CURVE SMOOTH",
"170 344 OFFCURVE",
"259 414 OFFCURVE",
"357 414 CURVE SMOOTH",
"440 414 OFFCURVE",
"499 367 OFFCURVE",
"506 293 CURVE",
"483 185 LINE",
"442 111 OFFCURVE",
"365 65 OFFCURVE",
"283 65 CURVE SMOOTH"
);
},
{
closed = 1;
nodes = (
"543 535 OFFCURVE",
"613 593 OFFCURVE",
"630 675 CURVE",
"550 675 LINE",
"540 630 OFFCURVE",
"508 604 OFFCURVE",
"462 604 CURVE SMOOTH",
"416 604 OFFCURVE",
"394 630 OFFCURVE",
"404 675 CURVE",
"329 675 LINE",
"313 593 OFFCURVE",
"356 535 OFFCURVE",
"450 535 CURVE SMOOTH"
);
}
);
width = 655;
}
);
leftKerningGroup = a;
note = abreve;
rightKerningGroup = a;
unicode = 0103;
},
{
glyphname = abreveacute;
lastChange = "2015-11-30 00:36:24 +0000";
layers = (
{
layerId = "493B3A41-641C-4718-8E4F-15C1585391FA";
name = "Regular Italic";
paths = (
{
closed = 1;
nodes = (
"330 -15 OFFCURVE",
"396 11 OFFCURVE",
"461 70 CURVE",
"447 0 LINE",
"545 0 LINE",
"647 480 LINE",
"546 480 LINE",
"532 416 LINE",
"498 469 OFFCURVE",
"436 495 OFFCURVE",
"352 495 CURVE SMOOTH",
"206 495 OFFCURVE",
"78 391 OFFCURVE",
"45 239 CURVE SMOOTH",
"12 84 OFFCURVE",
"110 -15 OFFCURVE",
"243 -15 CURVE SMOOTH"
);
},
{
closed = 1;
nodes = (
"155 65 OFFCURVE",
"125 134 OFFCURVE",
"147 239 CURVE SMOOTH",
"170 344 OFFCURVE",
"259 414 OFFCURVE",
"357 414 CURVE SMOOTH",
"440 414 OFFCURVE",
"499 367 OFFCURVE",
"506 293 CURVE",
"483 185 LINE",
"442 111 OFFCURVE",
"365 65 OFFCURVE",
"283 65 CURVE SMOOTH"
);
},
{
closed = 1;
nodes = (
"535 535 OFFCURVE",
"602 591 OFFCURVE",
"619 672 CURVE",
"542 672 LINE",
"533 628 OFFCURVE",
"501 602 OFFCURVE",
"455 602 CURVE SMOOTH",
"410 602 OFFCURVE",
"390 628 OFFCURVE",
"399 672 CURVE",
"327 672 LINE",
"310 591 OFFCURVE",
"353 535 OFFCURVE",
"444 535 CURVE SMOOTH"
);
},
{
closed = 1;
nodes = (
"503 667 LINE",
"594 791 LINE",
"511 791 LINE",
"433 667 LINE"
);
}
);
width = 655;
}
);
leftKerningGroup = a;
note = abreveacute;
rightKerningGroup = a;
unicode = 1EAF;
},
{
glyphname = abrevedotbelow;
lastChange = "2015-11-30 00:36:22 +0000";
layers = (
{
layerId = "493B3A41-641C-4718-8E4F-15C1585391FA";
name = "Regular Italic";
paths = (
{
closed = 1;
nodes = (
"330 -15 OFFCURVE",
"396 11 OFFCURVE",
"461 70 CURVE",
"447 0 LINE",
"545 0 LINE",
"647 480 LINE",
"546 480 LINE",
"532 416 LINE",
"498 469 OFFCURVE",
"436 495 OFFCURVE",
"352 495 CURVE SMOOTH",
"206 495 OFFCURVE",
"78 391 OFFCURVE",
"45 239 CURVE SMOOTH",
"12 84 OFFCURVE",
"110 -15 OFFCURVE",
"243 -15 CURVE SMOOTH"
);
},
{
closed = 1;
nodes = (
"313 -166 OFFCURVE",
"344 -140 OFFCURVE",
"351 -108 CURVE SMOOTH",
"357 -76 OFFCURVE",
"337 -50 OFFCURVE",
"307 -50 CURVE SMOOTH",
"275 -50 OFFCURVE",
"242 -76 OFFCURVE",
"236 -108 CURVE SMOOTH",
"229 -140 OFFCURVE",
"250 -166 OFFCURVE",
"282 -166 CURVE SMOOTH"
);
},
{
closed = 1;
nodes = (
"155 65 OFFCURVE",
"125 134 OFFCURVE",
"147 239 CURVE SMOOTH",
"170 344 OFFCURVE",
"259 414 OFFCURVE",
"357 414 CURVE SMOOTH",
"440 414 OFFCURVE",
"499 367 OFFCURVE",
"506 293 CURVE",
"483 185 LINE",
"442 111 OFFCURVE",
"365 65 OFFCURVE",
"283 65 CURVE SMOOTH"
);
},
{
closed = 1;
nodes = (
"521 535 OFFCURVE",
"591 593 OFFCURVE",
"608 675 CURVE",
"528 675 LINE",
"518 630 OFFCURVE",
"486 604 OFFCURVE",
"440 604 CURVE SMOOTH",
"394 604 OFFCURVE",
"372 630 OFFCURVE",
"382 675 CURVE",
"307 675 LINE",
"291 593 OFFCURVE",
"334 535 OFFCURVE",
"428 535 CURVE SMOOTH"
);
}
);
width = 655;
}
);
leftKerningGroup = a;
note = abrevedotbelow;
rightKerningGroup = a;
unicode = 1EB7;
},
{
glyphname = abrevegrave;
lastChange = "2015-11-30 00:36:22 +0000";
layers = (
{
layerId = "493B3A41-641C-4718-8E4F-15C1585391FA";
name = "Regular Italic";
paths = (
{
closed = 1;
nodes = (
"330 -15 OFFCURVE",
"396 11 OFFCURVE",
"461 70 CURVE",
"447 0 LINE",
"545 0 LINE",
"647 480 LINE",
"546 480 LINE",
"532 416 LINE",
"498 469 OFFCURVE",
"436 495 OFFCURVE",
"352 495 CURVE SMOOTH",
"206 495 OFFCURVE",
"78 391 OFFCURVE",
"45 239 CURVE SMOOTH",
"12 84 OFFCURVE",
"110 -15 OFFCURVE",
"243 -15 CURVE SMOOTH"
);
},
{
closed = 1;
nodes = (
"155 65 OFFCURVE",
"125 134 OFFCURVE",
"147 239 CURVE SMOOTH",
"170 344 OFFCURVE",
"259 414 OFFCURVE",
"357 414 CURVE SMOOTH",
"440 414 OFFCURVE",
"499 367 OFFCURVE",
"506 293 CURVE",
"483 185 LINE",
"442 111 OFFCURVE",
"365 65 OFFCURVE",
"283 65 CURVE SMOOTH"
);
},
{
closed = 1;
nodes = (
"533 532 OFFCURVE",
"600 588 OFFCURVE",
"617 669 CURVE",
"540 669 LINE",
"531 625 OFFCURVE",
"499 599 OFFCURVE",
"453 599 CURVE SMOOTH",
"408 599 OFFCURVE",
"388 625 OFFCURVE",
"397 669 CURVE",
"325 669 LINE",
"308 588 OFFCURVE",
"351 532 OFFCURVE",
"442 532 CURVE SMOOTH"
);
},
{
closed = 1;
nodes = (
"510 664 LINE",
"484 788 LINE",
"401 788 LINE",
"440 664 LINE"
);
}
);
width = 655;
}
);
leftKerningGroup = a;
note = abrevegrave;
rightKerningGroup = a;
unicode = 1EB1;
},
{
glyphname = abrevehookabove;
lastChange = "2015-11-30 00:36:21 +0000";
layers = (
{
layerId = "493B3A41-641C-4718-8E4F-15C1585391FA";
name = "Regular Italic";
paths = (
{
closed = 1;
nodes = (
"330 -15 OFFCURVE",
"396 11 OFFCURVE",
"461 70 CURVE",
"447 0 LINE",
"545 0 LINE",
"647 480 LINE",
"546 480 LINE",
"532 416 LINE",
"498 469 OFFCURVE",
"436 495 OFFCURVE",
"352 495 CURVE SMOOTH",
"206 495 OFFCURVE",
"78 391 OFFCURVE",
"45 239 CURVE SMOOTH",
"12 84 OFFCURVE",
"110 -15 OFFCURVE",
"243 -15 CURVE SMOOTH"
);
},
{
closed = 1;
nodes = (
"155 65 OFFCURVE",
"125 134 OFFCURVE",
"147 239 CURVE SMOOTH",
"170 344 OFFCURVE",
"259 414 OFFCURVE",
"357 414 CURVE SMOOTH",
"440 414 OFFCURVE",
"499 367 OFFCURVE",
"506 293 CURVE",
"483 185 LINE",
"442 111 OFFCURVE",
"365 65 OFFCURVE",
"283 65 CURVE SMOOTH"
);
},
{
closed = 1;
nodes = (
"533 532 OFFCURVE",
"599 588 OFFCURVE",
"616 669 CURVE",
"541 669 LINE",
"532 625 OFFCURVE",
"498 598 OFFCURVE",
"453 598 CURVE SMOOTH",
"407 598 OFFCURVE",
"386 625 OFFCURVE",
"395 669 CURVE",
"324 669 LINE",
"307 588 OFFCURVE",
"351 532 OFFCURVE",
"442 532 CURVE SMOOTH"
);
},
{
closed = 1;
nodes = (
"498 652 LINE",
"503 676 LINE",
"547 683 OFFCURVE",
"576 708 OFFCURVE",
"583 741 CURVE SMOOTH",
"592 782 OFFCURVE",
"565 809 OFFCURVE",
"507 809 CURVE SMOOTH",
"485 809 OFFCURVE",
"456 805 OFFCURVE",
"439 799 CURVE",
"430 757 LINE",
"441 762 OFFCURVE",
"459 765 OFFCURVE",
"474 765 CURVE SMOOTH",
"503 765 OFFCURVE",
"516 757 OFFCURVE",
"511 735 CURVE SMOOTH",
"506 711 OFFCURVE",
"485 702 OFFCURVE",
"445 702 CURVE",
"434 652 LINE"
);
}
);
width = 655;
}
);
leftKerningGroup = a;
note = abrevehookabove;
rightKerningGroup = a;
unicode = 1EB3;
},
{
glyphname = abrevetilde;
lastChange = "2015-11-30 00:36:21 +0000";
layers = (
{
layerId = "493B3A41-641C-4718-8E4F-15C1585391FA";
name = "Regular Italic";
paths = (
{
closed = 1;
nodes = (
"330 -15 OFFCURVE",
"396 11 OFFCURVE",
"461 70 CURVE",
"447 0 LINE",
"545 0 LINE",
"647 480 LINE",
"546 480 LINE",
"532 416 LINE",
"498 469 OFFCURVE",
"436 495 OFFCURVE",
"352 495 CURVE SMOOTH",
"206 495 OFFCURVE",
"78 391 OFFCURVE",
"45 239 CURVE SMOOTH",
"12 84 OFFCURVE",
"110 -15 OFFCURVE",
"243 -15 CURVE SMOOTH"
);
},
{
closed = 1;
nodes = (
"155 65 OFFCURVE",
"125 134 OFFCURVE",
"147 239 CURVE SMOOTH",
"170 344 OFFCURVE",
"259 414 OFFCURVE",
"357 414 CURVE SMOOTH",
"440 414 OFFCURVE",
"499 367 OFFCURVE",
"506 293 CURVE",
"483 185 LINE",
"442 111 OFFCURVE",
"365 65 OFFCURVE",
"283 65 CURVE SMOOTH"
);
},
{
closed = 1;
nodes = (
"549 535 OFFCURVE",
"616 591 OFFCURVE",
"633 672 CURVE",
"556 672 LINE",
"547 628 OFFCURVE",
"515 602 OFFCURVE",
"469 602 CURVE SMOOTH",
"424 602 OFFCURVE",
"403 628 OFFCURVE",
"412 672 CURVE",
"341 672 LINE",
"324 591 OFFCURVE",
"367 535 OFFCURVE",
"458 535 CURVE SMOOTH"
);
},
{
closed = 1;
nodes = (
"364 732 OFFCURVE",
"391 743 OFFCURVE",
"422 743 CURVE SMOOTH",
"473 743 OFFCURVE",
"510 700 OFFCURVE",
"569 700 CURVE SMOOTH",
"604 700 OFFCURVE",
"633 709 OFFCURVE",
"656 735 CURVE",
"672 810 LINE",
"642 777 OFFCURVE",
"613 766 OFFCURVE",
"583 766 CURVE SMOOTH",
"531 766 OFFCURVE",
"491 810 OFFCURVE",
"436 810 CURVE SMOOTH",
"401 810 OFFCURVE",
"371 800 OFFCURVE",
"348 774 CURVE",
"332 699 LINE"
);
}
);
width = 655;
}
);
leftKerningGroup = a;
note = abrevetilde;
rightKerningGroup = a;
unicode = 1EB5;
},
{
glyphname = acaron;
lastChange = "2015-11-30 00:36:21 +0000";
layers = (
{
layerId = "493B3A41-641C-4718-8E4F-15C1585391FA";
name = "Regular Italic";
paths = (
{
closed = 1;
nodes = (
"330 -15 OFFCURVE",
"396 11 OFFCURVE",
"461 70 CURVE",
"447 0 LINE",
"545 0 LINE",
"647 480 LINE",
"546 480 LINE",
"532 416 LINE",
"498 469 OFFCURVE",
"436 495 OFFCURVE",
"352 495 CURVE SMOOTH",
"206 495 OFFCURVE",
"78 391 OFFCURVE",
"45 239 CURVE SMOOTH",
"12 84 OFFCURVE",
"110 -15 OFFCURVE",
"243 -15 CURVE SMOOTH"
);
},
{
closed = 1;
nodes = (
"155 65 OFFCURVE",
"125 134 OFFCURVE",
"147 239 CURVE SMOOTH",
"170 344 OFFCURVE",
"259 414 OFFCURVE",
"357 414 CURVE SMOOTH",
"440 414 OFFCURVE",
"499 367 OFFCURVE",
"506 293 CURVE",
"483 185 LINE",
"442 111 OFFCURVE",
"365 65 OFFCURVE",
"283 65 CURVE SMOOTH"
);
},
{
closed = 1;
nodes = (
"493 535 LINE",
"671 701 LINE",
"566 701 LINE",
"459 594 LINE",
"398 701 LINE",
"299 701 LINE",
"404 535 LINE"
);
}
);
width = 655;
}
);
leftKerningGroup = a;
note = acaron;
rightKerningGroup = a;
unicode = 01CE;
},
{
glyphname = acircumflex;
lastChange = "2015-11-30 00:36:21 +0000";
layers = (
{
layerId = "493B3A41-641C-4718-8E4F-15C1585391FA";
name = "Regular Italic";
paths = (
{
closed = 1;
nodes = (
"330 -15 OFFCURVE",
"396 11 OFFCURVE",
"461 70 CURVE",
"447 0 LINE",
"545 0 LINE",
"647 480 LINE",
"546 480 LINE",
"532 416 LINE",
"498 469 OFFCURVE",
"436 495 OFFCURVE",
"352 495 CURVE SMOOTH",
"206 495 OFFCURVE",
"78 391 OFFCURVE",
"45 239 CURVE SMOOTH",
"12 84 OFFCURVE",
"110 -15 OFFCURVE",
"243 -15 CURVE SMOOTH"
);
},
{
closed = 1;
nodes = (
"155 65 OFFCURVE",
"125 134 OFFCURVE",
"147 239 CURVE SMOOTH",
"170 344 OFFCURVE",
"259 414 OFFCURVE",
"357 414 CURVE SMOOTH",
"440 414 OFFCURVE",
"499 367 OFFCURVE",
"506 293 CURVE",
"483 185 LINE",
"442 111 OFFCURVE",
"365 65 OFFCURVE",
"283 65 CURVE SMOOTH"
);
},
{
closed = 1;
nodes = (
"361 534 LINE",
"468 641 LINE",
"529 534 LINE",
"628 534 LINE",
"522 700 LINE",
"433 700 LINE",
"256 534 LINE"
);
}
);
width = 655;
}
);
leftKerningGroup = a;
note = acircumflex;
rightKerningGroup = a;
unicode = 00E2;
},
{
glyphname = acircumflexacute;
lastChange = "2015-11-30 00:36:22 +0000";
layers = (
{
layerId = "493B3A41-641C-4718-8E4F-15C1585391FA";
name = "Regular Italic";
paths = (
{
closed = 1;
nodes = (
"330 -15 OFFCURVE",
"396 11 OFFCURVE",
"461 70 CURVE",
"447 0 LINE",
"545 0 LINE",
"647 480 LINE",
"546 480 LINE",
"532 416 LINE",
"498 469 OFFCURVE",
"436 495 OFFCURVE",
"352 495 CURVE SMOOTH",
"206 495 OFFCURVE",
"78 391 OFFCURVE",
"45 239 CURVE SMOOTH",
"12 84 OFFCURVE",
"110 -15 OFFCURVE",
"243 -15 CURVE SMOOTH"
);
},
{
closed = 1;
nodes = (
"155 65 OFFCURVE",
"125 134 OFFCURVE",
"147 239 CURVE SMOOTH",
"170 344 OFFCURVE",
"259 414 OFFCURVE",
"357 414 CURVE SMOOTH",
"440 414 OFFCURVE",
"499 367 OFFCURVE",
"506 293 CURVE",
"483 185 LINE",
"442 111 OFFCURVE",
"365 65 OFFCURVE",
"283 65 CURVE SMOOTH"
);
},
{
closed = 1;
nodes = (
"370 534 LINE",
"471 624 LINE",
"534 534 LINE",
"629 534 LINE",
"523 679 LINE",
"437 679 LINE",
"268 534 LINE"
);
},
{
closed = 1;
nodes = (
"659 635 LINE",
"764 759 LINE",
"673 759 LINE",
"582 635 LINE"
);
}
);
width = 654;
}
);
leftKerningGroup = a;
note = acircumflexacute;
rightKerningGroup = a;
unicode = 1EA5;
},
{
glyphname = acircumflexdotbelow;
lastChange = "2015-11-30 00:36:23 +0000";
layers = (
{
layerId = "493B3A41-641C-4718-8E4F-15C1585391FA";
name = "Regular Italic";
paths = (
{
closed = 1;
nodes = (
"330 -15 OFFCURVE",
"396 11 OFFCURVE",
"461 70 CURVE",
"447 0 LINE",
"545 0 LINE",
"647 480 LINE",
"546 480 LINE",
"532 416 LINE",
"498 469 OFFCURVE",
"436 495 OFFCURVE",
"352 495 CURVE SMOOTH",
"206 495 OFFCURVE",
"78 391 OFFCURVE",
"45 239 CURVE SMOOTH",
"12 84 OFFCURVE",
"110 -15 OFFCURVE",
"243 -15 CURVE SMOOTH"
);
},
{
closed = 1;
nodes = (
"315 -166 OFFCURVE",
"346 -140 OFFCURVE",
"353 -108 CURVE SMOOTH",
"359 -76 OFFCURVE",
"339 -50 OFFCURVE",
"309 -50 CURVE SMOOTH",
"277 -50 OFFCURVE",
"244 -76 OFFCURVE",
"238 -108 CURVE SMOOTH",
"231 -140 OFFCURVE",
"252 -166 OFFCURVE",
"284 -166 CURVE SMOOTH"
);
},
{
closed = 1;
nodes = (
"155 65 OFFCURVE",
"125 134 OFFCURVE",
"147 239 CURVE SMOOTH",
"170 344 OFFCURVE",
"259 414 OFFCURVE",
"357 414 CURVE SMOOTH",
"440 414 OFFCURVE",
"499 367 OFFCURVE",
"506 293 CURVE",
"483 185 LINE",
"442 111 OFFCURVE",
"365 65 OFFCURVE",
"283 65 CURVE SMOOTH"
);
},
{
closed = 1;
nodes = (
"353 534 LINE",
"460 641 LINE",
"521 534 LINE",
"620 534 LINE",
"514 700 LINE",
"425 700 LINE",
"248 534 LINE"
);
}
);
width = 655;
}
);
leftKerningGroup = a;
note = acircumflexdotbelow;
rightKerningGroup = a;
unicode = 1EAD;
},
{
glyphname = acircumflexgrave;
lastChange = "2015-11-30 00:36:24 +0000";
layers = (
{
layerId = "493B3A41-641C-4718-8E4F-15C1585391FA";
name = "Regular Italic";
paths = (
{
closed = 1;
nodes = (
"330 -15 OFFCURVE",
"396 11 OFFCURVE",
"461 70 CURVE",
"447 0 LINE",
"545 0 LINE",
"647 480 LINE",
"546 480 LINE",
"532 416 LINE",
"498 469 OFFCURVE",
"436 495 OFFCURVE",
"352 495 CURVE SMOOTH",
"206 495 OFFCURVE",
"78 391 OFFCURVE",
"45 239 CURVE SMOOTH",
"12 84 OFFCURVE",
"110 -15 OFFCURVE",
"243 -15 CURVE SMOOTH"
);
},
{
closed = 1;
nodes = (
"155 65 OFFCURVE",
"125 134 OFFCURVE",
"147 239 CURVE SMOOTH",
"170 344 OFFCURVE",
"259 414 OFFCURVE",
"357 414 CURVE SMOOTH",
"440 414 OFFCURVE",
"499 367 OFFCURVE",
"506 293 CURVE",
"483 185 LINE",
"442 111 OFFCURVE",
"365 65 OFFCURVE",
"283 65 CURVE SMOOTH"
);
},
{
closed = 1;
nodes = (
"358 635 LINE",
"318 759 LINE",
"227 759 LINE",
"280 635 LINE"
);
},
{
closed = 1;
nodes = (
"368 534 LINE",
"469 624 LINE",
"532 534 LINE",
"627 534 LINE",
"521 679 LINE",
"435 679 LINE",
"266 534 LINE"
);
}
);
width = 655;
}
);
leftKerningGroup = a;
note = acircumflexgrave;
rightKerningGroup = a;
unicode = 1EA7;
},
{
glyphname = acircumflexhookabove;
lastChange = "2015-11-30 00:36:22 +0000";
layers = (
{
layerId = "493B3A41-641C-4718-8E4F-15C1585391FA";
name = "Regular Italic";
paths = (
{
closed = 1;
nodes = (
"330 -15 OFFCURVE",
"396 11 OFFCURVE",
"461 70 CURVE",
"447 0 LINE",
"545 0 LINE",
"647 480 LINE",
"546 480 LINE",
"532 416 LINE",
"498 469 OFFCURVE",
"436 495 OFFCURVE",
"352 495 CURVE SMOOTH",
"206 495 OFFCURVE",
"78 391 OFFCURVE",
"45 239 CURVE SMOOTH",
"12 84 OFFCURVE",
"110 -15 OFFCURVE",
"243 -15 CURVE SMOOTH"
);
},
{
closed = 1;
nodes = (
"155 65 OFFCURVE",
"125 134 OFFCURVE",
"147 239 CURVE SMOOTH",
"170 344 OFFCURVE",
"259 414 OFFCURVE",
"357 414 CURVE SMOOTH",
"440 414 OFFCURVE",
"499 367 OFFCURVE",
"506 293 CURVE",
"483 185 LINE",
"442 111 OFFCURVE",
"365 65 OFFCURVE",
"283 65 CURVE SMOOTH"
);
},
{
closed = 1;
nodes = (
"361 534 LINE",
"462 624 LINE",
"525 534 LINE",
"620 534 LINE",
"514 679 LINE",
"428 679 LINE",
"259 534 LINE"
);
},
{
closed = 1;
nodes = (
"637 626 LINE",
"642 651 LINE",
"685 657 OFFCURVE",
"715 683 OFFCURVE",
"722 716 CURVE SMOOTH",
"731 757 OFFCURVE",
"703 784 OFFCURVE",
"645 784 CURVE SMOOTH",
"623 784 OFFCURVE",
"594 779 OFFCURVE",
"578 774 CURVE",
"569 731 LINE",
"580 736 OFFCURVE",
"598 739 OFFCURVE",
"613 739 CURVE SMOOTH",
"642 739 OFFCURVE",
"654 731 OFFCURVE",
"650 710 CURVE",
"644 686 OFFCURVE",
"623 676 OFFCURVE",
"584 676 CURVE",
"574 626 LINE"
);
}
);
width = 651;
}
);
leftKerningGroup = a;
note = acircumflexhookabove;
rightKerningGroup = a;
unicode = 1EA9;
},
{
glyphname = acircumflextilde;
lastChange = "2015-11-30 00:36:22 +0000";
layers = (
{
layerId = "493B3A41-641C-4718-8E4F-15C1585391FA";
name = "Regular Italic";
paths = (
{
closed = 1;
nodes = (
"330 -15 OFFCURVE",
"396 11 OFFCURVE",
"461 70 CURVE",
"447 0 LINE",
"545 0 LINE",
"647 480 LINE",
"546 480 LINE",
"532 416 LINE",
"498 469 OFFCURVE",
"436 495 OFFCURVE",
"352 495 CURVE SMOOTH",
"206 495 OFFCURVE",
"78 391 OFFCURVE",
"45 239 CURVE SMOOTH",
"12 84 OFFCURVE",
"110 -15 OFFCURVE",
"243 -15 CURVE SMOOTH"
);
},
{
closed = 1;
nodes = (
"155 65 OFFCURVE",
"125 134 OFFCURVE",
"147 239 CURVE SMOOTH",
"170 344 OFFCURVE",
"259 414 OFFCURVE",
"357 414 CURVE SMOOTH",
"440 414 OFFCURVE",
"499 367 OFFCURVE",
"506 293 CURVE",
"483 185 LINE",
"442 111 OFFCURVE",
"365 65 OFFCURVE",
"283 65 CURVE SMOOTH"
);
},
{
closed = 1;
nodes = (
"365 534 LINE",
"466 624 LINE",
"529 534 LINE",
"624 534 LINE",
"518 679 LINE",
"432 679 LINE",
"263 534 LINE"
);
},
{
closed = 1;
nodes = (
"354 720 OFFCURVE",
"381 731 OFFCURVE",
"412 731 CURVE SMOOTH",
"463 731 OFFCURVE",
"500 688 OFFCURVE",
"559 688 CURVE SMOOTH",
"594 688 OFFCURVE",
"623 697 OFFCURVE",
"646 723 CURVE",
"662 798 LINE",
"632 765 OFFCURVE",
"603 754 OFFCURVE",
"573 754 CURVE SMOOTH",
"521 754 OFFCURVE",
"481 798 OFFCURVE",
"426 798 CURVE SMOOTH",
"391 798 OFFCURVE",
"361 788 OFFCURVE",
"338 762 CURVE",
"322 687 LINE"
);
}
);
width = 655;
}
);
leftKerningGroup = a;
note = acircumflextilde;
rightKerningGroup = a;
unicode = 1EAB;
},
{
glyphname = adieresis;
lastChange = "2015-11-30 00:36:24 +0000";
layers = (
{
layerId = "493B3A41-641C-4718-8E4F-15C1585391FA";
name = "Regular Italic";
paths = (
{
closed = 1;
nodes = (
"330 -15 OFFCURVE",
"396 11 OFFCURVE",
"461 70 CURVE",
"447 0 LINE",
"545 0 LINE",
"647 480 LINE",
"546 480 LINE",
"532 416 LINE",
"498 469 OFFCURVE",
"436 495 OFFCURVE",
"352 495 CURVE SMOOTH",
"206 495 OFFCURVE",
"78 391 OFFCURVE",
"45 239 CURVE SMOOTH",
"12 84 OFFCURVE",
"110 -15 OFFCURVE",
"243 -15 CURVE SMOOTH"
);
},
{
closed = 1;
nodes = (
"155 65 OFFCURVE",
"125 134 OFFCURVE",
"147 239 CURVE SMOOTH",
"170 344 OFFCURVE",
"259 414 OFFCURVE",
"357 414 CURVE SMOOTH",
"440 414 OFFCURVE",
"499 367 OFFCURVE",
"506 293 CURVE",
"483 185 LINE",
"442 111 OFFCURVE",
"365 65 OFFCURVE",
"283 65 CURVE SMOOTH"
);
},
{
closed = 1;
nodes = (
"354 530 OFFCURVE",
"385 556 OFFCURVE",
"392 588 CURVE SMOOTH",
"399 620 OFFCURVE",
"379 646 OFFCURVE",
"348 646 CURVE SMOOTH",
"316 646 OFFCURVE",
"284 620 OFFCURVE",
"277 588 CURVE SMOOTH",
"270 556 OFFCURVE",
"292 530 OFFCURVE",
"323 530 CURVE SMOOTH"
);
},
{
closed = 1;
nodes = (
"581 530 OFFCURVE",
"612 556 OFFCURVE",
"619 588 CURVE SMOOTH",
"626 620 OFFCURVE",
"606 646 OFFCURVE",
"575 646 CURVE SMOOTH",
"543 646 OFFCURVE",
"510 620 OFFCURVE",
"503 588 CURVE SMOOTH",
"496 556 OFFCURVE",
"518 530 OFFCURVE",
"550 530 CURVE SMOOTH"
);
}
);
width = 655;
}
);
leftKerningGroup = a;
note = adieresis;
rightKerningGroup = a;
unicode = 00E4;
},
{
glyphname = adotbelow;
lastChange = "2015-11-30 00:36:23 +0000";
layers = (
{
layerId = "493B3A41-641C-4718-8E4F-15C1585391FA";
name = "Regular Italic";
paths = (
{
closed = 1;
nodes = (
"330 -15 OFFCURVE",
"396 11 OFFCURVE",
"461 70 CURVE",
"447 0 LINE",
"545 0 LINE",
"647 480 LINE",
"546 480 LINE",
"532 416 LINE",
"498 469 OFFCURVE",
"436 495 OFFCURVE",
"352 495 CURVE SMOOTH",
"206 495 OFFCURVE",
"78 391 OFFCURVE",
"45 239 CURVE SMOOTH",
"12 84 OFFCURVE",
"110 -15 OFFCURVE",
"243 -15 CURVE SMOOTH"
);
},
{
closed = 1;
nodes = (
"312 -166 OFFCURVE",
"343 -140 OFFCURVE",
"350 -108 CURVE SMOOTH",
"356 -76 OFFCURVE",
"336 -50 OFFCURVE",
"306 -50 CURVE SMOOTH",
"274 -50 OFFCURVE",
"241 -76 OFFCURVE",
"235 -108 CURVE SMOOTH",
"228 -140 OFFCURVE",
"249 -166 OFFCURVE",
"281 -166 CURVE SMOOTH"
);
},
{
closed = 1;
nodes = (
"155 65 OFFCURVE",
"125 134 OFFCURVE",
"147 239 CURVE SMOOTH",
"170 344 OFFCURVE",
"259 414 OFFCURVE",
"357 414 CURVE SMOOTH",
"440 414 OFFCURVE",
"499 367 OFFCURVE",
"506 293 CURVE",
"483 185 LINE",
"442 111 OFFCURVE",
"365 65 OFFCURVE",
"283 65 CURVE SMOOTH"
);
}
);
width = 655;
}
);
leftKerningGroup = a;
note = adotbelow;
rightKerningGroup = a;
unicode = 1EA1;
},
{
glyphname = agrave;
lastChange = "2015-11-30 00:36:24 +0000";
layers = (
{
layerId = "493B3A41-641C-4718-8E4F-15C1585391FA";
name = "Regular Italic";
paths = (
{
closed = 1;
nodes = (
"330 -15 OFFCURVE",
"396 11 OFFCURVE",
"461 70 CURVE",
"447 0 LINE",
"545 0 LINE",
"647 480 LINE",
"546 480 LINE",
"532 416 LINE",
"498 469 OFFCURVE",
"436 495 OFFCURVE",
"352 495 CURVE SMOOTH",
"206 495 OFFCURVE",
"78 391 OFFCURVE",
"45 239 CURVE SMOOTH",
"12 84 OFFCURVE",
"110 -15 OFFCURVE",
"243 -15 CURVE SMOOTH"
);
},
{
closed = 1;
nodes = (
"155 65 OFFCURVE",
"125 134 OFFCURVE",
"147 239 CURVE SMOOTH",
"170 344 OFFCURVE",
"259 414 OFFCURVE",
"357 414 CURVE SMOOTH",
"440 414 OFFCURVE",
"499 367 OFFCURVE",
"506 293 CURVE",
"483 185 LINE",
"442 111 OFFCURVE",
"365 65 OFFCURVE",
"283 65 CURVE SMOOTH"
);
},
{
closed = 1;
nodes = (
"496 534 LINE",
"464 706 LINE",
"357 706 LINE",
"403 534 LINE"
);
}
);
width = 655;
}
);
leftKerningGroup = a;
note = agrave;
rightKerningGroup = a;
unicode = 00E0;
},
{
glyphname = ahookabove;
lastChange = "2015-11-30 00:36:22 +0000";
layers = (
{
layerId = "493B3A41-641C-4718-8E4F-15C1585391FA";
name = "Regular Italic";
paths = (
{
closed = 1;
nodes = (
"330 -15 OFFCURVE",
"396 11 OFFCURVE",
"461 70 CURVE",
"447 0 LINE",
"545 0 LINE",
"647 480 LINE",
"546 480 LINE",
"532 416 LINE",
"498 469 OFFCURVE",
"436 495 OFFCURVE",
"352 495 CURVE SMOOTH",
"206 495 OFFCURVE",
"78 391 OFFCURVE",
"45 239 CURVE SMOOTH",
"12 84 OFFCURVE",
"110 -15 OFFCURVE",
"243 -15 CURVE SMOOTH"
);
},
{
closed = 1;
nodes = (
"155 65 OFFCURVE",
"125 134 OFFCURVE",
"147 239 CURVE SMOOTH",
"170 344 OFFCURVE",
"259 414 OFFCURVE",
"357 414 CURVE SMOOTH",
"440 414 OFFCURVE",
"499 367 OFFCURVE",
"506 293 CURVE",
"483 185 LINE",
"442 111 OFFCURVE",
"365 65 OFFCURVE",
"283 65 CURVE SMOOTH"
);
},
{
closed = 1;
nodes = (
"488 535 LINE",
"495 569 LINE",
"557 577 OFFCURVE",
"597 615 OFFCURVE",
"607 663 CURVE SMOOTH",
"619 720 OFFCURVE",
"585 760 OFFCURVE",
"497 760 CURVE SMOOTH",
"465 760 OFFCURVE",
"428 754 OFFCURVE",
"407 747 CURVE",
"395 692 LINE",
"409 698 OFFCURVE",
"445 703 OFFCURVE",
"461 703 CURVE SMOOTH",
"507 703 OFFCURVE",
"524 690 OFFCURVE",
"517 659 CURVE SMOOTH",
"509 620 OFFCURVE",
"474 606 OFFCURVE",
"414 606 CURVE",
"399 535 LINE"
);
}
);
width = 655;
}
);
leftKerningGroup = a;
note = ahookabove;
rightKerningGroup = a;
unicode = 1EA3;
},
{
glyphname = "alpha-latin";
lastChange = "2015-11-30 00:36:24 +0000";
layers = (
{
layerId = "493B3A41-641C-4718-8E4F-15C1585391FA";
name = "Regular Italic";
paths = (
{
closed = 1;
nodes = (
"330 -15 OFFCURVE",
"396 11 OFFCURVE",
"461 70 CURVE",
"447 0 LINE",
"545 0 LINE",
"647 480 LINE",
"546 480 LINE",
"532 416 LINE",
"498 469 OFFCURVE",
"436 495 OFFCURVE",
"352 495 CURVE SMOOTH",
"206 495 OFFCURVE",
"78 391 OFFCURVE",
"45 239 CURVE SMOOTH",
"12 84 OFFCURVE",
"110 -15 OFFCURVE",
"243 -15 CURVE SMOOTH"
);
},
{
closed = 1;
nodes = (
"155 65 OFFCURVE",
"125 134 OFFCURVE",
"147 239 CURVE SMOOTH",
"170 344 OFFCURVE",
"259 414 OFFCURVE",
"357 414 CURVE SMOOTH",
"440 414 OFFCURVE",
"499 367 OFFCURVE",
"506 293 CURVE",
"483 185 LINE",
"442 111 OFFCURVE",
"365 65 OFFCURVE",
"283 65 CURVE SMOOTH"
);
}
);
width = 660;
}
);
leftKerningGroup = a;
note = ascript;
rightKerningGroup = a;
unicode = 0251;
},
{
glyphname = amacron;
lastChange = "2015-11-30 00:36:24 +0000";
layers = (
{
layerId = "493B3A41-641C-4718-8E4F-15C1585391FA";
name = "Regular Italic";
paths = (
{
closed = 1;
nodes = (
"330 -15 OFFCURVE",
"396 11 OFFCURVE",
"461 70 CURVE",
"447 0 LINE",
"545 0 LINE",
"647 480 LINE",
"546 480 LINE",
"532 416 LINE",
"498 469 OFFCURVE",
"436 495 OFFCURVE",
"352 495 CURVE SMOOTH",
"206 495 OFFCURVE",
"78 391 OFFCURVE",
"45 239 CURVE SMOOTH",
"12 84 OFFCURVE",
"110 -15 OFFCURVE",
"243 -15 CURVE SMOOTH"
);
},
{
closed = 1;
nodes = (
"155 65 OFFCURVE",
"125 134 OFFCURVE",
"147 239 CURVE SMOOTH",
"170 344 OFFCURVE",
"259 414 OFFCURVE",
"357 414 CURVE SMOOTH",
"440 414 OFFCURVE",
"499 367 OFFCURVE",
"506 293 CURVE",
"483 185 LINE",
"442 111 OFFCURVE",
"365 65 OFFCURVE",
"283 65 CURVE SMOOTH"
);
},
{
closed = 1;
nodes = (
"610 545 LINE",
"625 614 LINE",
"314 614 LINE",
"299 545 LINE"
);
}
);
width = 655;
}
);
leftKerningGroup = a;
note = amacron;
rightKerningGroup = a;
unicode = 0101;
},
